/* XPM */
static char * 01_nether_portal_xpm[] = {
"16 16 117 2",
"  	c #1C00CB",
". 	c #5F00DD",
"+ 	c #7B00E5",
"@ 	c #8400E6",
"# 	c #7A00E4",
"$ 	c #5000D9",
"% 	c #3F00D5",
"& 	c #7D00E5",
"* 	c #4900D7",
"= 	c #0000C5",
"- 	c #7F00E6",
"; 	c #8700E7",
"> 	c #2E00CF",
", 	c #1000C9",
"' 	c #6300DE",
") 	c #C525F6",
"! 	c #9800EC",
"~ 	c #8200E6",
"{ 	c #AF00F1",
"] 	c #7700E3",
"^ 	c #0300C6",
"/ 	c #0000C4",
"( 	c #3D00D3",
"_ 	c #4000D4",
": 	c #0000C3",
"< 	c #4E00D8",
"[ 	c #4400D6",
"} 	c #4200D5",
"| 	c #6C00E0",
"1 	c #5900DB",
"2 	c #B300F2",
"3 	c #9300EB",
"4 	c #C832F7",
"5 	c #0800C8",
"6 	c #0000C0",
"7 	c #9000EA",
"8 	c #8D00E9",
"9 	c #8600E6",
"0 	c #0D00C7",
"a 	c #5A00DC",
"b 	c #9700EB",
"c 	c #9200EA",
"d 	c #2000CC",
"e 	c #1400CB",
"f 	c #6E00E1",
"g 	c #A300EF",
"h 	c #6700DF",
"i 	c #7800E4",
"j 	c #2800CD",
"k 	c #AA00F0",
"l 	c #0000C1",
"m 	c #1400C8",
"n 	c #0000BE",
"o 	c #6A00DF",
"p 	c #6A00E0",
"q 	c #1700CA",
"r 	c #0800C5",
"s 	c #8B00E9",
"t 	c #6400DF",
"u 	c #0000BD",
"v 	c #3400D1",
"w 	c #2200CD",
"x 	c #9E00ED",
"y 	c #9700EC",
"z 	c #B400F3",
"A 	c #8900E7",
"B 	c #0000BF",
"C 	c #6600DF",
"D 	c #6100DD",
"E 	c #A500EF",
"F 	c #8500E7",
"G 	c #2600CE",
"H 	c #3000D1",
"I 	c #2B00CE",
"J 	c #2D00D0",
"K 	c #9600EC",
"L 	c #0000BB",
"M 	c #5D00DC",
"N 	c #6800DF",
"O 	c #8C00E8",
"P 	c #4B00D7",
"Q 	c #7100E2",
"R 	c #4700D6",
"S 	c #1900CC",
"T 	c #7300E2",
"U 	c #BC00F4",
"V 	c #2A00CF",
"W 	c #2400CD",
"X 	c #AB00F0",
"Y 	c #0000C7",
"Z 	c #3A00D3",
"` 	c #A300EE",
" .	c #5700DA",
"..	c #0600B8",
"+.	c #5000D8",
"@.	c #8E00EA",
"#.	c #5600DB",
"$.	c #BD01F5",
"%.	c #9C00EC",
"&.	c #8A00E8",
"*.	c #0000C2",
"=.	c #BA00F4",
"-.	c #9F00EE",
";.	c #3C00D4",
">.	c #A700F0",
",.	c #B600F3",
"'.	c #A600F0",
").	c #A100EE",
"!.	c #3700D2",
"~.	c #8F00E9",
"{.	c #3300D2",
"].	c #A000ED",
"^.	c #AE00F1",
"/.	c #8100E6",
"(.	c #5100DA",
"_.	c #5400DA",
":.	c #3100D0",
"  . + @ # $ % & * = - ; > , , ' ",
") ! ~ { ] ^ / ( _ : < [ : } | 1 ",
"2 3 4 ; 5 6 1 7 8 % 9 7 0 6 a b ",
"* c & d e f g h i j | k i e l $ ",
"m < n 0 o 8 p l q r l * s t : u ",
"v w l ' x t 6 ^ = 1 : ^ [ y o 6 ",
"; ' 1 z A : B _ _ C i   / D E - ",
"F G * o H 5 I J @ f K 8 5 L M N ",
"O P < Q R S d 6 T U U f V S N c ",
". W H X x 5 Y Z [ & Q ` t Z  .1 ",
"> 5 ..+.E @.W V #.#.$.%., L v H ",
"+ &.w *.* =.g h h -.E v : ;.>.+ ",
"1 { ! I S * ,.7 c >.v , _ 3 '.} ",
"J ;.'.).G *.Z f M w l !.8 ~.!.q ",
"{.  1 =.].^ = < j 6 > ^./.J 6 I ",
"B * (.# @.h _.c i Z 7 &.q 6 :., "};
