/* XPM */
static char * 01_nether_portal_xpm[] = {
"32 32 114 2",
"  	c #3F00D5",
". 	c #7F00E6",
"+ 	c #8C00E8",
"@ 	c #7500E3",
"# 	c #6E00E1",
"$ 	c #3400D1",
"% 	c #3700D2",
"& 	c #7300E2",
"* 	c #4E00D8",
"= 	c #1400C8",
"- 	c #7000E1",
"; 	c #A100EE",
"> 	c #0000C0",
", 	c #0300C6",
"' 	c #5700DA",
") 	c #C21EF6",
"! 	c #A700F0",
"~ 	c #7700E3",
"{ 	c #AB00F0",
"] 	c #8F00E9",
"^ 	c #0000C2",
"/ 	c #0000C4",
"( 	c #4B00D8",
"_ 	c #2400CD",
": 	c #4B00D7",
"< 	c #3D00D3",
"[ 	c #1E00CD",
"} 	c #4700D6",
"| 	c #5400DA",
"1 	c #9600EC",
"2 	c #C01BF6",
"3 	c #7B00E5",
"4 	c #1C00CB",
"5 	c #9200EA",
"6 	c #9300EB",
"7 	c #5600DB",
"8 	c #8400E6",
"9 	c #0000BD",
"0 	c #4900D7",
"a 	c #8500E7",
"b 	c #4400D6",
"c 	c #8100E6",
"d 	c #0800C8",
"e 	c #5A00DC",
"f 	c #7800E4",
"g 	c #8A00E8",
"h 	c #5D00DC",
"i 	c #C321F5",
"j 	c #1000C9",
"k 	c #6700DF",
"l 	c #0000C5",
"m 	c #4600D7",
"n 	c #0000BF",
"o 	c #0000BE",
"p 	c #A500EF",
"q 	c #0000C1",
"r 	c #2000CC",
"s 	c #9A00EC",
"t 	c #2E00CF",
"u 	c #0D00C7",
"v 	c #BB00F4",
"w 	c #7100E2",
"x 	c #3A00D3",
"y 	c #0000BB",
"z 	c #9800EC",
"A 	c #0000C3",
"B 	c #5000D9",
"C 	c #A900F0",
"D 	c #6300DE",
"E 	c #6800DF",
"F 	c #3100D0",
"G 	c #1700CA",
"H 	c #6E00E0",
"I 	c #8600E6",
"J 	c #8800E8",
"K 	c #2A00CF",
"L 	c #6200DF",
"M 	c #BF06F5",
"N 	c #6000DE",
"O 	c #2B00CE",
"P 	c #A200EE",
"Q 	c #5200D9",
"R 	c #8D00E9",
"S 	c #8900E7",
"T 	c #6600DF",
"U 	c #3000D1",
"V 	c #0000BA",
"W 	c #4200D5",
"X 	c #BC00F4",
"Y 	c #A800F0",
"Z 	c #2200CD",
"` 	c #5C00DD",
" .	c #0000C7",
"..	c #B400F3",
"+.	c #9D00ED",
"@.	c #5900DB",
"#.	c #A200EF",
"$.	c #AD00F0",
"%.	c #8700E7",
"&.	c #A700EF",
"*.	c #3C00D4",
"=.	c #A600EF",
"-.	c #0100B9",
";.	c #2800CD",
">.	c #9400EB",
",.	c #AA00F0",
"'.	c #1400CB",
").	c #CB39F8",
"!.	c #9700EB",
"~.	c #1900CC",
"{.	c #A300EF",
"].	c #4C00D7",
"^.	c #9700EC",
"/.	c #8B00E9",
"  . + @ # $ % & * = - ; * > , '   . + @ # $ % & * = - ; * > , ' ",
") ! ~ { ] ^ / ( _ > : < [ % } | ) ! ~ { ] ^ / ( _ > : < [ % } | ",
"1 . 2 3 4 > | 5 6 7 @ 8 _ 9 0 a 1 . 2 3 4 > | 5 6 7 @ 8 _ 9 0 a ",
"b @ c d > e { f g % h i @ j > k b @ c d > e { f g % h i @ j > k ",
"l m n o @ p & q _ r q e s ~ j > l m n o @ p & q _ r q e s ~ j > ",
"4 t u - v w ^ > q x ^ y * ! + q 4 t u - v w ^ > q x ^ y * ! + q ",
"z @ : { + A A x < B k 4 q | C D z @ : { + A A x < B k 4 q | C D ",
"E F r E m G $ j 8 H I . l A   h E F r E m G $ j 8 H I . l A   h ",
"J 0 K L b x K n J { M | j A 3 - J 0 K L b x K n J { M | j A 3 - ",
"N O : P z 4 ,   Q R 8 S T $ 7 * N O : P z 4 ,   Q R 8 S T $ 7 * ",
"U 4 V b p C b W 8 - X Y _ q $ Z U 4 V b p C b W 8 - X Y _ q $ Z ",
"` S _  .` v ..| & ..+.F > b C @.` S _  .` v ..| & ..+.F > b C @.",
"| { #.t u < $.g %.&.*.o 0 =...B | { #.t u < $.g %.&.*.o 0 =...B ",
"x   { P _ -.m 0 e ;.> b >.,.U '.x   { P _ -.m 0 e ;.> b >.,.U '.",
"$ K E ).!.~.d 0 b ^ F {.%.Z n ;.$ K E ).!.~.d 0 b ^ F {.%.Z n ;.",
"y ' H 3 c | ].^.3 m + /.~.^ _ ~.y ' H 3 c | ].^.3 m + /.~.^ _ ~.",
"  . + @ # $ % & * = - ; * > , '   . + @ # $ % & * = - ; * > , ' ",
") ! ~ { ] ^ / ( _ > : < [ % } | ) ! ~ { ] ^ / ( _ > : < [ % } | ",
"1 . 2 3 4 > | 5 6 7 @ 8 _ 9 0 a 1 . 2 3 4 > | 5 6 7 @ 8 _ 9 0 a ",
"b @ c d > e { f g % h i @ j > k b @ c d > e { f g % h i @ j > k ",
"l m n o @ p & q _ r q e s ~ j > l m n o @ p & q _ r q e s ~ j > ",
"4 t u - v w ^ > q x ^ y * ! + q 4 t u - v w ^ > q x ^ y * ! + q ",
"z @ : { + A A x < B k 4 q | C D z @ : { + A A x < B k 4 q | C D ",
"E F r E m G $ j 8 H I . l A   h E F r E m G $ j 8 H I . l A   h ",
"J 0 K L b x K n J { M | j A 3 - J 0 K L b x K n J { M | j A 3 - ",
"N O : P z 4 ,   Q R 8 S T $ 7 * N O : P z 4 ,   Q R 8 S T $ 7 * ",
"U 4 V b p C b W 8 - X Y _ q $ Z U 4 V b p C b W 8 - X Y _ q $ Z ",
"` S _  .` v ..| & ..+.F > b C @.` S _  .` v ..| & ..+.F > b C @.",
"| { #.t u < $.g %.&.*.o 0 =...B | { #.t u < $.g %.&.*.o 0 =...B ",
"x   { P _ -.m 0 e ;.> b >.,.U '.x   { P _ -.m 0 e ;.> b >.,.U '.",
"$ K E ).!.~.d 0 b ^ F {.%.Z n ;.$ K E ).!.~.d 0 b ^ F {.%.Z n ;.",
"y ' H 3 c | ].^.3 m + /.~.^ _ ~.y ' H 3 c | ].^.3 m + /.~.^ _ ~."};
