/* XPM */
static char * 02_nether_portal_xpm[] = {
"16 16 112 2",
"  	c #1400CB",
". 	c #5400DA",
"+ 	c #7100E2",
"@ 	c #8500E7",
"# 	c #5200D9",
"$ 	c #3C00D4",
"% 	c #7500E3",
"& 	c #3F00D5",
"* 	c #0000C2",
"= 	c #6700DF",
"- 	c #2D00D0",
"; 	c #0000C4",
"> 	c #0800C8",
", 	c #8200E6",
"' 	c #B400F3",
") 	c #8B00E9",
"! 	c #7700E3",
"~ 	c #C117F6",
"{ 	c #9700EB",
"] 	c #0000C0",
"^ 	c #4400D6",
"/ 	c #3700D2",
"( 	c #0000C5",
"_ 	c #0000C1",
": 	c #4600D7",
"< 	c #7300E2",
"[ 	c #A100EE",
"} 	c #9A00EC",
"| 	c #C423F6",
"1 	c #9500EB",
"2 	c #2600CE",
"3 	c #AE00F1",
"4 	c #8C00E8",
"5 	c #5600DB",
"6 	c #A000ED",
"7 	c #1000C9",
"8 	c #0000BA",
"9 	c #6400DF",
"0 	c #B300F2",
"a 	c #9600EC",
"b 	c #8400E6",
"c 	c #2000CC",
"d 	c #2400CD",
"e 	c #6C00E0",
"f 	c #5A00DC",
"g 	c #9D00ED",
"h 	c #6A00DF",
"i 	c #0D00C7",
"j 	c #2B00CE",
"k 	c #0000C3",
"l 	c #5000D9",
"m 	c #6E00E1",
"n 	c #0000BC",
"o 	c #3100D0",
"p 	c #5F00DD",
"q 	c #7B00E5",
"r 	c #0000C7",
"s 	c #0000BE",
"t 	c #2A00CF",
"u 	c #1C00CB",
"v 	c #A700F0",
"w 	c #6800DF",
"x 	c #1400C8",
"y 	c #9000EA",
"z 	c #6300DE",
"A 	c #4000D4",
"B 	c #B500F3",
"C 	c #4900D7",
"D 	c #4200D5",
"E 	c #9700EC",
"F 	c #8A00E8",
"G 	c #0300C6",
"H 	c #B800F3",
"I 	c #7A00E4",
"J 	c #3A00D3",
"K 	c #A600F0",
"L 	c #9300EB",
"M 	c #8E00EA",
"N 	c #9600EB",
"O 	c #5900DB",
"P 	c #2800CD",
"Q 	c #1700CA",
"R 	c #A500EF",
"S 	c #AF00F1",
"T 	c #7F00E6",
"U 	c #2200CD",
"V 	c #4E00D8",
"W 	c #3400D1",
"X 	c #7D00E5",
"Y 	c #8700E7",
"Z 	c #8900E7",
"` 	c #0000BF",
" .	c #BB00F4",
"..	c #A200EE",
"+.	c #A900F0",
"@.	c #AA00F0",
"#.	c #AB00F0",
"$.	c #8800E8",
"%.	c #1900CC",
"&.	c #8D00E9",
"*.	c #9E00ED",
"=.	c #4B00D7",
"-.	c #8F00E9",
";.	c #B900F3",
">.	c #9800EC",
",.	c #0000BD",
"'.	c #3300D2",
").	c #A800F0",
"!.	c #0B00B7",
"~.	c #9900EB",
"{.	c #7800E4",
"].	c #9C00EC",
"  . . + @ # $ % & * = @ - ; > , ",
"' ) ! ~ { > ] ^ / ( . / _ : , < ",
"[ } | 1 2 ( # 3 4 5 6 1 7 8 9 0 ",
". a b c d e } + f 2 . g h > i < ",
"j f k ; l @ m n o 7 ] p q f r s ",
"t u * + v w _ s x = _ ( . y z ] ",
"4 A = B b 7 k C D E F u G : H e ",
"b ^ ^ I u k t J K L 3 M > ] : I ",
"N - O ! P k Q ; 9 R S z c 7 p T ",
"l U V B L ( ] W : X Y 3 Z U C # ",
"^ P ` # L M d t J .  .R - ` ^ # ",
"Y L o t f ..+.V f @.#.$ _ A 0 $.",
"f 3 @ A %.p ~ v &.@.& P ^ } *.l ",
"x =.0 &.W k l e z o G : b -.%.G ",
"d 7 ^ ;.>.Q ,.: c s '.).b i !.7 ",
"; t J z ~.m C Y {.J *.].u n t o "};
