/* XPM */
static char * 03_nether_portal_xpm[] = {
"16 16 109 2",
"  	c #0800C8",
". 	c #4B00D7",
"+ 	c #5400DA",
"@ 	c #6300DE",
"# 	c #9A00EC",
"$ 	c #5900DB",
"% 	c #1000C9",
"& 	c #6400DF",
"* 	c #2800CD",
"= 	c #1C00CB",
"- 	c #7500E3",
"; 	c #6800DF",
"> 	c #3F00D5",
", 	c #2200CD",
"' 	c #8D00E9",
") 	c #B400F3",
"! 	c #6E00E1",
"~ 	c #7300E2",
"{ 	c #BC00F4",
"] 	c #7A00E4",
"^ 	c #0000C5",
"/ 	c #0000BF",
"( 	c #3000D1",
"_ 	c #1700CA",
": 	c #3700D2",
"< 	c #9300EB",
"[ 	c #9000EA",
"} 	c #8700E7",
"| 	c #D44FF9",
"1 	c #9700EC",
"2 	c #2B00CE",
"3 	c #0300C6",
"4 	c #5F00DD",
"5 	c #A600F0",
"6 	c #9400EB",
"7 	c #5A00DC",
"8 	c #0000C0",
"9 	c #5700DA",
"0 	c #A900F0",
"a 	c #6E00E0",
"b 	c #BD01F5",
"c 	c #8500E7",
"d 	c #2E00CF",
"e 	c #2A00CF",
"f 	c #6A00DF",
"g 	c #0000C4",
"h 	c #A400EF",
"i 	c #5D00DC",
"j 	c #7000E1",
"k 	c #3100D0",
"l 	c #6000DE",
"m 	c #1400CB",
"n 	c #5000D9",
"o 	c #6A00E0",
"p 	c #5200D9",
"q 	c #2000CC",
"r 	c #0000C2",
"s 	c #0000C1",
"t 	c #5600DB",
"u 	c #3A00D3",
"v 	c #9B00EC",
"w 	c #1E00CD",
"x 	c #1400C8",
"y 	c #4600D7",
"z 	c #7800E4",
"A 	c #5C00DD",
"B 	c #0800C5",
"C 	c #BF06F5",
"D 	c #0000C7",
"E 	c #9E00ED",
"F 	c #8C00E8",
"G 	c #9600EB",
"H 	c #8F00E9",
"I 	c #3D00D3",
"J 	c #6700DF",
"K 	c #8100E6",
"L 	c #9D00ED",
"M 	c #9200EA",
"N 	c #8200E6",
"O 	c #7700E3",
"P 	c #AA00F0",
"Q 	c #6100DD",
"R 	c #9800EC",
"S 	c #3C00D4",
"T 	c #1900CC",
"U 	c #0000BE",
"V 	c #2600CE",
"W 	c #0000BD",
"X 	c #8A00E8",
"Y 	c #3400D1",
"Z 	c #4400D6",
"` 	c #AD00F0",
" .	c #0100B9",
"..	c #9C00EC",
"+.	c #8E00EA",
"@.	c #4E00D8",
"#.	c #A000ED",
"$.	c #7F00E6",
"%.	c #AC00F1",
"&.	c #A100EE",
"*.	c #4900D7",
"=.	c #6600DF",
"-.	c #8800E8",
";.	c #4000D4",
">.	c #2400CD",
",.	c #0B00B7",
"'.	c #7B00E5",
").	c #0000BB",
"!.	c #BA00F3",
"  . + @ # $ % & * = - ; > , * ' ",
") ! ~ { ] ^ / + ( _ ; = / : < [ ",
"# } | 1 2 3 4 5 6 7 1 1 _ 8 9 0 ",
"a b c d e f } 4 7 g ; h i _   j ",
"k l % m n o p g q r s t a 7 q 8 ",
"u s ^ & v & 3 r w ~ x % y z A B ",
"j : @ C z D s l p E F w % t G ! ",
"H I J K = r 2 p L z b M = s p N ",
"z d 7 O d s e q & 0 P O p k Q R ",
"I ^ S P O T U , : @ J C O D V n ",
"A w W y 1 X T _ Y Z ` R k  .u 7 ",
"..E > * n +.[ . @.#.` n T y 0 $.",
"S E ] y : & 5 %.< &.t ( 9 X h n ",
"_ S 5 F *.^ *.H ~ q _ *.=.-.T ^ ",
"= r S h ..* / ;.>.,.*.' '.% ).q ",
"  q w j !.- k ] 7 k E K 3 ).S y "};
