/* XPM */
static char * 05_nether_portal_xpm[] = {
"32 32 111 2",
"  	c #0000C1",
". 	c #4E00D8",
"+ 	c #3C00D4",
"@ 	c #5900DB",
"# 	c #B100F2",
"$ 	c #6700DF",
"% 	c #0300C6",
"& 	c #4400D6",
"* 	c #0800C5",
"= 	c #0D00C7",
"- 	c #7100E2",
"; 	c #4900D7",
"> 	c #2A00CF",
", 	c #5200D9",
"' 	c #7700E3",
") 	c #AA00F0",
"! 	c #5F00DD",
"~ 	c #7000E1",
"{ 	c #C117F6",
"] 	c #7B00E5",
"^ 	c #0000C4",
"/ 	c #0000C3",
"( 	c #4200D5",
"_ 	c #2400CD",
": 	c #2200CD",
"< 	c #5600DB",
"[ 	c #0800C8",
"} 	c #0100B9",
"| 	c #3100D0",
"1 	c #9700EC",
"2 	c #9700EB",
"3 	c #9D00ED",
"4 	c #9400EB",
"5 	c #C933F7",
"6 	c #9200EA",
"7 	c #3400D1",
"8 	c #2800CD",
"9 	c #6800DF",
"0 	c #AB00F0",
"a 	c #8500E7",
"b 	c #6400DF",
"c 	c #BC04F4",
"d 	c #7A00E4",
"e 	c #1000C9",
"f 	c #6300DE",
"g 	c #B300F2",
"h 	c #7D00E5",
"i 	c #8F00E9",
"j 	c #5000D8",
"k 	c #3000D1",
"l 	c #2E00CF",
"m 	c #6C00E0",
"n 	c #0000BE",
"o 	c #5400DA",
"p 	c #0000C5",
"q 	c #7900E3",
"r 	c #7500E3",
"s 	c #2600CE",
"t 	c #2B00CE",
"u 	c #6000DE",
"v 	c #5D00DC",
"w 	c #6E00E0",
"x 	c #6A00E0",
"y 	c #AF00F1",
"z 	c #7300E2",
"A 	c #0000C0",
"B 	c #0000BD",
"C 	c #BB00F4",
"D 	c #8D00E9",
"E 	c #2000CC",
"F 	c #4100D6",
"G 	c #9E00ED",
"H 	c #4700D6",
"I 	c #6A00DF",
"J 	c #3300D2",
"K 	c #AD00F0",
"L 	c #9000EA",
"M 	c #B900F3",
"N 	c #9A00EC",
"O 	c #3D00D3",
"P 	c #8100E6",
"Q 	c #1700CA",
"R 	c #5A00DC",
"S 	c #9C00EC",
"T 	c #A500EF",
"U 	c #8C00E8",
"V 	c #1C00CB",
"W 	c #3A00D3",
"X 	c #0000C2",
"Y 	c #4600D7",
"Z 	c #9300EB",
"` 	c #8200E6",
" .	c #B600F3",
"..	c #A300EF",
"+.	c #9600EC",
"@.	c #4B00D7",
"#.	c #9900EB",
"$.	c #8300E6",
"%.	c #AC00F1",
"&.	c #A000ED",
"*.	c #4000D4",
"=.	c #8800E8",
"-.	c #2D00D0",
";.	c #3F00D5",
">.	c #5000D9",
",.	c #6E00E1",
"'.	c #0000BC",
").	c #0600B8",
"!.	c #8600E6",
"~.	c #C013F5",
"{.	c #8A00E8",
"  . + @ # $ % & * = - ; > & , '   . + @ # $ % & * = - ; > & , ' ",
") ! ~ { ] ^ / ( _ : < [ } | 1 2 ) ! ~ { ] ^ / ( _ : < [ } | 1 2 ",
"3 4 5 6 7 8 9 0 a b c d e % f g 3 4 5 6 7 8 9 0 a b c d e % f g ",
"$ ) h & ; , i ! & % j 1 ~ k = b $ ) h & ; , i ! & % j 1 ~ k = b ",
"( f % l , m @ / 7 n = o o & | p ( f % l , m @ / 7 n = o o & | p ",
"+ * p , q b p [ 7 r s t j u v = + * p , q b p [ 7 r s t j u v = ",
"w s x y z A B 9 , C D k E F G w w s x y z A B 9 , C D k E F G w ",
"D H I - _   J $ K L M N 7 A , 4 D H I - _   J $ K L M N 7 A , 4 ",
"d O r P Q / l > R S T $ f t v S d O r P Q / l > R S T $ f t v S ",
"( * , y U ^ } t V W z y 6 _ % W ( * , y U ^ } t V W z y 6 _ % W ",
"@ _ X Y Z ` e A s ,  .3 l   Y ' @ _ X Y Z ` e A s ,  .3 l   Y ' ",
"..+.k . $ i Z @.& 0 Z u s 7 T #...+.k . $ i Z @.& 0 Z u s 7 T #.",
"W S $.; ; o ..%.&.Z @ *.v x =.-.W S $.; ; o ..%.&.Z @ *.v x =.-.",
"X W N m & e , 6 L ;.8 >.,.m _ X X W N m & e , 6 L ;.8 >.,.m _ X ",
"l n ( T 6 e '.+ Q ).; !.@ e n t l n ( T 6 e '.+ Q ).; !.@ e n t ",
"= > % @ ~.- V ~ ( ( ) {.% n ( . = > % @ ~.- V ~ ( ( ) {.% n ( . ",
"  . + @ # $ % & * = - ; > & , '   . + @ # $ % & * = - ; > & , ' ",
") ! ~ { ] ^ / ( _ : < [ } | 1 2 ) ! ~ { ] ^ / ( _ : < [ } | 1 2 ",
"3 4 5 6 7 8 9 0 a b c d e % f g 3 4 5 6 7 8 9 0 a b c d e % f g ",
"$ ) h & ; , i ! & % j 1 ~ k = b $ ) h & ; , i ! & % j 1 ~ k = b ",
"( f % l , m @ / 7 n = o o & | p ( f % l , m @ / 7 n = o o & | p ",
"+ * p , q b p [ 7 r s t j u v = + * p , q b p [ 7 r s t j u v = ",
"w s x y z A B 9 , C D k E F G w w s x y z A B 9 , C D k E F G w ",
"D H I - _   J $ K L M N 7 A , 4 D H I - _   J $ K L M N 7 A , 4 ",
"d O r P Q / l > R S T $ f t v S d O r P Q / l > R S T $ f t v S ",
"( * , y U ^ } t V W z y 6 _ % W ( * , y U ^ } t V W z y 6 _ % W ",
"@ _ X Y Z ` e A s ,  .3 l   Y ' @ _ X Y Z ` e A s ,  .3 l   Y ' ",
"..+.k . $ i Z @.& 0 Z u s 7 T #...+.k . $ i Z @.& 0 Z u s 7 T #.",
"W S $.; ; o ..%.&.Z @ *.v x =.-.W S $.; ; o ..%.&.Z @ *.v x =.-.",
"X W N m & e , 6 L ;.8 >.,.m _ X X W N m & e , 6 L ;.8 >.,.m _ X ",
"l n ( T 6 e '.+ Q ).; !.@ e n t l n ( T 6 e '.+ Q ).; !.@ e n t ",
"= > % @ ~.- V ~ ( ( ) {.% n ( . = > % @ ~.- V ~ ( ( ) {.% n ( . "};
