/* XPM */
static char * 05_nether_portal_xpm[] = {
"16 16 109 2",
"  	c #0000C1",
". 	c #3A00D3",
"+ 	c #1E00CD",
"@ 	c #6C00E0",
"# 	c #B800F3",
"$ 	c #8100E6",
"% 	c #0300C6",
"& 	c #4B00D7",
"* 	c #0D00C7",
"= 	c #0800C8",
"- 	c #5D00DC",
"; 	c #5000D9",
"> 	c #2400CD",
", 	c #3F00D5",
"' 	c #5900DB",
") 	c #8800E8",
"! 	c #A500EF",
"~ 	c #4C00D7",
"{ 	c #5C00DD",
"] 	c #AF00F1",
"^ 	c #0000BF",
"/ 	c #5200D9",
"( 	c #3C00D4",
"_ 	c #7B00E5",
": 	c #2800CD",
"< 	c #0600B8",
"[ 	c #5400DA",
"} 	c #9B00EC",
"| 	c #8E00EA",
"1 	c #8D00E9",
"2 	c #8200E6",
"3 	c #B900F3",
"4 	c #9000EA",
"5 	c #3400D1",
"6 	c #A400EF",
"7 	c #7500E3",
"8 	c #4600D7",
"9 	c #B600F3",
"0 	c #0000C7",
"a 	c #0000C4",
"b 	c #CA38F8",
"c 	c #6A00E0",
"d 	c #B100F2",
"e 	c #6000DE",
"f 	c #4900D7",
"g 	c #4400D6",
"h 	c #6300DE",
"i 	c #6700DF",
"j 	c #0000C2",
"k 	c #4E00D8",
"l 	c #8400E6",
"m 	c #4000D4",
"n 	c #2D00D0",
"o 	c #2E00CF",
"p 	c #5A00DC",
"q 	c #3000D1",
"r 	c #0000C0",
"s 	c #3700D2",
"t 	c #2A00CF",
"u 	c #1C00CB",
"v 	c #1400C8",
"w 	c #6400DF",
"x 	c #6A00DF",
"y 	c #5700DA",
"z 	c #7700E3",
"A 	c #1400CB",
"B 	c #7800E4",
"C 	c #6800DF",
"D 	c #AB00F0",
"E 	c #A100EE",
"F 	c #9700EB",
"G 	c #7F00E6",
"H 	c #8B00E9",
"I 	c #0000BC",
"J 	c #5100DA",
"K 	c #7A00E4",
"L 	c #A200EE",
"M 	c #8A00E8",
"N 	c #AA00F0",
"O 	c #6E00E1",
"P 	c #8500E7",
"Q 	c #1700CA",
"R 	c #0000C3",
"S 	c #7D00E5",
"T 	c #3D00D3",
"U 	c #9E00ED",
"V 	c #7000E1",
"W 	c #1000C9",
"X 	c #3100D0",
"Y 	c #1900CC",
"Z 	c #C31DF6",
"` 	c #7300E2",
" .	c #2600CE",
"..	c #4200D5",
"+.	c #4700D6",
"@.	c #9C00EC",
"#.	c #5000D8",
"$.	c #9200EA",
"%.	c #8300E6",
"&.	c #9F00EE",
"*.	c #6600DF",
"=.	c #9300EB",
"-.	c #3300D2",
";.	c #6100DD",
">.	c #0000BB",
",.	c #A000ED",
"'.	c #7100E2",
").	c #AE00F1",
"!.	c #0000BD",
"  . + @ # $ % & * = - ; > , ' ) ",
"! ~ { ] $ * ^ / . ( _ : < [ } | ",
"1 2 3 4 / 5 ; 6 7 8 9 2 0 a - b ",
"c d 1 e f g h i f j k l & m n @ ",
"/ i o f { & p 0 q r j [ s g t u ",
"m r 0 { c f v a w x + 5 , f y * ",
"h u @ 3 z A 0 B C D E / 5 g F G ",
"2 & 2 H = I J K L M # N 5 r g M ",
"O 5 _ P Q R t g ; P S l { . k l ",
"T I g U V W r u X Y O Z l 0 Q f ",
"` : R & @ -  .j % o N E ..I +.C ",
"@.1 & #.C S B s . $.%.k g #.&.U ",
"s %.z [ w / 4 ! D U w C *.w =...",
"r o @ 7 - X ..D U s -.[ [ ;.. ^ ",
" .>.( ,.F Q r ..n r s './ t   u ",
": = v @ ).l > #.g ..D 1 > !.; e "};
