/* XPM */
static char * 06_nether_portal_xpm[] = {
"16 16 109 2",
"  	c #0000C3",
". 	c #2B00CE",
"+ 	c #0000C2",
"@ 	c #5700DA",
"# 	c #A500EF",
"$ 	c #8A00E8",
"% 	c #3700D2",
"& 	c #0000BE",
"* 	c #0000C5",
"= 	c #3100D0",
"- 	c #4B00D7",
"; 	c #6700DF",
"> 	c #9D00ED",
", 	c #9600EC",
"' 	c #2E00CF",
") 	c #AB00F0",
"! 	c #7F00E6",
"~ 	c #2800CD",
"{ 	c #0000C0",
"] 	c #5200D9",
"^ 	c #3000D1",
"/ 	c #7500E3",
"( 	c #1C00CB",
"_ 	c #0100B9",
": 	c #4100D6",
"< 	c #BE0FF5",
"[ 	c #7700E3",
"} 	c #A800F0",
"| 	c #6E00E1",
"1 	c #5C00DD",
"2 	c #3C00D4",
"3 	c #4900D7",
"4 	c #A700F0",
"5 	c #6C00E0",
"6 	c #AC00F0",
"7 	c #6800DF",
"8 	c #1900CC",
"9 	c #1000C9",
"0 	c #D24AF9",
"a 	c #B300F2",
"b 	c #7D00E5",
"c 	c #6000DE",
"d 	c #5400DA",
"e 	c #4E00D8",
"f 	c #3A00D3",
"g 	c #5D00DC",
"h 	c #6400DF",
"i 	c #5F00DD",
"j 	c #5900DB",
"k 	c #3F00D5",
"l 	c #2200CD",
"m 	c #3400D1",
"n 	c #0000BF",
"o 	c #2000CC",
"p 	c #0300C6",
"q 	c #7100E2",
"r 	c #5A00DC",
"s 	c #A000ED",
"t 	c #5100DA",
"u 	c #2600CE",
"v 	c #0800C8",
"w 	c #8500E7",
"x 	c #C628F6",
"y 	c #9200EA",
"z 	c #4600D7",
"A 	c #5600DB",
"B 	c #6A00E0",
"C 	c #7B00E5",
"D 	c #9000EA",
"E 	c #7800E4",
"F 	c #4200D5",
"G 	c #A200EE",
"H 	c #9C00EC",
"I 	c #8100E6",
"J 	c #B000F2",
"K 	c #7A00E4",
"L 	c #0000BC",
"M 	c #8D00E9",
"N 	c #4400D6",
"O 	c #8C00E8",
"P 	c #3300D2",
"Q 	c #C423F6",
"R 	c #1700CA",
"S 	c #4000D4",
"T 	c #6600DF",
"U 	c #0000BB",
"V 	c #0000C1",
"W 	c #A300EF",
"X 	c #2A00CF",
"Y 	c #8E00EA",
"Z 	c #7300E2",
"` 	c #9300EB",
" .	c #7000E1",
"..	c #6300DE",
"+.	c #9600EB",
"@.	c #A100EE",
"#.	c #8F00E9",
"$.	c #8200E6",
"%.	c #A600EF",
"&.	c #4700D6",
"*.	c #1E00CD",
"=.	c #1400C8",
"-.	c #1400CB",
";.	c #0000BA",
">.	c #2400CD",
",.	c #0000C7",
"'.	c #0000C4",
").	c #B700F3",
"!.	c #3D00D3",
"  . + @ # $ + % & * @ = % - ; > ",
", ' ; ) ! ~ { ] ^ - / ( _ : < , ",
"[ ! } | 1 2 3 4 5 ] 6 7 8 9 ! 0 ",
"[ a b c [ d e @ f + g h 3 - % / ",
"5 i % : j f k * = { ~ d l k m ( ",
"% n * - j m o p 7 q 2 k d k r 9 ",
"r p i s t u v w | x y z A % B C ",
"q ] D E p { F G H I J H ' { @ G ",
"K = C b   L % - e I [ / C m f M ",
"8 L N O 5 v { P ' l t Q D R n S ",
"K ( l z T h 8 U V % W w 2 V X $ ",
"Y I d c h e Z ~ m `  .h ..r M +.",
". Z | i I 5 ! @.y #.T $.e d | m ",
"L m h q i S 2 %.G N ] ..&.j *._ ",
"=.{ ' $.I -.;.~ >.{ % r F % ,.X ",
"3 '.{ e ).K o 2 9 !., 7 ( V ] [ "};
