/* XPM */
static char * 08_nether_portal_xpm[] = {
"32 32 111 2",
"  	c #0000C1",
". 	c #1000C9",
"+ 	c #0000C3",
"@ 	c #5000D9",
"# 	c #A300EF",
"$ 	c #8A00E8",
"% 	c #0000C0",
"& 	c #2A00CF",
"* 	c #0000C2",
"= 	c #1900CC",
"- 	c #5900DB",
"; 	c #0D00C7",
"> 	c #3100D0",
", 	c #6A00E0",
"' 	c #8700E7",
") 	c #8400E6",
"! 	c #9600EC",
"~ 	c #0800C8",
"{ 	c #4B00D7",
"] 	c #9E00ED",
"^ 	c #7700E3",
"/ 	c #2000CC",
"( 	c #0000C4",
"_ 	c #5A00DC",
": 	c #4400D6",
"< 	c #6000DE",
"[ 	c #7000E1",
"} 	c #0800C5",
"| 	c #5000D8",
"1 	c #CB37F8",
"2 	c #A600F0",
"3 	c #6E00E1",
"4 	c #7A00E4",
"5 	c #A100EE",
"6 	c #7300E2",
"7 	c #5F00DD",
"8 	c #8800E8",
"9 	c #6400DF",
"0 	c #B800F3",
"a 	c #6800DF",
"b 	c #1E00CD",
"c 	c #2B00CE",
"d 	c #8200E6",
"e 	c #CF44F9",
"f 	c #BA00F4",
"g 	c #7D00E5",
"h 	c #6600DF",
"i 	c #7500E3",
"j 	c #4E00D8",
"k 	c #3F00D5",
"l 	c #0000BE",
"m 	c #4900D7",
"n 	c #4100D6",
"o 	c #6700DF",
"p 	c #9300EB",
"q 	c #6C00E0",
"r 	c #4200D5",
"s 	c #6300DE",
"t 	c #2D00D0",
"u 	c #2600CE",
"v 	c #4B00D8",
"w 	c #0000C7",
"x 	c #3A00D3",
"y 	c #2200CD",
"z 	c #5200D9",
"A 	c #3400D1",
"B 	c #4600D7",
"C 	c #3000D1",
"D 	c #1C00CB",
"E 	c #5400DA",
"F 	c #C21EF6",
"G 	c #5700DA",
"H 	c #7200E1",
"I 	c #7B00E5",
"J 	c #A900F0",
"K 	c #1700CA",
"L 	c #7800E4",
"M 	c #BE0FF5",
"N 	c #0000C5",
"O 	c #3700D2",
"P 	c #9800EC",
"Q 	c #3300D2",
"R 	c #9400EB",
"S 	c #5600DB",
"T 	c #4000D4",
"U 	c #3D00D3",
"V 	c #9000EA",
"W 	c #1400CB",
"X 	c #0000BF",
"Y 	c #1400C8",
"Z 	c #A600EF",
"` 	c #0000BC",
" .	c #2400CD",
"..	c #9D00ED",
"+.	c #8600E6",
"@.	c #9700EC",
"#.	c #8100E6",
"$.	c #8300E6",
"%.	c #9C00EC",
"&.	c #8500E7",
"*.	c #0600B8",
"=.	c #2E00CF",
"-.	c #6100DD",
";.	c #7100E2",
">.	c #A500EF",
",.	c #3C00D4",
"'.	c #0100B9",
").	c #4700D6",
"!.	c #4C00D7",
"~.	c #0000BD",
"{.	c #8D00E9",
"  . + @ # $ % & * = - ; > , ' )   . + @ # $ % & * = - ; > , ' ) ",
"! ~ { ] ^ / ( _ : < [ } * | 1 2 ! ~ { ] ^ / ( _ : < [ } * | 1 2 ",
"3 4 5 6 7 _ - 8 | 9 0 a b c d e 3 4 5 6 7 _ - 8 | 9 0 a b c d e ",
"4 f g h i j k - ; l m m n o j $ 4 f g h i j k - ; l m m n o j $ ",
"p q r s m b t u v w u { u r 7 x p q r s m b t u v w u { u r 7 x ",
": % y z A m B C ^ i r 3 r D z c : % y z A m B C ^ i r 3 r D z c ",
"@ % z ! E & u 4 g F p _ G n H q @ % z ! E & u 4 g F p _ G n H q ",
"I @ J H K * 7 J # L M 8 m N O P I @ J H K * 7 J # L M 8 m N O P ",
"6 Q R '   % S _ T 4 S 4 P : U V 6 Q R '   % S _ T 4 S 4 P : U V ",
"W X B d 9 ; l t K Y < Z ' y ` > W X B d 9 ; l t K Y < Z ' y ` > ",
"i A x j m T  .% X A $ 4 r K : ) i A x j m T  .% X A $ 4 r K : ) ",
"..4 E i _ B 7 A A +.h 9 L 7 g @...4 E i _ B 7 A A +.h 9 L 7 g @.",
"/ 6 v #.$.S ) %.p &.q i - O _ O / 6 v #.$.S ) %.p &.q i - O _ O ",
"*.=.o -.;.m S >.# { -.| =.,.y % *.=.o -.;.m S >.# { -.| =.,.y % ",
"D '.).6 ^ U % B D   { !.n ,.K Q D '.).6 ^ U % B D   { !.n ,.K Q ",
"j ~ ~.< 2 V . /  .t p o y / m {.j ~ ~.< 2 V . /  .t p o y / m {.",
"  . + @ # $ % & * = - ; > , ' )   . + @ # $ % & * = - ; > , ' ) ",
"! ~ { ] ^ / ( _ : < [ } * | 1 2 ! ~ { ] ^ / ( _ : < [ } * | 1 2 ",
"3 4 5 6 7 _ - 8 | 9 0 a b c d e 3 4 5 6 7 _ - 8 | 9 0 a b c d e ",
"4 f g h i j k - ; l m m n o j $ 4 f g h i j k - ; l m m n o j $ ",
"p q r s m b t u v w u { u r 7 x p q r s m b t u v w u { u r 7 x ",
": % y z A m B C ^ i r 3 r D z c : % y z A m B C ^ i r 3 r D z c ",
"@ % z ! E & u 4 g F p _ G n H q @ % z ! E & u 4 g F p _ G n H q ",
"I @ J H K * 7 J # L M 8 m N O P I @ J H K * 7 J # L M 8 m N O P ",
"6 Q R '   % S _ T 4 S 4 P : U V 6 Q R '   % S _ T 4 S 4 P : U V ",
"W X B d 9 ; l t K Y < Z ' y ` > W X B d 9 ; l t K Y < Z ' y ` > ",
"i A x j m T  .% X A $ 4 r K : ) i A x j m T  .% X A $ 4 r K : ) ",
"..4 E i _ B 7 A A +.h 9 L 7 g @...4 E i _ B 7 A A +.h 9 L 7 g @.",
"/ 6 v #.$.S ) %.p &.q i - O _ O / 6 v #.$.S ) %.p &.q i - O _ O ",
"*.=.o -.;.m S >.# { -.| =.,.y % *.=.o -.;.m S >.# { -.| =.,.y % ",
"D '.).6 ^ U % B D   { !.n ,.K Q D '.).6 ^ U % B D   { !.n ,.K Q ",
"j ~ ~.< 2 V . /  .t p o y / m {.j ~ ~.< 2 V . /  .t p o y / m {."};
