/* XPM */
static char * 08_nether_portal_xpm[] = {
"16 16 109 2",
"  	c #0000C4",
". 	c #0000C5",
"+ 	c #0000C0",
"@ 	c #5000D8",
"# 	c #AC00F1",
"$ 	c #8800E8",
"% 	c #1400C8",
"& 	c #0000BC",
"* 	c #2B00CE",
"= 	c #5900DB",
"- 	c #1C00CB",
"; 	c #3C00D4",
"> 	c #7000E1",
", 	c #8A00E8",
"' 	c #8900E7",
") 	c #7D00E5",
"! 	c #0800C8",
"~ 	c #4900D7",
"{ 	c #9200EA",
"] 	c #7700E3",
"^ 	c #2E00CF",
"/ 	c #0300C6",
"( 	c #4E00D8",
"_ 	c #3400D1",
": 	c #6400DF",
"< 	c #7F00E6",
"[ 	c #1000C9",
"} 	c #4B00D7",
"| 	c #C21AF6",
"1 	c #9400EB",
"2 	c #6E00E0",
"3 	c #7500E3",
"4 	c #6C00E0",
"5 	c #5400DA",
"6 	c #8B00E9",
"7 	c #3700D2",
"8 	c #5F00DD",
"9 	c #9600EC",
"0 	c #3300D2",
"a 	c #8200E6",
"b 	c #AE00F1",
"c 	c #9A00EC",
"d 	c #C21EF6",
"e 	c #7100E2",
"f 	c #8700E7",
"g 	c #4B00D8",
"h 	c #4000D4",
"i 	c #0000C3",
"j 	c #0000BD",
"k 	c #5A00DC",
"l 	c #2800CD",
"m 	c #A200EE",
"n 	c #7300E2",
"o 	c #3A00D3",
"p 	c #1700CA",
"q 	c #4600D7",
"r 	c #5200D9",
"s 	c #4400D6",
"t 	c #3100D0",
"u 	c #3F00D5",
"v 	c #2600CE",
"w 	c #7800E4",
"x 	c #2D00D0",
"y 	c #8100E6",
"z 	c #8C00E8",
"A 	c #D34CFA",
"B 	c #9000EA",
"C 	c #6000DE",
"D 	c #B300F2",
"E 	c #0800C5",
"F 	c #AB00F0",
"G 	c #9300EB",
"H 	c #7A00E4",
"I 	c #BD01F5",
"J 	c #1E00CD",
"K 	c #9700EC",
"L 	c #6A00DF",
"M 	c #0000C2",
"N 	c #5000D9",
"O 	c #2A00CF",
"P 	c #6800DF",
"Q 	c #9C00EC",
"R 	c #8400E6",
"S 	c #0000BE",
"T 	c #5700DA",
"U 	c #2400CD",
"V 	c #A300EF",
"W 	c #8500E7",
"X 	c #3000D1",
"Y 	c #2000CC",
"Z 	c #0000BB",
"` 	c #0000C1",
" .	c #A000ED",
"..	c #6A00E0",
"+.	c #6300DE",
"@.	c #5D00DC",
"#.	c #9E00ED",
"$.	c #A900F0",
"%.	c #2200CD",
"&.	c #A600F0",
"*.	c #7C00E5",
"=.	c #4100D6",
"-.	c #0100B9",
";.	c #0000BF",
">.	c #4200D5",
",.	c #0D00C7",
"'.	c #5C00DD",
").	c #B400F3",
"!.	c #8F00E9",
"  . + @ # $ . % & * = - ; > , ' ",
") ! ~ { ] ^ / ( _ : < [   } | 1 ",
"2 3 < 3 4 = 5 6 7 8 9 = 0 5 a b ",
"c d : e f g ; h i j k ( l : ] 4 ",
"m n ~ ) o p 7 - q [ _ 5 ! _ r s ",
"_ i t } * h u v c < ~ w } . 7 p ",
"s + 8 a r v x y z A B ] C } C C ",
"< o D ]   E k F G H I f s J q 1 ",
"8 u K L M + N ] O N ~ P Q 5 ^ R ",
"p S T : h v j U v i ( V B ! & ~ ",
"W X s N 0 7 Y Z ` _ n H k [ q  .",
"B ..8 c +.o ~ Y [ ) P w z : ) G ",
"x P r ) 6 @.4 #., ] : $.4 %.C 7 ",
"+ * ; ( n 8 ~ #.&.= *.P l * =.-.",
"- ;.>.L n x ;.* [ i = O 7 ( ,.J ",
"'.! ;.k ).!.,.U [ _ 3 5 * x N K "};
