/* XPM */
static char * 10_nether_portal_xpm[] = {
"32 32 109 2",
"  	c #0000C2",
". 	c #0300C6",
"+ 	c #0100B9",
"@ 	c #4400D6",
"# 	c #AA00F0",
"$ 	c #7200E1",
"% 	c #0000C5",
"& 	c #0000BD",
"* 	c #2600CE",
"= 	c #4700D6",
"- 	c #0000BF",
"; 	c #8400E6",
"> 	c #8500E7",
", 	c #0000C0",
"' 	c #5600DB",
") 	c #7300E2",
"! 	c #7800E4",
"~ 	c #5000D8",
"{ 	c #1C00CB",
"] 	c #5F00DD",
"^ 	c #4600D7",
"/ 	c #6700DF",
"( 	c #7F00E5",
"_ 	c #1700CA",
": 	c #0000C4",
"< 	c #B000F2",
"[ 	c #9300EB",
"} 	c #5200D9",
"| 	c #8900E7",
"1 	c #8F00E9",
"2 	c #7500E3",
"3 	c #4B00D7",
"4 	c #8A00E8",
"5 	c #3400D1",
"6 	c #5100DA",
"7 	c #9E00ED",
"8 	c #4E00D8",
"9 	c #6300DE",
"0 	c #8100E6",
"a 	c #BC00F4",
"b 	c #B400F3",
"c 	c #A900F0",
"d 	c #1400C8",
"e 	c #4900D7",
"f 	c #0D00C7",
"g 	c #1E00CD",
"h 	c #2A00CF",
"i 	c #8200E6",
"j 	c #7A00E4",
"k 	c #AE00F1",
"l 	c #5A00DC",
"m 	c #9400EB",
"n 	c #3100D0",
"o 	c #5000D9",
"p 	c #2000CC",
"q 	c #7000E1",
"r 	c #5900DB",
"s 	c #3F00D5",
"t 	c #0000C1",
"u 	c #3A00D3",
"v 	c #3D00D3",
"w 	c #1000C9",
"x 	c #9A00EC",
"y 	c #9700EB",
"z 	c #2200CD",
"A 	c #2E00CF",
"B 	c #2800CD",
"C 	c #5D00DC",
"D 	c #9700EC",
"E 	c #CB39F8",
"F 	c #4000D4",
"G 	c #A300EF",
"H 	c #9000EA",
"I 	c #8700E7",
"J 	c #6E00E0",
"K 	c #5400DA",
"L 	c #8D00E9",
"M 	c #6800DF",
"N 	c #2400CD",
"O 	c #6A00E0",
"P 	c #6000DE",
"Q 	c #0000BE",
"R 	c #4200D5",
"S 	c #7100E2",
"T 	c #0800C8",
"U 	c #5700DA",
"V 	c #9F00EE",
"W 	c #A100EE",
"X 	c #1900CC",
"Y 	c #2B00CE",
"Z 	c #0000BC",
"` 	c #2D00D0",
" .	c #6A00DF",
"..	c #4100D6",
"+.	c #9200EA",
"@.	c #6E00E1",
"#.	c #6400DF",
"$.	c #9C00EC",
"%.	c #3000D1",
"&.	c #6600DF",
"*.	c #A200EE",
"=.	c #3C00D4",
"-.	c #8300E6",
";.	c #6C00E0",
">.	c #AF00F1",
",.	c #3700D2",
"'.	c #7B00E5",
").	c #AB00F0",
"!.	c #8800E8",
"  . + @ # $ %   & * = - * ; ; >   . + @ # $ %   & * = - * ; ; > ",
"$ , ' ) ! ~ { ] ^ / ( _ : ' < [ $ , ' ) ! ~ { ] ^ / ( _ : ' < [ ",
"} ) | } 1 2 3 4 5 6 7 8 } 9 0 a } ) | } 1 2 3 4 5 6 7 8 } 9 0 a ",
"4 b ) ; c ^ d e f - ~ g h i ) j 4 b ) ; c ^ d e f - ~ g h i ) j ",
"k / l m n : g = o p e @ : * q r k / l m n : g = o p e @ : * q r ",
"s t u v w n 6 l x i r y o t z A s t u v w n 6 l x i r y o t z A ",
"B : 3 C u 5 @ D ; E 2 ; 4 F F o B : 3 C u 5 @ D ; E 2 ; 4 F F o ",
") C G j : . 9 a H ! c I J 5 3 7 ) C G j : . 9 a H ! c I J 5 3 7 ",
"K 5 L ) : - M L N ' v O b / p P K 5 L ) : - M L N ' v O b / p P ",
"_ Q R S e z T A 5   U V W _ - v _ Q R S e z T A 5   U V W _ - v ",
"; u 3 l n X Y & Z ` ] J  .F ..+.; u 3 l n X Y & Z ` ] J  .F ..+.",
"> @.#.$.} %.^ n p &.R 2 *.r 2 1 > @.#.$.} %.^ n p &.R 2 *.r 2 1 ",
"N =.A 0 x M #.-.j ;.O >.] ` U p N =.A 0 x M #.-.j ;.O >.] ` U p ",
"Q { =.,.'.O ] G +.#.1 l f . %., Q { =.,.'.O ] G +.#.1 l f . %., ",
"F % n 8 / @ T s * f ] A * v ,.^ F % n 8 / @ T s * f ] A * v ,.^ ",
"&.{ + 3 ).!.{ . Q A i 8 R s U x &.{ + 3 ).!.{ . Q A i 8 R s U x ",
"  . + @ # $ %   & * = - * ; ; >   . + @ # $ %   & * = - * ; ; > ",
"$ , ' ) ! ~ { ] ^ / ( _ : ' < [ $ , ' ) ! ~ { ] ^ / ( _ : ' < [ ",
"} ) | } 1 2 3 4 5 6 7 8 } 9 0 a } ) | } 1 2 3 4 5 6 7 8 } 9 0 a ",
"4 b ) ; c ^ d e f - ~ g h i ) j 4 b ) ; c ^ d e f - ~ g h i ) j ",
"k / l m n : g = o p e @ : * q r k / l m n : g = o p e @ : * q r ",
"s t u v w n 6 l x i r y o t z A s t u v w n 6 l x i r y o t z A ",
"B : 3 C u 5 @ D ; E 2 ; 4 F F o B : 3 C u 5 @ D ; E 2 ; 4 F F o ",
") C G j : . 9 a H ! c I J 5 3 7 ) C G j : . 9 a H ! c I J 5 3 7 ",
"K 5 L ) : - M L N ' v O b / p P K 5 L ) : - M L N ' v O b / p P ",
"_ Q R S e z T A 5   U V W _ - v _ Q R S e z T A 5   U V W _ - v ",
"; u 3 l n X Y & Z ` ] J  .F ..+.; u 3 l n X Y & Z ` ] J  .F ..+.",
"> @.#.$.} %.^ n p &.R 2 *.r 2 1 > @.#.$.} %.^ n p &.R 2 *.r 2 1 ",
"N =.A 0 x M #.-.j ;.O >.] ` U p N =.A 0 x M #.-.j ;.O >.] ` U p ",
"Q { =.,.'.O ] G +.#.1 l f . %., Q { =.,.'.O ] G +.#.1 l f . %., ",
"F % n 8 / @ T s * f ] A * v ,.^ F % n 8 / @ T s * f ] A * v ,.^ ",
"&.{ + 3 ).!.{ . Q A i 8 R s U x &.{ + 3 ).!.{ . Q A i 8 R s U x "};
