/* XPM */
static char * 10_nether_portal_xpm[] = {
"16 16 110 2",
"  	c #1000C9",
". 	c #1C00CB",
"+ 	c #0000BC",
"@ 	c #4200D5",
"# 	c #9200EA",
"$ 	c #7000E1",
"% 	c #0D00C7",
"& 	c #0000C3",
"* 	c #0000BA",
"= 	c #2200CD",
"- 	c #2E00CF",
"; 	c #9D00ED",
"> 	c #AF00F1",
", 	c #5400DA",
"' 	c #0000C0",
") 	c #3C00D4",
"! 	c #6300DE",
"~ 	c #6000DE",
"{ 	c #2A00CF",
"] 	c #4400D6",
"^ 	c #4B00D7",
"/ 	c #8F00E9",
"( 	c #7300E2",
"_ 	c #1E00CD",
": 	c #0000C4",
"< 	c #BA00F4",
"[ 	c #8A00E8",
"} 	c #4600D7",
"| 	c #6700DF",
"1 	c #5D00DC",
"2 	c #9700EB",
"3 	c #7A00E4",
"4 	c #3700D2",
"5 	c #2B00CE",
"6 	c #5600DB",
"7 	c #4E00D8",
"8 	c #8100E6",
"9 	c #AE00F1",
"0 	c #9400EB",
"a 	c #A200EF",
"b 	c #6E00E1",
"c 	c #A100EE",
"d 	c #0000C5",
"e 	c #3A00D3",
"f 	c #0300C6",
"g 	c #3400D1",
"h 	c #7B00E5",
"i 	c #8C00E8",
"j 	c #6600DF",
"k 	c #A200EE",
"l 	c #6A00E0",
"m 	c #9700EC",
"n 	c #2600CE",
"o 	c #5900DB",
"p 	c #1700CA",
"q 	c #5000D8",
"r 	c #8500E7",
"s 	c #7500E3",
"t 	c #0800C5",
"u 	c #5C00DD",
"v 	c #A000ED",
"w 	c #6C00E0",
"x 	c #0000BF",
"y 	c #2800CD",
"z 	c #0000BD",
"A 	c #2D00D0",
"B 	c #9500EB",
"C 	c #B900F3",
"D 	c #7100E2",
"E 	c #8700E7",
"F 	c #5000D9",
"G 	c #3300D2",
"H 	c #5F00DD",
"I 	c #A900F0",
"J 	c #0800C8",
"K 	c #C117F6",
"L 	c #6E00E0",
"M 	c #3000D1",
"N 	c #9600EB",
"O 	c #0000C2",
"P 	c #2400CD",
"Q 	c #6400DF",
"R 	c #7700E3",
"S 	c #0000BB",
"T 	c #2000CC",
"U 	c #8600E6",
"V 	c #7F00E6",
"W 	c #0600B8",
"X 	c #7200E1",
"Y 	c #5A00DC",
"Z 	c #1900CC",
"` 	c #0000BE",
" .	c #4B00D8",
"..	c #4900D7",
"+.	c #8B00E9",
"@.	c #A700F0",
"#.	c #1400C8",
"$.	c #4000D4",
"%.	c #3F00D5",
"&.	c #7800E4",
"*.	c #C21EF6",
"=.	c #5700DA",
"-.	c #BC00F4",
";.	c #3100D0",
">.	c #9A00EC",
",.	c #8D00E9",
"'.	c #5200D9",
").	c #9C00EC",
"!.	c #8900E7",
"~.	c #6A00DF",
"  . + @ # $ % & * = - & @ ; > # ",
", ' ) , ! ~ { ] ^ / ( _ : ( < [ ",
"} ! | 1 2 3 4 $ 5 , 3 6 7 | 8 9 ",
"0 a b c 9 } d 4 ' ' e f g h i j ",
"k 8 l m 4 + n ) o p $ q ' - r s ",
"^ & } , t p b u v s w 2 4 x y e ",
"% z , 7 A 1 , 0 B C D / E F G H ",
", , I D   J ~ K / w c ( L 6 M v ",
") e N s O d 1 k f - P Q C R { u ",
"p S F o - )   ] T + ^ U V g W { ",
"V @ X Y Z T 4 ` ` { 6  .h ..) [ ",
"+...8 @.F : e #.%  .$.E 9 w ..E ",
"p %.n &.*.=.g $ 8 u 3 -.D Z ) . ",
"& ;.  _ 3 8 q >.,.'.).s ' & F   ",
";.f g e , 1 p n 5 . ! T . ! '.) ",
"!.  + ) / 8 #.& ` ) ~.g e ] H I "};
