/* XPM */
static char * 11_nether_portal_xpm[] = {
"16 16 104 2",
"  	c #1000C9",
". 	c #0000BC",
"+ 	c #3400D1",
"@ 	c #8F00E9",
"# 	c #7000E1",
"$ 	c #0000C3",
"% 	c #0000C0",
"& 	c #0100B9",
"* 	c #3100D0",
"= 	c #3C00D4",
"- 	c #0000C2",
"; 	c #A500EF",
"> 	c #A200EE",
", 	c #9200EA",
"' 	c #3000D1",
") 	c #0000C1",
"! 	c #4600D7",
"~ 	c #4900D7",
"{ 	c #4B00D7",
"] 	c #7500E3",
"^ 	c #2D00D0",
"/ 	c #4100D6",
"( 	c #4E00D8",
"_ 	c #8200E6",
": 	c #6E00E0",
"< 	c #0D00C7",
"[ 	c #2E00CF",
"} 	c #6800DF",
"| 	c #AF00F1",
"1 	c #8100E6",
"2 	c #3700D2",
"3 	c #5D00DC",
"4 	c #5600DB",
"5 	c #8D00E9",
"6 	c #8500E7",
"7 	c #6300DE",
"8 	c #1700CA",
"9 	c #7A00E4",
"0 	c #4200D5",
"a 	c #9300EB",
"b 	c #8800E8",
"c 	c #9D00ED",
"d 	c #9700EC",
"e 	c #6000DE",
"f 	c #AB00F0",
"g 	c #AD00F0",
"h 	c #0300C6",
"i 	c #3D00D3",
"j 	c #0000C5",
"k 	c #2600CE",
"l 	c #9E00ED",
"m 	c #6400DF",
"n 	c #A300EF",
"o 	c #6600DF",
"p 	c #0000BE",
"q 	c #2000CC",
"r 	c #5200D9",
"s 	c #5F00DD",
"t 	c #7800E4",
"u 	c #0000C4",
"v 	c #8400E6",
"w 	c #A700F0",
"x 	c #8700E7",
"y 	c #A100EE",
"z 	c #2800CD",
"A 	c #3A00D3",
"B 	c #5400DA",
"C 	c #5A00DC",
"D 	c #9A00EC",
"E 	c #0000C7",
"F 	c #7500E2",
"G 	c #D147F9",
"H 	c #9F00EE",
"I 	c #1900CC",
"J 	c #1400CB",
"K 	c #6E00E1",
"L 	c #7D00E5",
"M 	c #5000D9",
"N 	c #2A00CF",
"O 	c #0B00B7",
"P 	c #4400D6",
"Q 	c #0000BD",
"R 	c #3F00D5",
"S 	c #0000BF",
"T 	c #9000EA",
"U 	c #7F00E6",
"V 	c #6C00E0",
"W 	c #A800F0",
"X 	c #1C00CB",
"Y 	c #AA00F0",
"Z 	c #B000F2",
"` 	c #6A00E0",
" .	c #5C00DD",
"..	c #7100E2",
"+.	c #B500F3",
"@.	c #6700DF",
"#.	c #2B00CE",
"$.	c #9900EB",
"%.	c #9B00EC",
"&.	c #9800EC",
"*.	c #5000D8",
"=.	c #3300D2",
"-.	c #1E00CD",
";.	c #A900F0",
"    . + @ # $ % & * = - * ; > , ",
"' ) ! ~ { ] ^ / ( _ : < [ } | 1 ",
"2 3 4 ~ 5 6 ( 7 8 ! 9 0 7 a b c ",
"d a e f g ! h i % j (   k d l m ",
"n o _ ; + p q r s ! 9 ! .   t 1 ",
"m h } { u k v s w ] x y ! & q ~ ",
"u . 7 ( z s } 5 y w # v , A   B ",
"C 3 D m E * F G # 4 6 F _ 4 A x ",
"[ A H }   I o n 8 ' J K f L 8 { ",
"h u M ! A N q 0 = O P x b ' Q ' ",
"1 R K C $ h A S S   + = K m { T ",
"U M V W 7 u 2 X j [ 2 U Y V i @ ",
"X I X L Z ` z  .e A ..+.@.) k A ",
"u z u #.$.a 3 %.1 r &.3 $ - *.I ",
"A   A X =.M -.! [ z !   u s B *.",
"n X $ ' # x   S Q + ( * ( # ` ;."};
