/* XPM */
static char * 13_nether_portal_xpm[] = {
"32 32 111 2",
"  	c #3A00D3",
". 	c #0300C6",
"+ 	c #0100B9",
"@ 	c #2400CD",
"# 	c #7500E3",
"$ 	c #8200E6",
"% 	c #1000C9",
"& 	c #0000C0",
"* 	c #0000BB",
"= 	c #4600D7",
"- 	c #2D00D0",
"; 	c #0000BE",
"> 	c #4400D6",
", 	c #B700F3",
"' 	c #9E00ED",
") 	c #8400E6",
"! 	c #1C00CB",
"~ 	c #2E00CF",
"{ 	c #2600CE",
"] 	c #5600DB",
"^ 	c #7300E2",
"/ 	c #3C00D4",
"( 	c #4B00D7",
"_ 	c #4900D7",
": 	c #8D00E9",
"< 	c #8600E6",
"[ 	c #1700CA",
"} 	c #3F00D5",
"| 	c #6700DF",
"1 	c #B300F2",
"2 	c #7A00E4",
"3 	c #6100DD",
"4 	c #A100EE",
"5 	c #A700F0",
"6 	c #4E00D8",
"7 	c #3700D2",
"8 	c #6400DF",
"9 	c #9900EB",
"0 	c #7F00E6",
"a 	c #8800E8",
"b 	c #8100E6",
"c 	c #7100E2",
"d 	c #A900F0",
"e 	c #AF00F1",
"f 	c #4000D4",
"g 	c #2B00CE",
"h 	c #0000C1",
"i 	c #2000CC",
"j 	c #0800C5",
"k 	c #9C00EC",
"l 	c #AE00F1",
"m 	c #6A00E0",
"n 	c #8700E7",
"o 	c #AA00F0",
"p 	c #0000BF",
"q 	c #2800CD",
"r 	c #6A00DF",
"s 	c #0800C8",
"t 	c #8500E7",
"u 	c #6300DE",
"v 	c #2200CD",
"w 	c #1400C8",
"x 	c #9000EA",
"y 	c #B000F2",
"z 	c #B600F3",
"A 	c #5000D8",
"B 	c #6E00E1",
"C 	c #0000C2",
"D 	c #8B00E9",
"E 	c #8A00E8",
"F 	c #9F00EE",
"G 	c #5A00DC",
"H 	c #9300EB",
"I 	c #A500EF",
"J 	c #3300D2",
"K 	c #3000D1",
"L 	c #7700E3",
"M 	c #BC00F4",
"N 	c #7B00E5",
"O 	c #6C00E0",
"P 	c #7000E1",
"Q 	c #4200D5",
"R 	c #8C00E8",
"S 	c #B200F2",
"T 	c #0000C7",
"U 	c #B500F3",
"V 	c #1900CC",
"W 	c #6000DE",
"X 	c #6800DF",
"Y 	c #3400D1",
"Z 	c #7D00E5",
"` 	c #5F00DD",
" .	c #5400DA",
"..	c #6E00E0",
"+.	c #C321F5",
"@.	c #B800F3",
"#.	c #9200EA",
"$.	c #CA38F8",
"%.	c #1400CB",
"&.	c #BA00F4",
"*.	c #9700EC",
"=.	c #5100DA",
"-.	c #5900DB",
";.	c #5D00DC",
">.	c #0000C4",
",.	c #5200D9",
"'.	c #AC00F0",
").	c #0000C3",
"!.	c #1E00CD",
"~.	c #0000BA",
"{.	c #0B00B7",
"  . + @ # $ % & * = - ; > , ' )   . + @ # $ % & * = - ; > , ' ) ",
"! & ~ { ] ^ / ( _ : < [ } | 1 2 ! & ~ { ] ^ / ( _ : < [ } | 1 2 ",
"[ 3 / > 4 5 (   [ 6 3 7 8 9 0 a [ 3 / > 4 5 (   [ 6 3 7 8 9 0 a ",
"b c 3 d e f & g h i = j @ k l 2 b c 3 d e f & g h i = j @ k l 2 ",
"l m n o ( p q r | = :   p s ) t l m n o ( p q r | = :   p s ) t ",
"u v | > * w x 2 y ) 0 z A + ~ B u v | > * w x 2 y ) 0 z A + ~ B ",
"& C _ { q c $ D E F G H I J % _ & C _ { q c $ D E F G H I J % _ ",
"  > d 8 [ K L M | 8 N O 0 P Q R   > d 8 [ K L M | 8 N O 0 P Q R ",
"s } H A . { ) S T { C ] U R [ } s } H A . { ) S T { C ] U R [ } ",
"v T Q ! V >   W Q & ~ 3 X > ; Y v T Q ! V >   W Q & ~ 3 X > ; Y ",
"t > Z ` h s  .C & v / K P O 7 ' t > Z ` h s  .C & v / K P O 7 ' ",
"..  E +.` ; s @ . q ! ) @.O g O ..  E +.` ; s @ . q ! ) @.O g O ",
"~ . ! #.$. .%. .` Q N &.B . % } ~ . ! #.$. .%. .` Q N &.B . % } ",
"V Q j s H *.=.N # -.1 ;.p >.W [ V Q j s H *.=.N # -.1 ;.p >.W [ ",
"f - > [ 7 P / ~ } _ ,.>.% 2 # ( f - > [ 7 P / ~ } _ ,.>.% 2 # ( ",
"'.[ ).= # c !.~.{.  f [ ] X r e '.[ ).= # c !.~.{.  f [ ] X r e ",
"  . + @ # $ % & * = - ; > , ' )   . + @ # $ % & * = - ; > , ' ) ",
"! & ~ { ] ^ / ( _ : < [ } | 1 2 ! & ~ { ] ^ / ( _ : < [ } | 1 2 ",
"[ 3 / > 4 5 (   [ 6 3 7 8 9 0 a [ 3 / > 4 5 (   [ 6 3 7 8 9 0 a ",
"b c 3 d e f & g h i = j @ k l 2 b c 3 d e f & g h i = j @ k l 2 ",
"l m n o ( p q r | = :   p s ) t l m n o ( p q r | = :   p s ) t ",
"u v | > * w x 2 y ) 0 z A + ~ B u v | > * w x 2 y ) 0 z A + ~ B ",
"& C _ { q c $ D E F G H I J % _ & C _ { q c $ D E F G H I J % _ ",
"  > d 8 [ K L M | 8 N O 0 P Q R   > d 8 [ K L M | 8 N O 0 P Q R ",
"s } H A . { ) S T { C ] U R [ } s } H A . { ) S T { C ] U R [ } ",
"v T Q ! V >   W Q & ~ 3 X > ; Y v T Q ! V >   W Q & ~ 3 X > ; Y ",
"t > Z ` h s  .C & v / K P O 7 ' t > Z ` h s  .C & v / K P O 7 ' ",
"..  E +.` ; s @ . q ! ) @.O g O ..  E +.` ; s @ . q ! ) @.O g O ",
"~ . ! #.$. .%. .` Q N &.B . % } ~ . ! #.$. .%. .` Q N &.B . % } ",
"V Q j s H *.=.N # -.1 ;.p >.W [ V Q j s H *.=.N # -.1 ;.p >.W [ ",
"f - > [ 7 P / ~ } _ ,.>.% 2 # ( f - > [ 7 P / ~ } _ ,.>.% 2 # ( ",
"'.[ ).= # c !.~.{.  f [ ] X r e '.[ ).= # c !.~.{.  f [ ] X r e "};
