/* XPM */
static char * 14_nether_portal_xpm[] = {
"32 32 119 2",
"  	c #3F00D5",
". 	c #0300C6",
"+ 	c #0000C0",
"@ 	c #1C00CB",
"# 	c #5000D8",
"$ 	c #7700E3",
"% 	c #0000BE",
"& 	c #0000C1",
"* 	c #4E00D8",
"= 	c #2600CE",
"- 	c #0000BB",
"; 	c #4200D5",
"> 	c #BE0FF5",
", 	c #A600F0",
"' 	c #7F00E6",
") 	c #0000C5",
"! 	c #0000BC",
"~ 	c #3100D0",
"{ 	c #2B00CE",
"] 	c #2D00D0",
"^ 	c #7D00E5",
"/ 	c #4900D7",
"( 	c #5900DB",
"_ 	c #9400EB",
": 	c #7900E3",
"< 	c #2000CC",
"[ 	c #5A00DC",
"} 	c #6800DF",
"| 	c #9700EB",
"1 	c #7100E2",
"2 	c #5700DA",
"3 	c #2200CD",
"4 	c #9600EC",
"5 	c #9D00ED",
"6 	c #1E00CD",
"7 	c #AB00F0",
"8 	c #7200E1",
"9 	c #7500E3",
"0 	c #5F00DD",
"a 	c #4600D7",
"b 	c #A200EE",
"c 	c #C01BF6",
"d 	c #3400D1",
"e 	c #0100B9",
"f 	c #0000BD",
"g 	c #2800CD",
"h 	c #9A00EC",
"i 	c #BB00F4",
"j 	c #6600DF",
"k 	c #B500F3",
"l 	c #6300DE",
"m 	c #9E00ED",
"n 	c #A100EE",
"o 	c #1700CA",
"p 	c #7B00E5",
"q 	c #5400DA",
"r 	c #3A00D3",
"s 	c #9500EB",
"t 	c #9700EC",
"u 	c #2E00CF",
"v 	c #6A00DF",
"w 	c #9300EB",
"x 	c #AF00F1",
"y 	c #8A00E8",
"z 	c #B300F2",
"A 	c #0600B8",
"B 	c #7C00E5",
"C 	c #0000C3",
"D 	c #0000C4",
"E 	c #5200D9",
"F 	c #8400E6",
"G 	c #9000EA",
"H 	c #6100DD",
"I 	c #AD00F0",
"J 	c #C21EF6",
"K 	c #3700D2",
"L 	c #C117F6",
"M 	c #4B00D7",
"N 	c #6700DF",
"O 	c #5D00DC",
"P 	c #8B00E9",
"Q 	c #8D00E9",
"R 	c #8C00E8",
"S 	c #1000C9",
"T 	c #4000D4",
"U 	c #8200E6",
"V 	c #B800F3",
"W 	c #1900CC",
"X 	c #0D00C7",
"Y 	c #A700F0",
"Z 	c #8F00E9",
"` 	c #0800C5",
" .	c #1400CB",
"..	c #3C00D4",
"+.	c #5C00DD",
"@.	c #0000BF",
"#.	c #2400CD",
"$.	c #8900E7",
"%.	c #5000D9",
"&.	c #2A00CF",
"*.	c #8100E6",
"=.	c #C21AF6",
"-.	c #0800C8",
";.	c #8700E7",
">.	c #6000DE",
",.	c #B400F3",
"'.	c #7300E2",
").	c #C00CF5",
"!.	c #3300D2",
"~.	c #8500E7",
"{.	c #A800F0",
"].	c #6400DF",
"^.	c #6C00E0",
"/.	c #A500EF",
"(.	c #0000C7",
"_.	c #0000C2",
":.	c #B900F3",
"<.	c #0000BA",
"[.	c #8800E8",
"  . + @ # $ @ % & * = - ; > , '   . + @ # $ @ % & * = - ; > , ' ",
") ! ~ { ] ^ / ( # _ : < [ } | 1 ) ! ~ { ] ^ / ( # _ : < [ } | 1 ",
"{ 2 3 ; 4 5 { 6 .   * < } 7 8 9 { 2 3 ; 4 5 { 6 .   * < } 7 8 9 ",
"9 0 a b c d e = f { ; + g h i j 9 0 a b c d e = f { ; + g h i j ",
"k l m n / ! o ' p q _ r + < s t k l m n / ! o ' p q _ r + < s t ",
"# u v / f { w p x y m z r A 6 B # u v / f { w p x y m z r A 6 B ",
"C D E o { F t 9 G y H I J / + K C D E o { F t 9 G y H I J / + K ",
"6 ( G *   / p L M   N O P Q K 0 6 ( G *   / p L M   N O P Q K 0 ",
"C r R E S T U V W X . } Y Z ` = C r R E S T U V W X . } Y Z ` = ",
".  .* o . ( q 2 ~ & ..q +.E @.#..  .* o . ( q 2 ~ & ..q +.E @.#.",
"$.E w %.+ . ; &.. r @ u *.w ; F $.E w %.+ . ; &.. r @ u *.w ; F ",
"q ] ^ =.[ % o = @ X -.;.L l ] >.q ] ^ =.[ % o = @ X -.;.L l ] >.",
"r C . | ,.'.-.a ..g U ).l D X !.r C . | ,.'.-.a ..g U ).l D X !.",
"@ K C -.~.{.E ].8 ^./.O ! (.%.r @ K C -.~.{.E ].8 ^./.O ! (.%.r ",
"[ a ; & ..U # K &.2 } C _.*.4 1 [ a ; & ..U # K &.2 } C _.*.4 1 ",
":.T o &.q ^.= e <.a r = 1 ^ [.J :.T o &.q ^.= e <.a r = 1 ^ [.J ",
"  . + @ # $ @ % & * = - ; > , '   . + @ # $ @ % & * = - ; > , ' ",
") ! ~ { ] ^ / ( # _ : < [ } | 1 ) ! ~ { ] ^ / ( # _ : < [ } | 1 ",
"{ 2 3 ; 4 5 { 6 .   * < } 7 8 9 { 2 3 ; 4 5 { 6 .   * < } 7 8 9 ",
"9 0 a b c d e = f { ; + g h i j 9 0 a b c d e = f { ; + g h i j ",
"k l m n / ! o ' p q _ r + < s t k l m n / ! o ' p q _ r + < s t ",
"# u v / f { w p x y m z r A 6 B # u v / f { w p x y m z r A 6 B ",
"C D E o { F t 9 G y H I J / + K C D E o { F t 9 G y H I J / + K ",
"6 ( G *   / p L M   N O P Q K 0 6 ( G *   / p L M   N O P Q K 0 ",
"C r R E S T U V W X . } Y Z ` = C r R E S T U V W X . } Y Z ` = ",
".  .* o . ( q 2 ~ & ..q +.E @.#..  .* o . ( q 2 ~ & ..q +.E @.#.",
"$.E w %.+ . ; &.. r @ u *.w ; F $.E w %.+ . ; &.. r @ u *.w ; F ",
"q ] ^ =.[ % o = @ X -.;.L l ] >.q ] ^ =.[ % o = @ X -.;.L l ] >.",
"r C . | ,.'.-.a ..g U ).l D X !.r C . | ,.'.-.a ..g U ).l D X !.",
"@ K C -.~.{.E ].8 ^./.O ! (.%.r @ K C -.~.{.E ].8 ^./.O ! (.%.r ",
"[ a ; & ..U # K &.2 } C _.*.4 1 [ a ; & ..U # K &.2 } C _.*.4 1 ",
":.T o &.q ^.= e <.a r = 1 ^ [.J :.T o &.q ^.= e <.a r = 1 ^ [.J "};
