/* XPM */
static char * 15_nether_portal_xpm[] = {
"32 32 112 2",
"  	c #4E00D8",
". 	c #1C00CB",
"+ 	c #0D00C7",
"@ 	c #2400CD",
"# 	c #5400DA",
"$ 	c #5D00DC",
"% 	c #3400D1",
"& 	c #0000BC",
"* 	c #0000BF",
"= 	c #0000BB",
"- 	c #BC00F4",
"; 	c #9F00EE",
"> 	c #6800DF",
", 	c #0300C6",
"' 	c #0000C5",
") 	c #3A00D3",
"! 	c #8800E8",
"~ 	c #6E00E1",
"{ 	c #4900D7",
"] 	c #9E00ED",
"^ 	c #7200E1",
"/ 	c #3F00D5",
"( 	c #6A00E0",
"_ 	c #8400E6",
": 	c #7F00E6",
"< 	c #0800C5",
"[ 	c #3100D0",
"} 	c #2000CC",
"| 	c #9C00EC",
"1 	c #B900F3",
"2 	c #1900CC",
"3 	c #0000C1",
"4 	c #5000D9",
"5 	c #4000D4",
"6 	c #8500E7",
"7 	c #A100EE",
"8 	c #6C00E0",
"9 	c #4600D7",
"0 	c #6300DE",
"a 	c #3700D2",
"b 	c #A000ED",
"c 	c #A500EF",
"d 	c #4400D6",
"e 	c #0100B9",
"f 	c #1400CB",
"g 	c #0000C0",
"h 	c #1E00CD",
"i 	c #A600F0",
"j 	c #C62BF6",
"k 	c #6600DF",
"l 	c #5700DA",
"m 	c #A700EF",
"n 	c #B500F3",
"o 	c #3000D1",
"p 	c #8100E6",
"q 	c #6400DF",
"r 	c #AA00F0",
"s 	c #AE00F1",
"t 	c #5A00DC",
"u 	c #3D00D3",
"v 	c #2E00CF",
"w 	c #0600B8",
"x 	c #BA00F3",
"y 	c #7300E2",
"z 	c #9600EB",
"A 	c #C933F8",
"B 	c #0000BD",
"C 	c #2600CE",
"D 	c #1700CA",
"E 	c #5200D9",
"F 	c #0800C8",
"G 	c #9300EB",
"H 	c #9500EB",
"I 	c #8A00E8",
"J 	c #8700E7",
"K 	c #AD00F0",
"L 	c #2800CD",
"M 	c #8200E6",
"N 	c #5000D8",
"O 	c #6000DE",
"P 	c #7100E2",
"Q 	c #B400F3",
"R 	c #4B00D7",
"S 	c #3C00D4",
"T 	c #0000C4",
"U 	c #7700E3",
"V 	c #D045F9",
"W 	c #1400C8",
"X 	c #1000C9",
"Y 	c #0000BE",
"Z 	c #9D00ED",
"` 	c #8D00E9",
" .	c #2D00D0",
"..	c #0000C7",
"+.	c #5F00DD",
"@.	c #5900DB",
"#.	c #4200D5",
"$.	c #2B00CE",
"%.	c #7500E3",
"&.	c #7000E1",
"*.	c #8B00E9",
"=.	c #9400EB",
"-.	c #9000EA",
";.	c #A900F0",
">.	c #7B00E5",
",.	c #C321F5",
"'.	c #B100F2",
").	c #C529F6",
"!.	c #0000C2",
"~.	c #2A00CF",
"{.	c #7A00E4",
"].	c #BA00F4",
"  . + @ # $ % & * # @ = # - ; >   . + @ # $ % & * # @ = # - ; > ",
", ' ) , % ! ~   { ] ^ / $ ( _ : , ' ) , % ! ~   { ] ^ / $ ( _ : ",
"< [ , } | 1 % 2 3 4 5 2 6 7 8 9 < [ , } | 1 % 2 3 4 5 2 6 7 8 9 ",
"8 0 a b c d e f g [ [ & h i j k 8 0 a b c d e f g [ [ & h i j k ",
"i l m n o g . p ^ q r 4 = [ r s i l m n o g . p ^ q r 4 = [ r s ",
"t u : v w a | i x y z A / B C _ t u : v w a | i x y z A / B C _ ",
"& D E F } G H I J I d ; K ) = C & D E F } G H I J I d ; K ) = C ",
"L # M { N O P Q   9 R S J 6 % O L # M { N O P Q   9 R S J 6 % O ",
"T a U ) C 9 U V W X Y t Z ` f D T a U ) C 9 U V W X Y t Z ` f D ",
"L  .4 ..X ~ +.+.@.3 S N @.#., $.L  .4 ..X ~ +.+.@.3 S N @.#., $.",
"%.&.Z 4 & ' 8 $.T / ... *.=.$ ! %.&.Z 4 & ' 8 $.T / ... *.=.$ ! ",
"d . -.;.O B D [ D X + J 1 0 2 #.d . -.;.O B D [ D X + J 1 0 2 #.",
"5 g T >.,.> ' S / W %.'.q & , d 5 g T >.,.> ' S / W %.'.q & , d ",
"L ) * T p - +.# +.%.).O Y !.( 4 L ) * T p - +.# +.%.).O Y !.( 4 ",
"E q [ B X : $ { ) > 8 = T M ] 0 E q [ B X : $ { ) > 8 = T M ] 0 ",
"Q a X v ) ( a g * v ~.} {.-.6 ].Q a X v ) ( a g * v ~.} {.-.6 ].",
"  . + @ # $ % & * # @ = # - ; >   . + @ # $ % & * # @ = # - ; > ",
", ' ) , % ! ~   { ] ^ / $ ( _ : , ' ) , % ! ~   { ] ^ / $ ( _ : ",
"< [ , } | 1 % 2 3 4 5 2 6 7 8 9 < [ , } | 1 % 2 3 4 5 2 6 7 8 9 ",
"8 0 a b c d e f g [ [ & h i j k 8 0 a b c d e f g [ [ & h i j k ",
"i l m n o g . p ^ q r 4 = [ r s i l m n o g . p ^ q r 4 = [ r s ",
"t u : v w a | i x y z A / B C _ t u : v w a | i x y z A / B C _ ",
"& D E F } G H I J I d ; K ) = C & D E F } G H I J I d ; K ) = C ",
"L # M { N O P Q   9 R S J 6 % O L # M { N O P Q   9 R S J 6 % O ",
"T a U ) C 9 U V W X Y t Z ` f D T a U ) C 9 U V W X Y t Z ` f D ",
"L  .4 ..X ~ +.+.@.3 S N @.#., $.L  .4 ..X ~ +.+.@.3 S N @.#., $.",
"%.&.Z 4 & ' 8 $.T / ... *.=.$ ! %.&.Z 4 & ' 8 $.T / ... *.=.$ ! ",
"d . -.;.O B D [ D X + J 1 0 2 #.d . -.;.O B D [ D X + J 1 0 2 #.",
"5 g T >.,.> ' S / W %.'.q & , d 5 g T >.,.> ' S / W %.'.q & , d ",
"L ) * T p - +.# +.%.).O Y !.( 4 L ) * T p - +.# +.%.).O Y !.( 4 ",
"E q [ B X : $ { ) > 8 = T M ] 0 E q [ B X : $ { ) > 8 = T M ] 0 ",
"Q a X v ) ( a g * v ~.} {.-.6 ].Q a X v ) ( a g * v ~.} {.-.6 ]."};
