/* XPM */
static char * 16_nether_portal_xpm[] = {
"32 32 107 2",
"  	c #5200D9",
". 	c #1700CA",
"+ 	c #0000C4",
"@ 	c #1C00CB",
"# 	c #2B00CE",
"$ 	c #4B00D7",
"% 	c #2D00D0",
"& 	c #0000BE",
"* 	c #1000C9",
"= 	c #0000C1",
"- 	c #4600D7",
"; 	c #9E00ED",
"> 	c #B500F3",
", 	c #6400DF",
"' 	c #0000BC",
") 	c #3700D2",
"! 	c #0300C6",
"~ 	c #8400E6",
"{ 	c #8100E6",
"] 	c #3D00D3",
"^ 	c #5400DA",
"/ 	c #8F00E9",
"( 	c #6300DE",
"_ 	c #4200D5",
": 	c #7F00E6",
"< 	c #7300E2",
"[ 	c #7000E1",
"} 	c #7100E2",
"| 	c #0000C3",
"1 	c #0000C0",
"2 	c #9200EA",
"3 	c #BB00F4",
"4 	c #4100D6",
"5 	c #4900D7",
"6 	c #2800CD",
"7 	c #1400C8",
"8 	c #8800E8",
"9 	c #AE00F1",
"0 	c #6000DE",
"a 	c #5000D8",
"b 	c #6E00E1",
"c 	c #3400D1",
"d 	c #A900F0",
"e 	c #9A00EC",
"f 	c #0100B9",
"g 	c #3C00D4",
"h 	c #2A00CF",
"i 	c #9900EB",
"j 	c #4E00D8",
"k 	c #A800F0",
"l 	c #5000D9",
"m 	c #9800EC",
"n 	c #BA00F4",
"o 	c #0000BD",
"p 	c #6700DF",
"q 	c #B000F2",
"r 	c #2000CC",
"s 	c #9C00EC",
"t 	c #A500EF",
"u 	c #5A00DC",
"v 	c #8D00E9",
"w 	c #0000BB",
"x 	c #1E00CD",
"y 	c #B700F3",
"z 	c #A600F0",
"A 	c #BC00F4",
"B 	c #AB00F0",
"C 	c #AA00F0",
"D 	c #7B00E5",
"E 	c #9600EC",
"F 	c #9F00EE",
"G 	c #5F00DD",
"H 	c #A100EE",
"I 	c #5900DB",
"J 	c #5C00DD",
"K 	c #6800DF",
"L 	c #8200E6",
"M 	c #3000D1",
"N 	c #2200CD",
"O 	c #8500E7",
"P 	c #3F00D5",
"Q 	c #9000EA",
"R 	c #C832F7",
"S 	c #8A00E8",
"T 	c #0D00C7",
"U 	c #7700E3",
"V 	c #7200E1",
"W 	c #5D00DC",
"X 	c #0800C8",
"Y 	c #0000C2",
"Z 	c #7500E3",
"` 	c #3A00D3",
" .	c #2600CE",
"..	c #8E00EA",
"+.	c #2400CD",
"@.	c #6A00E0",
"#.	c #0800C5",
"$.	c #2E00CF",
"%.	c #6600DF",
"&.	c #6C00E0",
"*.	c #7800E4",
"=.	c #7D00E5",
"-.	c #4B00D8",
";.	c #A000ED",
">.	c #3100D0",
",.	c #7A00E4",
"'.	c #9D00ED",
"  . + @ # $ % & @   * = - ; > ,   . + @ # $ % & @   * = - ; > , ",
"' * ) ! # ~ { ] ^ / ( _ : < [ } ' * ) ! # ~ { ] ^ / ( _ : < [ } ",
"| # 1 % 2 3 4 + = 5 6 7 8 9 0 a | # 1 % 2 3 4 + = 5 6 7 8 9 0 a ",
"b c ] d e - f . | g g & h i 9 j b c ] d e - f . | g g & h i 9 j ",
"k l m n l o ] e , p q 5 + r s t k l m n l o ] e , p q 5 + r s t ",
"0 u v % w x y z A < B C ^ 1 x D 0 u v % w x y z A < B C ^ 1 x D ",
"| h l o # E F : ~ G ) H C I w % | h l o # E F : ~ G ) H C I w % ",
"7 l ~ h J K L ; x ) M N O z ) j 7 l ~ h J K L ; x ) M N O z ) j ",
"1 $ I P a   Q R @ 1 & _ i S | @ 1 $ I P a   Q R @ 1 & _ i S | @ ",
"T % l + T U { V j 1 ) _ W I X g T % l + T U { V j 1 ) _ W I X g ",
"^ < k ( Y | Z `  .- 1 . Q d 5 K ^ < k ( Y | Z `  .- 1 . Q d 5 K ",
"` . ..n ^ 1 * - +.+ Y < n @.#.` ` . ..n ^ 1 * - +.+ Y < n @.#.` ",
"$.+ 1 U B %.= N % Y &.> G | & l $.+ 1 U B %.= N % Y &.> G | & l ",
"l G o + 2 > b 4 - &.A [ 1 * < u l G o + 2 > b 4 - &.A [ 1 * < u ",
"*.U - Y T D =.l -.} ( & Y D ;.} *.U - Y T D =.l -.} ( & Y D ;.} ",
"9 W  .>.+.$ N o ' c X X Z t ,.'.9 W  .>.+.$ N o ' c X X Z t ,.'.",
"  . + @ # $ % & @   * = - ; > ,   . + @ # $ % & @   * = - ; > , ",
"' * ) ! # ~ { ] ^ / ( _ : < [ } ' * ) ! # ~ { ] ^ / ( _ : < [ } ",
"| # 1 % 2 3 4 + = 5 6 7 8 9 0 a | # 1 % 2 3 4 + = 5 6 7 8 9 0 a ",
"b c ] d e - f . | g g & h i 9 j b c ] d e - f . | g g & h i 9 j ",
"k l m n l o ] e , p q 5 + r s t k l m n l o ] e , p q 5 + r s t ",
"0 u v % w x y z A < B C ^ 1 x D 0 u v % w x y z A < B C ^ 1 x D ",
"| h l o # E F : ~ G ) H C I w % | h l o # E F : ~ G ) H C I w % ",
"7 l ~ h J K L ; x ) M N O z ) j 7 l ~ h J K L ; x ) M N O z ) j ",
"1 $ I P a   Q R @ 1 & _ i S | @ 1 $ I P a   Q R @ 1 & _ i S | @ ",
"T % l + T U { V j 1 ) _ W I X g T % l + T U { V j 1 ) _ W I X g ",
"^ < k ( Y | Z `  .- 1 . Q d 5 K ^ < k ( Y | Z `  .- 1 . Q d 5 K ",
"` . ..n ^ 1 * - +.+ Y < n @.#.` ` . ..n ^ 1 * - +.+ Y < n @.#.` ",
"$.+ 1 U B %.= N % Y &.> G | & l $.+ 1 U B %.= N % Y &.> G | & l ",
"l G o + 2 > b 4 - &.A [ 1 * < u l G o + 2 > b 4 - &.A [ 1 * < u ",
"*.U - Y T D =.l -.} ( & Y D ;.} *.U - Y T D =.l -.} ( & Y D ;.} ",
"9 W  .>.+.$ N o ' c X X Z t ,.'.9 W  .>.+.$ N o ' c X X Z t ,.'."};
