/* XPM */
static char * 16_nether_portal_xpm[] = {
"16 16 109 2",
"  	c #6400DF",
". 	c #4200D5",
"+ 	c #2E00CF",
"@ 	c #2800CD",
"# 	c #5900DB",
"$ 	c #3300D2",
"% 	c #0000C0",
"& 	c #1400CB",
"* 	c #6A00DF",
"= 	c #0D00C7",
"- 	c #0000C4",
"; 	c #A700F0",
"> 	c #9200EA",
", 	c #0000BA",
"' 	c #2000CC",
") 	c #2A00CF",
"! 	c #0000BD",
"~ 	c #2B00CE",
"{ 	c #9300EB",
"] 	c #7B00E5",
"^ 	c #3F00D5",
"/ 	c #3C00D4",
"( 	c #8A00E8",
"_ 	c #4600D7",
": 	c #4400D6",
"< 	c #7700E3",
"[ 	c #6E00E1",
"} 	c #5F00DD",
"| 	c #0000C3",
"1 	c #2600CE",
"2 	c #A600F0",
"3 	c #B700F3",
"4 	c #0000C2",
"5 	c #0000C1",
"6 	c #4E00D8",
"7 	c #1700CA",
"8 	c #8700E7",
"9 	c #C933F7",
"0 	c #1C00CB",
"a 	c #3A00D3",
"b 	c #A900F0",
"c 	c #9D00ED",
"d 	c #0100B9",
"e 	c #5700DA",
"f 	c #0000BF",
"g 	c #9000EA",
"h 	c #B200F2",
"i 	c #4900D7",
"j 	c #B600F3",
"k 	c #A300EF",
"l 	c #7F00E6",
"m 	c #BC04F4",
"n 	c #0300C6",
"o 	c #A500EF",
"p 	c #6800DF",
"q 	c #9C00EC",
"r 	c #3700D2",
"s 	c #A200EE",
"t 	c #9E00ED",
"u 	c #9F00EE",
"v 	c #6300DE",
"w 	c #B500F3",
"x 	c #BC00F4",
"y 	c #9900EB",
"z 	c #6600DF",
"A 	c #7500E3",
"B 	c #5200D9",
"C 	c #1000C9",
"D 	c #6700DF",
"E 	c #8B00E9",
"F 	c #0800C8",
"G 	c #2200CD",
"H 	c #0000BB",
"I 	c #7A00E4",
"J 	c #B800F3",
"K 	c #8100E6",
"L 	c #1E00CD",
"M 	c #8D00E9",
"N 	c #3400D1",
"O 	c #7100E2",
"P 	c #7300E2",
"Q 	c #BB00F4",
"R 	c #1400C8",
"S 	c #6A00E0",
"T 	c #5D00DC",
"U 	c #7800E4",
"V 	c #B400F3",
"W 	c #5600DB",
"X 	c #C72DF7",
"Y 	c #0000BE",
"Z 	c #8200E6",
"` 	c #9700EC",
" .	c #6C00E0",
"..	c #4000D4",
"+.	c #5A00DC",
"@.	c #B100F2",
"#.	c #6100DD",
"$.	c #A700EF",
"%.	c #7D00E5",
"&.	c #0800C5",
"*.	c #4B00D7",
"=.	c #8500E7",
"-.	c #5000D9",
";.	c #C117F6",
">.	c #3000D1",
",.	c #2400CD",
"'.	c #5100DA",
").	c #BA00F4",
"!.	c #A800F0",
"  . + @ @ # $ % & * = -   ; > . ",
", ' ) ! ~ { ] ^ / ( _ : < [ } # ",
"| @ % 1 2 3 : 4 5 6 7 & 8 9   0 ",
"# a : b c / d 7 - e _ f 1 g h _ ",
"{ i h j i f / k ] l m i n + { o ",
"* p q r ! r s t u v w x 6 n 1 c ",
"- $ / 5 0 y j z A 6 / o 2 B f ' ",
"C } D r   g E q F r G 1 > ; i i ",
"H 6 6 & i I A J 1 n 5 i 8 K - | ",
"L : : | C M g 8 6 n N 1 a O ) / ",
"p P Q v f R S T r B f F U V D W ",
"G n ( y 6 % % / ^ | | ( X P | ) ",
"6 Y n Z `  .5 1 = % Z o D - ! ..",
"+.D % n A @.#.a r A $.p C & [ I ",
"  %.. d &.l Z *.. =.-.% 7 M V I ",
";.p . >.,.^ N % | '.C = =.).P !."};
