/* XPM */
static char * 18_nether_portal_xpm[] = {
"32 32 113 2",
"  	c #8100E6",
". 	c #4200D5",
"+ 	c #3C00D4",
"@ 	c #2400CD",
"# 	c #0000C7",
"$ 	c #3700D2",
"% 	c #0000C3",
"& 	c #2D00D0",
"* 	c #6700DF",
"= 	c #0000C2",
"- 	c #0000C4",
"; 	c #4E00D8",
"> 	c #8C00E8",
", 	c #8800E8",
"' 	c #5000D9",
") 	c #0600B8",
"! 	c #2800CD",
"~ 	c #3100D0",
"{ 	c #0000BF",
"] 	c #1000C9",
"^ 	c #9300EB",
"/ 	c #9C00EC",
"( 	c #4000D4",
"_ 	c #9400EB",
": 	c #4400D6",
"< 	c #5A00DC",
"[ 	c #9A00EC",
"} 	c #7000E1",
"| 	c #4900D7",
"1 	c #3D00D3",
"2 	c #3000D1",
"3 	c #9600EC",
"4 	c #AD00F0",
"5 	c #3A00D3",
"6 	c #0000BE",
"7 	c #0D00C7",
"8 	c #8E00EA",
"9 	c #CA31F7",
"0 	c #4B00D7",
"a 	c #0000C5",
"b 	c #5C00DD",
"c 	c #2200CD",
"d 	c #2600CE",
"e 	c #8B00E9",
"f 	c #A200EE",
"g 	c #0000BB",
"h 	c #1700CA",
"i 	c #0000BD",
"j 	c #9000EA",
"k 	c #AE00F1",
"l 	c #7D00E5",
"m 	c #A100EE",
"n 	c #9E00ED",
"o 	c #3400D1",
"p 	c #B500F3",
"q 	c #8200E6",
"r 	c #AA00F0",
"s 	c #B600F3",
"t 	c #6800DF",
"u 	c #B300F2",
"v 	c #9D00ED",
"w 	c #A500EF",
"x 	c #8D00E9",
"y 	c #5F00DD",
"z 	c #0300C6",
"A 	c #2E00CF",
"B 	c #0000C1",
"C 	c #0100B9",
"D 	c #2000CC",
"E 	c #6C00E0",
"F 	c #6400DF",
"G 	c #2A00CF",
"H 	c #9F00EE",
"I 	c #4100D6",
"J 	c #0000BC",
"K 	c #1E00CD",
"L 	c #0800C8",
"M 	c #8A00E8",
"N 	c #7B00E5",
"O 	c #1400C8",
"P 	c #B200F3",
"Q 	c #5400DA",
"R 	c #8600E6",
"S 	c #9200EA",
"T 	c #C525F6",
"U 	c #0000C0",
"V 	c #2B00CE",
"W 	c #5200D9",
"X 	c #9700EC",
"Y 	c #7800E4",
"Z 	c #3F00D5",
"` 	c #BA00F4",
" .	c #7A00E4",
"..	c #8700E7",
"+.	c #7700E3",
"@.	c #A300EF",
"#.	c #6300DE",
"$.	c #7100E2",
"%.	c #AC00F1",
"&.	c #5600DB",
"*.	c #7F00E6",
"=.	c #7500E3",
"-.	c #5700DA",
";.	c #1900CC",
">.	c #3300D2",
",.	c #B400F3",
"'.	c #6E00E1",
").	c #9800EC",
"!.	c #8400E6",
"~.	c #8500E7",
"{.	c #BE0FF5",
"].	c #6A00E0",
"^.	c #AB00F0",
"  . + @ # $ . % & * = - ; > , '   . + @ # $ . % & * = - ; > , ' ",
") ! ~ { ] ^ / ( ; _ : < [ } | 1 ) ! ~ { ] ^ / ( ; _ : < [ } | 1 ",
"% 2 ) ] 3 4 5 6 - 5 % 7 8 9 0 a % 2 ) ] 3 4 5 6 - 5 % 7 8 9 0 a ",
"b c d e f | g ! h < : i ! j k 5 b c d e f | g ! h < : i ! j k 5 ",
"l : m n : % o p q ^ r < ] 2 8 s l : m n : % o p q ^ r < ] 2 8 s ",
"t l u o - 5 v w x y p m ; z A v t l u o - 5 v w x y p m ; z A v ",
"B ( . C D / 4 E F G + H k I J K B ( . C D / 4 E F G + H k I J K ",
"L : ' $ * m M N L 5 7 O , P ( o L : ' $ * m M N L 5 7 O , P ( o ",
"g 2 . & Q R S T c U J ~ N > ] { g 2 . & Q R S T c U J ~ N > ] { ",
"V y W = h X v Y * D ( % + * ( Z V y W = h X v Y * D ( % + * ( Z ",
".   ` 0 i L l  .( : { B ..r b b .   ` 0 i L l  .( : { B ..r b b ",
"@ % +.@.#.% U 0 ; a a $.%.&.i A @ % +.@.#.% U 0 ; a a $.%.&.i A ",
"| U ] *.x y g O z U =.^ Q ] % &.| U ] *.x y g O z U =.^ Q ] % &.",
"  -.- a > p #.;.>. .,.'.] O  .).  -.- a > p #.;.>. .,.'.] O  .).",
"!.~.W g L M X &.Q 3 y = L [ {.*.!.~.W g L M X &.Q 3 y = L [ {.*.",
",. .].! h . | U U &.z U _ ^.+.l ,. .].! h . | U U &.z U _ ^.+.l ",
"  . + @ # $ . % & * = - ; > , '   . + @ # $ . % & * = - ; > , ' ",
") ! ~ { ] ^ / ( ; _ : < [ } | 1 ) ! ~ { ] ^ / ( ; _ : < [ } | 1 ",
"% 2 ) ] 3 4 5 6 - 5 % 7 8 9 0 a % 2 ) ] 3 4 5 6 - 5 % 7 8 9 0 a ",
"b c d e f | g ! h < : i ! j k 5 b c d e f | g ! h < : i ! j k 5 ",
"l : m n : % o p q ^ r < ] 2 8 s l : m n : % o p q ^ r < ] 2 8 s ",
"t l u o - 5 v w x y p m ; z A v t l u o - 5 v w x y p m ; z A v ",
"B ( . C D / 4 E F G + H k I J K B ( . C D / 4 E F G + H k I J K ",
"L : ' $ * m M N L 5 7 O , P ( o L : ' $ * m M N L 5 7 O , P ( o ",
"g 2 . & Q R S T c U J ~ N > ] { g 2 . & Q R S T c U J ~ N > ] { ",
"V y W = h X v Y * D ( % + * ( Z V y W = h X v Y * D ( % + * ( Z ",
".   ` 0 i L l  .( : { B ..r b b .   ` 0 i L l  .( : { B ..r b b ",
"@ % +.@.#.% U 0 ; a a $.%.&.i A @ % +.@.#.% U 0 ; a a $.%.&.i A ",
"| U ] *.x y g O z U =.^ Q ] % &.| U ] *.x y g O z U =.^ Q ] % &.",
"  -.- a > p #.;.>. .,.'.] O  .).  -.- a > p #.;.>. .,.'.] O  .).",
"!.~.W g L M X &.Q 3 y = L [ {.*.!.~.W g L M X &.Q 3 y = L [ {.*.",
",. .].! h . | U U &.z U _ ^.+.l ,. .].! h . | U U &.z U _ ^.+.l "};
