/* XPM */
static char * 18_nether_portal_xpm[] = {
"16 16 108 2",
"  	c #8C00E8",
". 	c #4900D7",
"+ 	c #3A00D3",
"@ 	c #2A00CF",
"# 	c #0000C0",
"$ 	c #4400D6",
"% 	c #6400DF",
"& 	c #0300C6",
"* 	c #2B00CE",
"= 	c #7D00E5",
"- 	c #1700CA",
"; 	c #5200D9",
"> 	c #9000EA",
", 	c #8F00E9",
"' 	c #2600CE",
") 	c #0000BC",
"! 	c #0000BB",
"~ 	c #9400EB",
"{ 	c #9700EC",
"] 	c #4000D4",
"^ 	c #4600D7",
"/ 	c #6A00DF",
"( 	c #7200E1",
"_ 	c #0000C2",
": 	c #2000CC",
"< 	c #2800CD",
"[ 	c #9200EA",
"} 	c #3700D2",
"| 	c #0000BE",
"1 	c #0000C3",
"2 	c #0000C4",
"3 	c #C628F6",
"4 	c #5C00DD",
"5 	c #0800C8",
"6 	c #8100E6",
"7 	c #7A00E4",
"8 	c #2D00D0",
"9 	c #7000E1",
"0 	c #4200D5",
"a 	c #1E00CD",
"b 	c #8200E6",
"c 	c #A200EE",
"d 	c #7800E4",
"e 	c #4E00D8",
"f 	c #9700EB",
"g 	c #2200CD",
"h 	c #3100D0",
"i 	c #B500F3",
"j 	c #6C00E0",
"k 	c #9D00ED",
"l 	c #A300EF",
"m 	c #1C00CB",
"n 	c #A100EE",
"o 	c #AA00F0",
"p 	c #8500E7",
"q 	c #9A00EC",
"r 	c #0000C1",
"s 	c #4B00D7",
"t 	c #AF00F1",
"u 	c #BC00F4",
"v 	c #8400E6",
"w 	c #9E00ED",
"x 	c #5400DA",
"y 	c #9600EC",
"z 	c #3C00D4",
"A 	c #2E00CF",
"B 	c #AC00F1",
"C 	c #5900DB",
"D 	c #1900CC",
"E 	c #8700E7",
"F 	c #0000BF",
"G 	c #6600DF",
"H 	c #6300DE",
"I 	c #3000D1",
"J 	c #0D00C7",
"K 	c #3400D1",
"L 	c #6000DE",
"M 	c #7F00E6",
"N 	c #A600F0",
"O 	c #0000BD",
"P 	c #7500E3",
"Q 	c #0000C7",
"R 	c #8A00E8",
"S 	c #3300D2",
"T 	c #6E00E1",
"U 	c #A500EF",
"V 	c #0000C5",
"W 	c #B700F3",
"X 	c #7100E2",
"Y 	c #5F00DD",
"Z 	c #5000D9",
"` 	c #6700DF",
" .	c #5A00DC",
"..	c #5600DB",
"+.	c #1000C9",
"@.	c #8600E6",
"#.	c #5000D8",
"$.	c #7300E2",
"%.	c #AB00F0",
"&.	c #8B00E9",
"*.	c #AE00F1",
"=.	c #5D00DC",
"-.	c #9B00EC",
";.	c #B300F2",
">.	c #C933F8",
",.	c #B800F3",
"'.	c #1400CB",
").	c #8900E7",
"  . + @ # $ % & * = & - ; > , ' ",
") + + ! - ~ { ' ] , ^ / { ( + ] ",
"_ : # < , [ } ! | $ 1 2 > 3 ; & ",
"4 5 ' 6 7 } | @ 8 9 0 2 a b c $ ",
"d e f [ . g h i j k l 4 m h n o ",
"4 p q ] r s t u v . w [ x : } y ",
"r z A ) A i B ; C - D E [ ^ ) D ",
"F 0 + m G o 9 H _ I _ J v c K m ",
"! } } a L M v N 0 # O 8 P d Q # ",
"} 9 . O m R B = / S } 1 - T x A ",
"S b U 4 V m = M x ; ) _ p W ; } ",
"1 5 X d Y 2 r e Z F _ ` w  .F & ",
"s r V ..R ; 1 V Q r j R x +.# C ",
"6 j # +.@.c #.' 8 $.%.Y m 8 $.l ",
"&.*.=._ 5 [ -.. Y ;.; V - > >.[ ",
",.$.j 0 # } e 2 '.0 1 +.).;.6 M "};
