/* XPM */
static char * 19_nether_portal_xpm[] = {
"16 16 117 2",
"  	c #9200EA",
". 	c #5C00DD",
"+ 	c #5A00DC",
"@ 	c #3A00D3",
"# 	c #0000C5",
"$ 	c #3300D2",
"% 	c #5900DB",
"& 	c #1700CA",
"* 	c #3C00D4",
"= 	c #6A00E0",
"- 	c #1C00CB",
"; 	c #1E00CD",
"> 	c #5600DB",
", 	c #8A00E8",
"' 	c #7B00E5",
") 	c #2800CD",
"! 	c #0000BF",
"~ 	c #5200D9",
"{ 	c #3700D2",
"] 	c #0D00C7",
"^ 	c #8400E6",
"/ 	c #8D00E9",
"( 	c #4200D5",
"_ 	c #7800E4",
": 	c #2200CD",
"< 	c #6400DF",
"[ 	c #9D00ED",
"} 	c #7300E2",
"| 	c #2600CE",
"1 	c #0000BD",
"2 	c #2000CC",
"3 	c #6800DF",
"4 	c #8B00E9",
"5 	c #4600D7",
"6 	c #0000BE",
"7 	c #0000C3",
"8 	c #1400C8",
"9 	c #9700EB",
"0 	c #B900F3",
"a 	c #0000C4",
"b 	c #5000D9",
"c 	c #7100E2",
"d 	c #8F00E9",
"e 	c #4900D7",
"f 	c #0000C0",
"g 	c #3F00D5",
"h 	c #9600EC",
"i 	c #A900F0",
"j 	c #A400EF",
"k 	c #8200E6",
"l 	c #A300EF",
"m 	c #7700E3",
"n 	c #9300EB",
"o 	c #A000ED",
"p 	c #4B00D7",
"q 	c #9F00EE",
"r 	c #9900EB",
"s 	c #9A00EC",
"t 	c #8100E6",
"u 	c #9500EB",
"v 	c #8500E7",
"w 	c #6300DE",
"x 	c #A500EF",
"y 	c #5400DA",
"z 	c #4400D6",
"A 	c #0600B8",
"B 	c #3400D1",
"C 	c #B000F2",
"D 	c #BC00F4",
"E 	c #2A00CF",
"F 	c #8700E7",
"G 	c #5F00DD",
"H 	c #0000C1",
"I 	c #0300C6",
"J 	c #4E00D8",
"K 	c #2D00D0",
"L 	c #7500E3",
"M 	c #B800F3",
"N 	c #6E00E1",
"O 	c #0000C2",
"P 	c #8C00E8",
"Q 	c #9E00ED",
"R 	c #0100B9",
"S 	c #2400CD",
"T 	c #7000E1",
"U 	c #A200EE",
"V 	c #3000D1",
"W 	c #2B00CE",
"X 	c #1000C9",
"Y 	c #A700F0",
"Z 	c #7A00E4",
"` 	c #3100D0",
" .	c #8600E6",
"..	c #5700DA",
"+.	c #7200E1",
"@.	c #B600F3",
"#.	c #6C00E0",
"$.	c #9700EC",
"%.	c #5D00DC",
"&.	c #6200DF",
"*.	c #6600DF",
"=.	c #6A00DF",
"-.	c #1900CC",
";.	c #6E00E0",
">.	c #B200F2",
",.	c #7D00E5",
"'.	c #BF06F5",
").	c #0000BC",
"!.	c #7F00E6",
"~.	c #AE00F1",
"{.	c #A600F0",
"].	c #C730F7",
"^.	c #8800E8",
"/.	c #9400EB",
"(.	c #0800C8",
"_.	c #9000EA",
":.	c #C423F6",
"  . + @ # $ % & * = - ; > , ' ) ",
"! ~ { ! ] ^ / * ( _ : < [ } | - ",
"- ] 1 2 3 4 5 6 6 @ 7 8 9 0 ~ a ",
"b 6 ) } c % 7 2 : d e f g h i g ",
"< @ j k g * b l m n o > ( p d h ",
"c q r * ] e i s t p u v w : ) x ",
"7 y z A B C D y b # E m F G H I ",
"H J K 8 L M N 5 I 2 O 7 P Q B ] ",
"R @ S ; t i T U p I 7 V > L - A ",
"W , 5 f X Y D   m G ( 6 - Z G { ",
") ' h p # `  .U L ..a # +.@.% @ ",
"a f m m z 2 ] #.e ! H T $.G ! ] ",
"< # ; %.w &.7 f H O b *.b E I =.",
"h G - -.;.x #.# ] G F % ( `   >.",
",.'.T ).7 !.~.y y {.T & 2 t ].^.",
"i k /.( 1 V y # & J 1 (._.:.k L "};
