/* XPM */
static char * 21_nether_portal_xpm[] = {
"32 32 115 2",
"  	c #A900F0",
". 	c #5D00DC",
"+ 	c #7800E4",
"@ 	c #4400D6",
"# 	c #0000BF",
"$ 	c #2800CD",
"% 	c #7B00E5",
"& 	c #3400D1",
"* 	c #6800DF",
"= 	c #0300C6",
"- 	c #3100D0",
"; 	c #6300DE",
"> 	c #6000DE",
", 	c #6C00E0",
"' 	c #3000D1",
") 	c #0000C0",
"! 	c #4B00D7",
"~ 	c #0100B9",
"{ 	c #2200CD",
"] 	c #7F00E6",
"^ 	c #9A00EC",
"/ 	c #3F00D5",
"( 	c #5A00DC",
"_ 	c #7300E2",
": 	c #1900CC",
"< 	c #7A00E4",
"[ 	c #B600F3",
"} 	c #6100DD",
"| 	c #1E00CD",
"1 	c #1400C8",
"2 	c #2000CC",
"3 	c #0600B8",
"4 	c #2E00CF",
"5 	c #7000E1",
"6 	c #3A00D3",
"7 	c #0000BC",
"8 	c #0800C8",
"9 	c #4200D5",
"0 	c #9300EB",
"a 	c #9C00EC",
"b 	c #4E00D8",
"c 	c #0000C2",
"d 	c #3700D2",
"e 	c #7700E3",
"f 	c #4000D4",
"g 	c #3C00D4",
"h 	c #9200EA",
"i 	c #5200D9",
"j 	c #7C00E5",
"k 	c #7D00E5",
"l 	c #3D00D3",
"m 	c #4100D6",
"n 	c #4900D7",
"o 	c #8A00E8",
"p 	c #9700EC",
"q 	c #6600DF",
"r 	c #9E00ED",
"s 	c #6700DF",
"t 	c #5400DA",
"u 	c #7100E2",
"v 	c #9800EC",
"w 	c #A200EE",
"x 	c #9500EB",
"y 	c #2D00D0",
"z 	c #A300EE",
"A 	c #AA00F0",
"B 	c #8800E8",
"C 	c #A300EF",
"D 	c #1700CA",
"E 	c #7500E2",
"F 	c #0000BE",
"G 	c #AE00F1",
"H 	c #B400F3",
"I 	c #0D00C7",
"J 	c #6400DF",
"K 	c #8500E7",
"L 	c #5100DA",
"M 	c #2600CE",
"N 	c #B800F3",
"O 	c #3300D2",
"P 	c #2A00CF",
"Q 	c #0800C5",
"R 	c #8100E6",
"S 	c #A100EE",
"T 	c #0000C1",
"U 	c #0000C3",
"V 	c #8C00E8",
"W 	c #5600DB",
"X 	c #1000C9",
"Y 	c #1C00CB",
"Z 	c #0000BB",
"` 	c #8700E7",
" .	c #9900EB",
"..	c #BB00F4",
"+.	c #0000BD",
"@.	c #8B00E9",
"#.	c #BA00F4",
"$.	c #8900E7",
"%.	c #7500E3",
"&.	c #B300F2",
"*.	c #0000C5",
"=.	c #5000D8",
"-.	c #4600D7",
";.	c #2B00CE",
">.	c #8200E6",
",.	c #6A00E0",
"'.	c #0000C4",
").	c #5900DB",
"!.	c #BD01F5",
"~.	c #AF00F1",
"{.	c #9D00ED",
"].	c #B500F3",
"^.	c #9000EA",
"/.	c #A700F0",
"(.	c #B200F3",
"  . + @ # $ % & * % = - ; > , '   . + @ # $ % & * % = - ; > , ' ",
") . ! ~ { ] ^ / ( _ : < [ } | 1 ) . ! ~ { ] ^ / ( _ : < [ } | 1 ",
"2 $ 3 4 5 5 6 7 8 9 ) $ 0 a b c 2 $ 3 4 5 5 6 7 8 9 ) $ 0 a b c ",
"/ ) d e _ f 1 { g h i 8 b j k l / ) d e _ f 1 { g h i 8 b j k l ",
"m n o , i i n p q   r s t ; u v m n o , i i n p q   r s t ; u v ",
"( w x 6 y i z A ( & o B > @ - C ( w x 6 y i z A ( & o B > @ - C ",
"D E d F d G H ! n I { J K t ) = D E d F d G H ! n I { J K t ) = ",
"F L M { ] N , O ) P ~ Q R S ! T F L M { ] N , O ) P ~ Q R S ! T ",
"~ 6 8 U _ S u V W X = Y i * d Z ~ 6 8 U _ S u V W X = Y i * d Z ",
"@ ` g ) M  ...B u > g +.2 e < @ @ ` g ) M  ...B u > g +.2 e < @ ",
"X s ` b P 4 @.#.$.%.+.c + &.( - X s ` b P 4 @.#.$.%.+.c + &.( - ",
") *.* t =.Y 8 , ( 1 X > % * F I ) *.* t =.Y 8 , ( 1 X > % * F I ",
"( Q Y -.! ( F T U c t s J ;.: * ( Q Y -.! ( F T U c t s J ;.: * ",
"C >.: g ,.>., '.U , e ).g - K !.C >.: g ,.>., '.U , e ).g - K !.",
"` ~.5 ) 8 %.{.> J S ( 1 6 ` ].V ` ~.5 ) 8 %.{.> J S ( 1 6 ` ].V ",
"@.^./.b F X ).8 d @ +.*.^ (.; ( @.^./.b F X ).8 d @ +.*.^ (.; ( ",
"  . + @ # $ % & * % = - ; > , '   . + @ # $ % & * % = - ; > , ' ",
") . ! ~ { ] ^ / ( _ : < [ } | 1 ) . ! ~ { ] ^ / ( _ : < [ } | 1 ",
"2 $ 3 4 5 5 6 7 8 9 ) $ 0 a b c 2 $ 3 4 5 5 6 7 8 9 ) $ 0 a b c ",
"/ ) d e _ f 1 { g h i 8 b j k l / ) d e _ f 1 { g h i 8 b j k l ",
"m n o , i i n p q   r s t ; u v m n o , i i n p q   r s t ; u v ",
"( w x 6 y i z A ( & o B > @ - C ( w x 6 y i z A ( & o B > @ - C ",
"D E d F d G H ! n I { J K t ) = D E d F d G H ! n I { J K t ) = ",
"F L M { ] N , O ) P ~ Q R S ! T F L M { ] N , O ) P ~ Q R S ! T ",
"~ 6 8 U _ S u V W X = Y i * d Z ~ 6 8 U _ S u V W X = Y i * d Z ",
"@ ` g ) M  ...B u > g +.2 e < @ @ ` g ) M  ...B u > g +.2 e < @ ",
"X s ` b P 4 @.#.$.%.+.c + &.( - X s ` b P 4 @.#.$.%.+.c + &.( - ",
") *.* t =.Y 8 , ( 1 X > % * F I ) *.* t =.Y 8 , ( 1 X > % * F I ",
"( Q Y -.! ( F T U c t s J ;.: * ( Q Y -.! ( F T U c t s J ;.: * ",
"C >.: g ,.>., '.U , e ).g - K !.C >.: g ,.>., '.U , e ).g - K !.",
"` ~.5 ) 8 %.{.> J S ( 1 6 ` ].V ` ~.5 ) 8 %.{.> J S ( 1 6 ` ].V ",
"@.^./.b F X ).8 d @ +.*.^ (.; ( @.^./.b F X ).8 d @ +.*.^ (.; ( "};
