/* XPM */
static char * 22_nether_portal_xpm[] = {
"32 32 106 2",
"  	c #AA00F0",
". 	c #8100E6",
"+ 	c #7C00E5",
"@ 	c #4200D5",
"# 	c #0000C0",
"$ 	c #1700CA",
"% 	c #7000E1",
"& 	c #5000D9",
"* 	c #6700DF",
"= 	c #5D00DC",
"- 	c #4400D6",
"; 	c #7B00E5",
"> 	c #5F00DD",
", 	c #2B00CE",
"' 	c #0300C6",
") 	c #7100E2",
"! 	c #3700D2",
"~ 	c #0000C3",
"{ 	c #0000C7",
"] 	c #9D00ED",
"^ 	c #1E00CD",
"/ 	c #8400E6",
"( 	c #0000C2",
"_ 	c #0800C8",
": 	c #0000BC",
"< 	c #2600CE",
"[ 	c #6400DF",
"} 	c #0000BB",
"| 	c #3A00D3",
"1 	c #2A00CF",
"2 	c #8D00E9",
"3 	c #A900F0",
"4 	c #0600B8",
"5 	c #2200CD",
"6 	c #5600DB",
"7 	c #5C00DD",
"8 	c #6300DE",
"9 	c #2E00CF",
"0 	c #5200D9",
"a 	c #9200EA",
"b 	c #5100DA",
"c 	c #4900D7",
"d 	c #6E00E0",
"e 	c #7D00E5",
"f 	c #2400CD",
"g 	c #4600D7",
"h 	c #5A00DC",
"i 	c #6A00E0",
"j 	c #A500EF",
"k 	c #9000EA",
"l 	c #6A00DF",
"m 	c #6100DD",
"n 	c #7A00E4",
"o 	c #9600EB",
"p 	c #9A00EC",
"q 	c #9300EB",
"r 	c #4B00D7",
"s 	c #4000D4",
"t 	c #6000DE",
"u 	c #9900EB",
"v 	c #A300EF",
"w 	c #3400D1",
"x 	c #5900DB",
"y 	c #1400C8",
"z 	c #7800E4",
"A 	c #2800CD",
"B 	c #A600EF",
"C 	c #6800DF",
"D 	c #1000C9",
"E 	c #2000CC",
"F 	c #9F00EE",
"G 	c #B400F3",
"H 	c #6C00E0",
"I 	c #0000BF",
"J 	c #0000C4",
"K 	c #BA00F4",
"L 	c #5000D8",
"M 	c #3D00D3",
"N 	c #5700DA",
"O 	c #8500E7",
"P 	c #3100D0",
"Q 	c #9600EC",
"R 	c #B300F2",
"S 	c #7F00E6",
"T 	c #8A00E8",
"U 	c #C72DF7",
"V 	c #9700EC",
"W 	c #0000C5",
"X 	c #0D00C7",
"Y 	c #7700E3",
"Z 	c #4E00D8",
"` 	c #5400DA",
" .	c #3C00D4",
"..	c #C21AF6",
"+.	c #CA38F8",
"@.	c #C933F7",
"#.	c #6E00E1",
"$.	c #B800F3",
"%.	c #AB00F0",
"&.	c #3F00D5",
"*.	c #8200E6",
"=.	c #7500E3",
"-.	c #8E00EA",
";.	c #AF00F1",
">.	c #0000BE",
",.	c #6600DF",
"  . + @ # $ % & * = $ - ; & > ,   . + @ # $ % & * = $ - ; & > , ",
"' ) ! ~ { . ] ^ @ = $ /   * ( _ ' ) ! ~ { . ] ^ @ = $ /   * ( _ ",
"^ _ : < = [ - } _ | # 1 2 3 @ 4 ^ _ : < = [ - } _ | # 1 2 3 @ 4 ",
"< : 5 6 7 8 9 - 0 a b 1 c d e f < : 5 6 7 8 9 - 0 a b 1 c d e f ",
"g g a h [ * > ] i j k l h m n o g g a h [ * > ] i j k l h m n o ",
"h p q r s t u v g w . 8 x r g q h p q r s t u v g w . 8 x r g q ",
"y z A : c B j g | ( _ % C 0 D E y z A : c B j g | ( _ % C 0 D E ",
": | _ ' F G H 1 ~ E I J n a w # : | _ ' F G H 1 ~ E I J n a w # ",
"J | ~ ~ p K 8 8 L < 9 < M N @ # J | ~ ~ p K 8 8 L < 9 < M N @ # ",
"s O g # P Q R S a n r # _ a . c s O g # P Q R S a n r # _ a . c ",
"D e T x w w a U V e W X Y   0 $ D e T x w w a U V e W X Y   0 $ ",
"# y r Z `  .A . C ( , s x h ( # # y r Z `  .A . C ( , s x h ( # ",
"C ' A ` Z r D W ' ~ g b Z c ^ Y C ' A ` Z r D W ' ~ g b Z c ^ Y ",
"..S  .w x 2 c # I Z e x ` x O +...S  .w x 2 c # I Z e x ` x O +.",
"/ @.H X ^ #.$.N 7 %.t f &.*.G O / @.H X ^ #.$.N 7 %.t f &.*.G O ",
"=.-.;.! >.' n P ! g # $ Y ;.,. .=.-.;.! >.' n P ! g # $ Y ;.,. .",
"  . + @ # $ % & * = $ - ; & > ,   . + @ # $ % & * = $ - ; & > , ",
"' ) ! ~ { . ] ^ @ = $ /   * ( _ ' ) ! ~ { . ] ^ @ = $ /   * ( _ ",
"^ _ : < = [ - } _ | # 1 2 3 @ 4 ^ _ : < = [ - } _ | # 1 2 3 @ 4 ",
"< : 5 6 7 8 9 - 0 a b 1 c d e f < : 5 6 7 8 9 - 0 a b 1 c d e f ",
"g g a h [ * > ] i j k l h m n o g g a h [ * > ] i j k l h m n o ",
"h p q r s t u v g w . 8 x r g q h p q r s t u v g w . 8 x r g q ",
"y z A : c B j g | ( _ % C 0 D E y z A : c B j g | ( _ % C 0 D E ",
": | _ ' F G H 1 ~ E I J n a w # : | _ ' F G H 1 ~ E I J n a w # ",
"J | ~ ~ p K 8 8 L < 9 < M N @ # J | ~ ~ p K 8 8 L < 9 < M N @ # ",
"s O g # P Q R S a n r # _ a . c s O g # P Q R S a n r # _ a . c ",
"D e T x w w a U V e W X Y   0 $ D e T x w w a U V e W X Y   0 $ ",
"# y r Z `  .A . C ( , s x h ( # # y r Z `  .A . C ( , s x h ( # ",
"C ' A ` Z r D W ' ~ g b Z c ^ Y C ' A ` Z r D W ' ~ g b Z c ^ Y ",
"..S  .w x 2 c # I Z e x ` x O +...S  .w x 2 c # I Z e x ` x O +.",
"/ @.H X ^ #.$.N 7 %.t f &.*.G O / @.H X ^ #.$.N 7 %.t f &.*.G O ",
"=.-.;.! >.' n P ! g # $ Y ;.,. .=.-.;.! >.' n P ! g # $ Y ;.,. ."};
