/* XPM */
static char * 22_nether_portal_xpm[] = {
"16 16 112 2",
"  	c #9A00EC",
". 	c #7A00E4",
"+ 	c #3F00D5",
"@ 	c #0000BD",
"# 	c #2200CD",
"$ 	c #7500E3",
"% 	c #6C00E0",
"& 	c #6E00E1",
"* 	c #1700CA",
"= 	c #6700DF",
"- 	c #4700D6",
"; 	c #3400D1",
"> 	c #0800C8",
", 	c #7B00E5",
"' 	c #5100DA",
") 	c #0300C6",
"! 	c #2E00CF",
"~ 	c #7700E3",
"{ 	c #9400EB",
"] 	c #2400CD",
"^ 	c #4600D7",
"/ 	c #3000D1",
"( 	c #2600CE",
"_ 	c #BF06F5",
": 	c #5A00DC",
"< 	c #0000BE",
"[ 	c #0000C5",
"} 	c #3700D2",
"| 	c #2A00CF",
"1 	c #0000C3",
"2 	c #3A00D3",
"3 	c #5400DA",
"4 	c #6300DE",
"5 	c #4200D5",
"6 	c #2B00CE",
"7 	c #0000C0",
"8 	c #9200EA",
"9 	c #1400CB",
"0 	c #0600B8",
"a 	c #3100D0",
"b 	c #4B00D7",
"c 	c #6800DF",
"d 	c #4400D6",
"e 	c #4E00D8",
"f 	c #A500EF",
"g 	c #5700DA",
"h 	c #3300D2",
"i 	c #5900DB",
"j 	c #6A00DF",
"k 	c #6000DE",
"l 	c #3C00D4",
"m 	c #1900CC",
"n 	c #5F00DD",
"o 	c #5000D9",
"p 	c #9500EB",
"q 	c #AF00F1",
"r 	c #8F00E9",
"s 	c #5D00DC",
"t 	c #6600DF",
"u 	c #6A00E0",
"v 	c #7300E2",
"w 	c #A700F0",
"x 	c #9D00ED",
"y 	c #9300EB",
"z 	c #2800CD",
"A 	c #4900D7",
"B 	c #9000EA",
"C 	c #8E00EA",
"D 	c #5200D9",
"E 	c #8200E6",
"F 	c #0000BA",
"G 	c #1000C9",
"H 	c #0000C4",
"I 	c #0D00C7",
"J 	c #BC00F4",
"K 	c #1C00CB",
"L 	c #8A00E8",
"M 	c #0000C1",
"N 	c #2000CC",
"O 	c #8700E7",
"P 	c #AE00F1",
"Q 	c #5600DB",
"R 	c #1E00CD",
"S 	c #0000BF",
"T 	c #A900F0",
"U 	c #A300EF",
"V 	c #C117F6",
"W 	c #8D00E9",
"X 	c #8B00E9",
"Y 	c #9700EB",
"Z 	c #8C00E8",
"` 	c #9900EB",
" .	c #3D00D3",
"..	c #CF42F8",
"+.	c #8500E7",
"@.	c #4000D4",
"#.	c #7F00E6",
"$.	c #7200E1",
"%.	c #0000C7",
"&.	c #B800F3",
"*.	c #7000E1",
"=.	c #C321F5",
"-.	c #C21EF6",
";.	c #7800E4",
">.	c #9E00ED",
",.	c #6400DF",
"'.	c #B300F2",
").	c #8300E6",
"!.	c #9700EC",
"~.	c #0000BB",
"{.	c #7D00E5",
"].	c #A200EE",
"  .   + @ # $ + % & * = = - ; # ",
"> , ' ) ! ~ { ] ^ / ( { _ : < [ ",
"} | 1 2 3 4 5 @ 6 2 7 ! 8 , } @ ",
"9 0 a b a c d e % f g h i j k l ",
"m ] . b n & o p 3 q r s t j u v ",
"n w x o i % v y ; z c 3 : 4 A B ",
"/ C ^ 7 D E   | h F G o e A > m ",
"H 5 ) I C J c K ) / @ [ = L 3 7 ",
"M 2 @ N O P Q : j R a ( > i ^ S ",
"A T b M / U V W X Y d M I Z ` ^ ",
"* u %  .5 ^   ..` +.> G Q C D [ ",
"7 * e 2 @.3 ^ #.v > / 2 d n * 7 ",
"$.K d b # Q > S [ %.^ ; : Q } v ",
"&.#.+ 2 e *.g 7 @ ^ o D $ k , =.",
", -.u N | ;.>.o t q ,./ e ~ '.8 ",
").!.P 3 ~.G {.D g b < ! #.].4 2 "};
