/* XPM */
static char * 23_nether_portal_xpm[] = {
"16 16 101 2",
"  	c #A500EF",
". 	c #9600EC",
"+ 	c #B100F2",
"@ 	c #5200D9",
"# 	c #0000BF",
"$ 	c #0D00C7",
"% 	c #7B00E5",
"& 	c #6300DE",
"* 	c #8200E6",
"= 	c #7300E2",
"- 	c #3C00D4",
"; 	c #6C00E0",
"> 	c #3D00D3",
", 	c #3A00D3",
"' 	c #0300C6",
") 	c #9500EB",
"! 	c #4E00D8",
"~ 	c #3100D0",
"{ 	c #6700DF",
"] 	c #8100E6",
"^ 	c #2600CE",
"/ 	c #5000D8",
"( 	c #3400D1",
"_ 	c #2400CD",
": 	c #8B00E9",
"< 	c #B300F2",
"[ 	c #5D00DC",
"} 	c #0000BD",
"| 	c #0000C2",
"1 	c #3000D1",
"2 	c #4200D5",
"3 	c #0000C0",
"4 	c #3300D2",
"5 	c #0000C1",
"6 	c #2D00D0",
"7 	c #6800DF",
"8 	c #0000BA",
"9 	c #1700CA",
"0 	c #0000BE",
"a 	c #4400D6",
"b 	c #2800CD",
"c 	c #6A00E0",
"d 	c #4000D4",
"e 	c #9C00EC",
"f 	c #5C00DD",
"g 	c #4B00D7",
"h 	c #6E00E1",
"i 	c #5400DA",
"j 	c #2000CC",
"k 	c #5F00DD",
"l 	c #6A00DF",
"m 	c #8D00E9",
"n 	c #7700E3",
"o 	c #6400DF",
"p 	c #7F00E6",
"q 	c #5A00DC",
"r 	c #7D00E5",
"s 	c #5900DB",
"t 	c #A200EE",
"u 	c #9300EB",
"v 	c #6000DE",
"w 	c #7100E2",
"x 	c #2A00CF",
"y 	c #3700D2",
"z 	c #5600DB",
"A 	c #8500E7",
"B 	c #1E00CD",
"C 	c #0000BC",
"D 	c #1400C8",
"E 	c #4600D7",
"F 	c #0000C4",
"G 	c #0000BB",
"H 	c #BA00F4",
"I 	c #0000C5",
"J 	c #9200EA",
"K 	c #C117F6",
"L 	c #4100D6",
"M 	c #0000C3",
"N 	c #9000EA",
"O 	c #B900F3",
"P 	c #8A00E8",
"Q 	c #9D00ED",
"R 	c #8700E7",
"S 	c #AB00F0",
"T 	c #8800E8",
"U 	c #BD0AF5",
"V 	c #A700F0",
"W 	c #8400E6",
"X 	c #2200CD",
"Y 	c #2B00CE",
"Z 	c #7000E1",
"` 	c #4700D6",
" .	c #1000C9",
"..	c #2E00CF",
"+.	c #BC00F4",
"@.	c #5700DA",
"#.	c #7A00E4",
"$.	c #B500F3",
"%.	c #B200F2",
"&.	c #A300EF",
"*.	c #1C00CB",
"  . + @ # $ % & * = - = ; > , ' ",
"$ ) ! $ ~ { ] ^ / ( _ : < [ } | ",
"- ( | 1 ~ @ 2 3 ^ 4 5 6 7 = ( 8 ",
"9 0 - a b c [ d = e f g h i & j ",
"$ j k a l m ; n o   p q r c s o ",
"f t u @ o 7 v w x ^ { y z n s p ",
"2 m ~ $ ! A u B ^ C D E s z y j ",
"F - G j u H z ' 3 j 5 I o J , 3 ",
"| E # _ : K o i n y L B M a E 5 ",
"i J 2 $ @ N O P P Q o C $ R S i ",
"| f q E @ ; T U V w 6 9 s W k ' ",
"3 X , Y i o ! W p ^ > 4 , & $ M ",
"Z ~ ` y  .L x ' F ' ..b , [ E r ",
"+.* i @.y f a F 5 2 2 , Z #.= $.",
"] U r y , n %.! 7 u ! ! o w   J ",
"i &.S g } $ Z a c f M ( R . & *."};
