/* XPM */
static char * 24_nether_portal_xpm[] = {
"16 16 109 2",
"  	c #9C00EC",
". 	c #9700EB",
"+ 	c #AF00F1",
"@ 	c #6400DF",
"# 	c #0000C1",
"$ 	c #1000C9",
"% 	c #8600E6",
"& 	c #7500E3",
"* 	c #8D00E9",
"= 	c #5900DB",
"- 	c #3100D0",
"; 	c #7100E2",
"> 	c #2000CC",
", 	c #2200CD",
"' 	c #2E00CF",
") 	c #9E00ED",
"! 	c #5200D9",
"~ 	c #2600CE",
"{ 	c #3400D1",
"] 	c #4B00D7",
"^ 	c #8400E6",
"/ 	c #2800CD",
"( 	c #5000D9",
"_ 	c #1700CA",
": 	c #0300C6",
"< 	c #8200E6",
"[ 	c #A800F0",
"} 	c #4E00D8",
"| 	c #0000BA",
"1 	c #1C00CB",
"2 	c #3700D2",
"3 	c #3000D1",
"4 	c #0000C0",
"5 	c #7A00E4",
"6 	c #6A00E0",
"7 	c #4100D6",
"8 	c #0000BE",
"9 	c #0800C8",
"0 	c #5D00DC",
"a 	c #6800DF",
"b 	c #5F00DD",
"c 	c #A500EF",
"d 	c #3F00D5",
"e 	c #6100DD",
"f 	c #5400DA",
"g 	c #3A00D3",
"h 	c #5A00DC",
"i 	c #6C00E0",
"j 	c #9A00EC",
"k 	c #7800E4",
"l 	c #7300E2",
"m 	c #3C00D4",
"n 	c #9F00EE",
"o 	c #7700E3",
"p 	c #9000EA",
"q 	c #6E00E1",
"r 	c #5000D8",
"s 	c #9700EC",
"t 	c #5600DB",
"u 	c #4700D6",
"v 	c #4400D6",
"w 	c #6300DE",
"x 	c #6700DF",
"y 	c #8100E6",
"z 	c #5700DA",
"A 	c #9800EC",
"B 	c #1E00CD",
"C 	c #8700E7",
"D 	c #8800E8",
"E 	c #0600B8",
"F 	c #2A00CF",
"G 	c #0100B9",
"H 	c #9400EB",
"I 	c #BB00F4",
"J 	c #2D00D0",
"K 	c #1400C8",
"L 	c #1900CC",
"M 	c #4900D7",
"N 	c #8E00EA",
"O 	c #A400EF",
"P 	c #8900E7",
"Q 	c #A300EF",
"R 	c #C013F5",
"S 	c #6000DE",
"T 	c #0D00C7",
"U 	c #AA00F0",
"V 	c #8A00E8",
"W 	c #C423F6",
"X 	c #CA35F8",
"Y 	c #9200EA",
"Z 	c #4600D7",
"` 	c #7B00E5",
" .	c #0000C2",
"..	c #9300EB",
"+.	c #8F00E9",
"@.	c #6E00E0",
"#.	c #4200D5",
"$.	c #4000D4",
"%.	c #0000C5",
"&.	c #B900F3",
"*.	c #0000BB",
"=.	c #8500E7",
"-.	c #7200E1",
";.	c #AE00F1",
">.	c #A200EE",
",.	c #7F00E6",
"'.	c #C933F7",
").	c #6A00DF",
"!.	c #0000C4",
"  . + @ # $ % & * = - ; ; > $ , ",
"' ) ! ~ { ] ^ / ( _ : < [ } | 1 ",
"2 3 ~ { { ~ ] 4 ( { 4 { 5 6 7 4 ",
"1 8 - 2 9 0 a b ; c d e @ f g / ",
"4 / h g i j k l m n o 0 p q r 0 ",
"h s 5 @ < a t l $ 1 u v w < x y ",
"z A 2 B ] C D > 1 E ' - F ! ( , ",
"4 g G _ H I v 4 1 J # K } y g 4 ",
"L M 4 1 N O = g P } t { 4 ' M 4 ",
"w * ! $ ! A Q i 5 R S 4 T ^ U f ",
": t 0 M @ x V W X Y F { Z ` r  .",
"# / Z $ } @ Z ..+.2 v m L r - 8 ",
"@.#.0 J : Z $.%.: / 7 L ] < ] ; ",
"&.C q f g ] 0 *.8 f F M =.y -.&.",
"; ;.C ] M x >.b e ,.Z S a @ P ; ",
"#.H '.S  .9 P b x = T ] ).Y M !."};
