/* XPM */
static char * 25_nether_portal_xpm[] = {
"16 16 109 2",
"  	c #9A00EC",
". 	c #A100EE",
"+ 	c #C82FF7",
"@ 	c #5F00DD",
"# 	c #0800C5",
"$ 	c #1C00CB",
"% 	c #8800E8",
"& 	c #8100E6",
"* 	c #8200E6",
"= 	c #5A00DC",
"- 	c #4200D5",
"; 	c #9700EC",
"> 	c #7A00E4",
", 	c #1000C9",
"' 	c #2000CC",
") 	c #3A00D3",
"! 	c #B300F2",
"~ 	c #6000DE",
"{ 	c #2D00D0",
"] 	c #5D00DC",
"^ 	c #7F00E6",
"/ 	c #0000C3",
"( 	c #0800C8",
"_ 	c #0000C0",
": 	c #5900DB",
"< 	c #2B00CE",
"[ 	c #4B00D7",
"} 	c #3400D1",
"| 	c #5600DB",
"1 	c #0D00C7",
"2 	c #0000C1",
"3 	c #3C00D4",
"4 	c #7000E1",
"5 	c #3F00D5",
"6 	c #2E00CF",
"7 	c #0000C2",
"8 	c #0300C6",
"9 	c #1700CA",
"0 	c #0000C4",
"a 	c #6300DE",
"b 	c #8A00E8",
"c 	c #9600EC",
"d 	c #AF00F1",
"e 	c #5200D9",
"f 	c #7100E2",
"g 	c #8500E7",
"h 	c #3700D2",
"i 	c #0000BD",
"j 	c #2200CD",
"k 	c #3100D0",
"l 	c #9D00ED",
"m 	c #6700DF",
"n 	c #6E00E1",
"o 	c #4E00D8",
"p 	c #9300EB",
"q 	c #5700DA",
"r 	c #8400E6",
"s 	c #2A00CF",
"t 	c #4400D6",
"u 	c #6100DD",
"v 	c #7D00E5",
"w 	c #4900D7",
"x 	c #5400DA",
"y 	c #5000D9",
"z 	c #A700EF",
"A 	c #6E00E0",
"B 	c #6A00DF",
"C 	c #0100B9",
"D 	c #2400CD",
"E 	c #1400C8",
"F 	c #0000BE",
"G 	c #A900F0",
"H 	c #0000BC",
"I 	c #5C00DD",
"J 	c #0000BB",
"K 	c #9200EA",
"L 	c #2600CE",
"M 	c #9000EA",
"N 	c #3000D1",
"O 	c #AA00F0",
"P 	c #4600D7",
"Q 	c #A200EE",
"R 	c #7800E4",
"S 	c #CB39F8",
"T 	c #0000C5",
"U 	c #8B00E9",
"V 	c #B900F3",
"W 	c #9400EB",
"X 	c #4000D4",
"Y 	c #5000D8",
"Z 	c #0000BF",
"` 	c #0000C7",
" .	c #9600EB",
"..	c #6400DF",
"+.	c #1E00CD",
"@.	c #6800DF",
"#.	c #6C00E0",
"$.	c #A600EF",
"%.	c #7B00E5",
"&.	c #3D00D3",
"*.	c #9C00EC",
"=.	c #B500F3",
"-.	c #A000ED",
";.	c #7500E3",
">.	c #8E00EA",
",.	c #CA35F8",
"'.	c #1400CB",
").	c #7700E3",
"!.	c #7300E2",
"  . + @ # $ % & * = - ; > , , ' ",
") ! ~ { - ] ^ ) ) / ( ^ ; ) _ $ ",
": ) < [ ( } | 1 ] ) 2 3 4 5 6 7 ",
"8 _ 5 9 0 a b | c d e f g h ' $ ",
"i j - k 4 l m n o p e q . r s : ",
"t g : u * v e e ( s w ' x p u : ",
"y z h 3 A 4 B $ 9 C D { E @ q 5 ",
"$ 3 F j . G 3 H ( < / } e I q 2 ",
") o J $ K d 3 L M u a N H ' m 9 ",
"q O [ P ] r Q 4 R S f 8 T > G I ",
"F x k w R * U V S W P w X I Y 7 ",
"Z - L ` - * n  .* [ ..< +.q j / ",
"m ..@.< 2 - P , ( { s 0 e g #.n ",
"$.^ ^ %.h k [ F Z &.< } *.b > G ",
"^ =.%.@.y : -.e o ;.x & g B * #.",
"P >.,.A 7 '.v A ).e j e ..!.q 0 "};
