/* XPM */
static char * 27_nether_portal_xpm[] = {
"32 32 109 2",
"  	c #A100EE",
". 	c #A700F0",
"+ 	c #C117F6",
"@ 	c #6A00E0",
"# 	c #0300C6",
"$ 	c #0000C5",
"% 	c #7100E2",
"& 	c #9000EA",
"* 	c #9800EC",
"= 	c #5900DB",
"- 	c #5000D8",
"; 	c #A300EF",
"> 	c #6A00DF",
", 	c #0800C5",
"' 	c #2B00CE",
") 	c #6700DF",
"! 	c #B500F3",
"~ 	c #7800E4",
"{ 	c #4400D6",
"] 	c #4B00D7",
"^ 	c #3F00D5",
"/ 	c #7700E3",
"( 	c #2800CD",
"_ 	c #4E00D8",
": 	c #0000C3",
"< 	c #0000C4",
"[ 	c #8100E6",
"} 	c #9C00EC",
"| 	c #3400D1",
"1 	c #0000BF",
"2 	c #1700CA",
"3 	c #6E00E0",
"4 	c #4100D6",
"5 	c #4000D4",
"6 	c #5200D9",
"7 	c #0D00C7",
"8 	c #4C00D7",
"9 	c #1900CC",
"0 	c #5F00DD",
"a 	c #3300D2",
"b 	c #3C00D4",
"c 	c #2000CC",
"d 	c #5A00DC",
"e 	c #9600EB",
"f 	c #6000DE",
"g 	c #A200EE",
"h 	c #5600DB",
"i 	c #9400EB",
"j 	c #8400E6",
"k 	c #3100D0",
"l 	c #2A00CF",
"m 	c #2E00CF",
"n 	c #0000C0",
"o 	c #3A00D3",
"p 	c #2200CD",
"q 	c #1C00CB",
"r 	c #7A00E4",
"s 	c #B200F2",
"t 	c #4900D7",
"u 	c #6C00E0",
"v 	c #A600EF",
"w 	c #3700D2",
"x 	c #8800E8",
"y 	c #AE00F1",
"z 	c #0000C1",
"A 	c #2400CD",
"B 	c #9E00ED",
"C 	c #6800DF",
"D 	c #9300EB",
"E 	c #3D00D3",
"F 	c #6400DF",
"G 	c #6300DE",
"H 	c #1000C9",
"I 	c #1E00CD",
"J 	c #4200D5",
"K 	c #8A00E8",
"L 	c #8F00E9",
"M 	c #0000BA",
"N 	c #2D00D0",
"O 	c #0000BC",
"P 	c #A900F0",
"Q 	c #0000C7",
"R 	c #8200E6",
"S 	c #0000C2",
"T 	c #3000D1",
"U 	c #8700E7",
"V 	c #8500E7",
"W 	c #A600F0",
"X 	c #5100DA",
"Y 	c #8D00E9",
"Z 	c #7F00E6",
"` 	c #B900F3",
" .	c #7D00E5",
"..	c #2600CE",
"+.	c #9500EB",
"@.	c #5000D9",
"#.	c #4600D7",
"$.	c #0000BB",
"%.	c #5400DA",
"&.	c #6E00E1",
"*.	c #7300E2",
"=.	c #9D00ED",
"-.	c #AA00F0",
";.	c #7B00E5",
">.	c #A300EE",
",.	c #5700DA",
"'.	c #8900E7",
").	c #AF00F1",
"!.	c #8600E6",
"  . + @ # $ % & * = - ; > # , '   . + @ # $ % & * = - ; > # , ' ",
") ! ~ { ] ^ / ( _ : < [ } | 1 2 ) ! ~ { ] ^ / ( _ : < [ } | 1 2 ",
"3 4 5 6 7 # 8 9 0 5 # { ] a ( < 3 4 5 6 7 # 8 9 0 5 # { ] a ( < ",
": # b c $ d e f & g h i j k l m : # b c $ d e f & g h i j k l m ",
"n o p q r s @ f t u 5 0 v ~ p o n o p q r s @ f t u 5 0 v ~ p o ",
"w x 6 u y % w { z A ^ 2 > B C _ w x 6 u y % w { z A ^ 2 > B C _ ",
"f D E = F G 0 p H 1 o I 2 F F 4 f D E = F G 0 p H 1 o I 2 F F 4 ",
"q J n w K L ^ M l { ( k N J = O q J n w K L ^ M l { ( k N J = O ",
"b ^ O A K P b Q [ ~ R p S I d ( b ^ O A K P b Q [ ~ R p S I d ( ",
"> e T 6 d U K u V + > , c 0 W - > e T 6 d U K u V + > , c 0 W - ",
"n - b X Y U Z ` +  .G _ ..G 0 1 n - b X Y U Z ` +  .G _ ..G 0 1 ",
": w q : 5 +.F ~ R @.0 ' n #.= S : w q : 5 +.F ~ R @.0 ' n #.= S ",
") /  .m $.b d ' A %.o S E ; ~ &.) /  .m $.b d ' A %.o S E ; ~ &.",
"y Z R *.c A @.# n { : t =.} > -.y Z R *.c A @.# n { : t =.} > -.",
";.>. .u ,.%.Y 6 _ r ^ Z '.0 0 f ;.>. .u ,.%.Y 6 _ r ^ Z '.0 0 f ",
"..B ).F # H *.!.R @.q %.h 0 | z ..B ).F # H *.!.R @.q %.h 0 | z ",
"  . + @ # $ % & * = - ; > # , '   . + @ # $ % & * = - ; > # , ' ",
") ! ~ { ] ^ / ( _ : < [ } | 1 2 ) ! ~ { ] ^ / ( _ : < [ } | 1 2 ",
"3 4 5 6 7 # 8 9 0 5 # { ] a ( < 3 4 5 6 7 # 8 9 0 5 # { ] a ( < ",
": # b c $ d e f & g h i j k l m : # b c $ d e f & g h i j k l m ",
"n o p q r s @ f t u 5 0 v ~ p o n o p q r s @ f t u 5 0 v ~ p o ",
"w x 6 u y % w { z A ^ 2 > B C _ w x 6 u y % w { z A ^ 2 > B C _ ",
"f D E = F G 0 p H 1 o I 2 F F 4 f D E = F G 0 p H 1 o I 2 F F 4 ",
"q J n w K L ^ M l { ( k N J = O q J n w K L ^ M l { ( k N J = O ",
"b ^ O A K P b Q [ ~ R p S I d ( b ^ O A K P b Q [ ~ R p S I d ( ",
"> e T 6 d U K u V + > , c 0 W - > e T 6 d U K u V + > , c 0 W - ",
"n - b X Y U Z ` +  .G _ ..G 0 1 n - b X Y U Z ` +  .G _ ..G 0 1 ",
": w q : 5 +.F ~ R @.0 ' n #.= S : w q : 5 +.F ~ R @.0 ' n #.= S ",
") /  .m $.b d ' A %.o S E ; ~ &.) /  .m $.b d ' A %.o S E ; ~ &.",
"y Z R *.c A @.# n { : t =.} > -.y Z R *.c A @.# n { : t =.} > -.",
";.>. .u ,.%.Y 6 _ r ^ Z '.0 0 f ;.>. .u ,.%.Y 6 _ r ^ Z '.0 0 f ",
"..B ).F # H *.!.R @.q %.h 0 | z ..B ).F # H *.!.R @.q %.h 0 | z "};
