/* XPM */
static char * 28_nether_portal_xpm[] = {
"32 32 105 2",
"  	c #7A00E4",
". 	c #A000ED",
"+ 	c #C62BF6",
"@ 	c #6E00E1",
"# 	c #1E00CD",
"$ 	c #1C00CB",
"% 	c #8100E6",
"& 	c #9600EC",
"* 	c #3C00D4",
"= 	c #5A00DC",
"- 	c #AA00F0",
"; 	c #6700DF",
"> 	c #0000C4",
", 	c #0000C5",
"' 	c #2400CD",
") 	c #6A00E0",
"! 	c #B900F3",
"~ 	c #6800DF",
"{ 	c #6400DF",
"] 	c #5900DB",
"^ 	c #3D00D3",
"/ 	c #4E00D8",
"( 	c #2200CD",
"_ 	c #4200D5",
": 	c #0000C0",
"< 	c #7500E3",
"[ 	c #8C00E8",
"} 	c #3400D1",
"| 	c #2800CD",
"1 	c #7000E1",
"2 	c #5200D9",
"3 	c #6A00DF",
"4 	c #1400CB",
"5 	c #0000C2",
"6 	c #3100D0",
"7 	c #6300DE",
"8 	c #3A00D3",
"9 	c #2000CC",
"0 	c #5400DA",
"a 	c #2600CE",
"b 	c #0D00C7",
"c 	c #4B00D7",
"d 	c #0000C3",
"e 	c #7300E2",
"f 	c #AB00F0",
"g 	c #5F00DD",
"h 	c #8500E7",
"i 	c #A900F0",
"j 	c #7F00E6",
"k 	c #1700CA",
"l 	c #0800C8",
"m 	c #3700D2",
"n 	c #0000BB",
"o 	c #2B00CE",
"p 	c #0000C1",
"q 	c #7100E2",
"r 	c #C423F6",
"s 	c #7D00E5",
"t 	c #4000D4",
"u 	c #2D00D0",
"v 	c #6600DF",
"w 	c #C117F6",
"x 	c #8200E6",
"y 	c #1900CC",
"z 	c #8B00E9",
"A 	c #4600D7",
"B 	c #BA00F3",
"C 	c #9300EB",
"D 	c #4900D7",
"E 	c #0000BD",
"F 	c #6000DE",
"G 	c #8F00E9",
"H 	c #4400D6",
"I 	c #5700DA",
"J 	c #1000C9",
"K 	c #0300C6",
"L 	c #5000D8",
"M 	c #2E00CF",
"N 	c #8D00E9",
"O 	c #5600DB",
"P 	c #8A00E8",
"Q 	c #9200EA",
"R 	c #9400EB",
"S 	c #3000D1",
"T 	c #0600B8",
"U 	c #7800E4",
"V 	c #8700E7",
"W 	c #6100DD",
"X 	c #D045F9",
"Y 	c #7B00E5",
"Z 	c #A300EF",
"` 	c #0800C5",
" .	c #A700F0",
"..	c #C525F6",
"+.	c #9700EC",
"@.	c #7700E3",
"#.	c #9000EA",
"$.	c #6C00E0",
"%.	c #0000BA",
"&.	c #0000BF",
"*.	c #A400EF",
"=.	c #8400E6",
"-.	c #A200EE",
";.	c #B800F3",
">.	c #4700D6",
"  . + @ # $ % & & * = - ; > , '   . + @ # $ % & & * = - ; > , ' ",
") ! ~ { ] ^ / ( _ : ' < [ } : | ) ! ~ { ] ^ / ( _ : ' < [ } : | ",
"1 2 3 1 4 5 ; 6 7 8 9 { 0 a _ | 1 2 3 1 4 5 ; 6 7 8 9 { 0 a _ | ",
"b ( c > d e f g & h / i j k l m b ( c > d e f g & h / i j k l m ",
"n o 6 p q r s t u e 6 v w x y | n o 6 p q r s t u e 6 v w x y | ",
"8 z A 0 B C 6 D E k | , F -   D 8 z A 0 B C 6 D E k | , F -   D ",
"j G H 7 j I _ y J p c K K L % / j G H 7 j I _ y J p c K K L % / ",
"M * E 6 N   a : H 8 ' D # } O > M * E 6 N   a : H 8 ' D # } O > ",
"A } : 6 P % * d Q < R S T l U 8 A } : 6 P % * d Q < R S T l U 8 ",
"1 V } F U W V ] @ X Y | M v Z F 1 V } F U W V ] @ X Y | M v Z F ",
"` O J c . x    ...+.@.F ' 6 2 5 ` O J c . x    ...+.@.F ' 6 2 5 ",
"K g 9 p A i s < #.~ q J p } ; J K g 9 p A i s < #.~ q J p } ; J ",
"$.@.P y E 2 q M } / 8 %._ Q e $.$.@.P y E 2 q M } / 8 %._ Q e $.",
"- 1 +.s o d 0 5 d _ &.t *.- W h - 1 +.s o d 0 5 d _ &.t *.- W h ",
"1 Q =.P I 8 ) 7 O / 6 Q -.D ] g 1 Q =.P I 8 ) 7 O / 6 Q -.D ] g ",
"k G ;.e a $ e +.[ 0 >.3 7 / u &.k G ;.e a $ e +.[ 0 >.3 7 / u &.",
"  . + @ # $ % & & * = - ; > , '   . + @ # $ % & & * = - ; > , ' ",
") ! ~ { ] ^ / ( _ : ' < [ } : | ) ! ~ { ] ^ / ( _ : ' < [ } : | ",
"1 2 3 1 4 5 ; 6 7 8 9 { 0 a _ | 1 2 3 1 4 5 ; 6 7 8 9 { 0 a _ | ",
"b ( c > d e f g & h / i j k l m b ( c > d e f g & h / i j k l m ",
"n o 6 p q r s t u e 6 v w x y | n o 6 p q r s t u e 6 v w x y | ",
"8 z A 0 B C 6 D E k | , F -   D 8 z A 0 B C 6 D E k | , F -   D ",
"j G H 7 j I _ y J p c K K L % / j G H 7 j I _ y J p c K K L % / ",
"M * E 6 N   a : H 8 ' D # } O > M * E 6 N   a : H 8 ' D # } O > ",
"A } : 6 P % * d Q < R S T l U 8 A } : 6 P % * d Q < R S T l U 8 ",
"1 V } F U W V ] @ X Y | M v Z F 1 V } F U W V ] @ X Y | M v Z F ",
"` O J c . x    ...+.@.F ' 6 2 5 ` O J c . x    ...+.@.F ' 6 2 5 ",
"K g 9 p A i s < #.~ q J p } ; J K g 9 p A i s < #.~ q J p } ; J ",
"$.@.P y E 2 q M } / 8 %._ Q e $.$.@.P y E 2 q M } / 8 %._ Q e $.",
"- 1 +.s o d 0 5 d _ &.t *.- W h - 1 +.s o d 0 5 d _ &.t *.- W h ",
"1 Q =.P I 8 ) 7 O / 6 Q -.D ] g 1 Q =.P I 8 ) 7 O / 6 Q -.D ] g ",
"k G ;.e a $ e +.[ 0 >.3 7 / u &.k G ;.e a $ e +.[ 0 >.3 7 / u &."};
