/* XPM */
static char * 28_nether_portal_xpm[] = {
"16 16 108 2",
"  	c #7700E3",
". 	c #9500EB",
"+ 	c #B400F3",
"@ 	c #6C00E0",
"# 	c #1700CA",
"$ 	c #2400CD",
"% 	c #6400DF",
"& 	c #8800E8",
"* 	c #7A00E4",
"= 	c #3F00D5",
"- 	c #6000DE",
"; 	c #A600F0",
"> 	c #5200D9",
", 	c #0000C0",
"' 	c #0800C5",
") 	c #1E00CD",
"! 	c #8500E7",
"~ 	c #C321F5",
"{ 	c #8400E6",
"] 	c #5400DA",
"^ 	c #2200CD",
"/ 	c #4900D7",
"( 	c #3400D1",
"_ 	c #4100D6",
": 	c #0000BF",
"< 	c #0800C8",
"[ 	c #7D00E5",
"} 	c #3700D2",
"| 	c #1000C9",
"1 	c #0000C5",
"2 	c #5600DB",
"3 	c #3300D2",
"4 	c #4400D6",
"5 	c #7300E2",
"6 	c #2A00CF",
"7 	c #2D00D0",
"8 	c #3100D0",
"9 	c #2000CC",
"0 	c #5000D9",
"a 	c #0000C2",
"b 	c #BA00F4",
"c 	c #A000ED",
"d 	c #8100E6",
"e 	c #4E00D8",
"f 	c #A300EF",
"g 	c #7F00E6",
"h 	c #0000BE",
"i 	c #0000C7",
"j 	c #6300DE",
"k 	c #7B00E5",
"l 	c #2B00CE",
"m 	c #6800DF",
"n 	c #2E00CF",
"o 	c #6100DD",
"p 	c #C628F6",
"q 	c #9400EB",
"r 	c #3A00D3",
"s 	c #7000E1",
"t 	c #B300F2",
"u 	c #8700E7",
"v 	c #0300C6",
"w 	c #0000BD",
"x 	c #5C00DD",
"y 	c #C933F7",
"z 	c #8F00E9",
"A 	c #4600D7",
"B 	c #4000D4",
"C 	c #4200D5",
"D 	c #5A00DC",
"E 	c #4B00D7",
"F 	c #0000C3",
"G 	c #3C00D4",
"H 	c #8900E7",
"I 	c #9D00ED",
"J 	c #0D00C7",
"K 	c #7800E4",
"L 	c #7100E2",
"M 	c #5D00DC",
"N 	c #6E00E0",
"O 	c #C321F6",
"P 	c #7500E2",
"Q 	c #1C00CB",
"R 	c #A900F0",
"S 	c #5700DA",
"T 	c #AF00F1",
"U 	c #A100EE",
"V 	c #AE00F1",
"W 	c #BC04F4",
"X 	c #9300EB",
"Y 	c #5000D8",
"Z 	c #9F00EE",
"` 	c #6E00E1",
" .	c #9000EA",
"..	c #8D00E9",
"+.	c #0000BB",
"@.	c #2800CD",
"#.	c #0100B9",
"$.	c #A500EF",
"%.	c #9E00ED",
"&.	c #AD00F0",
"*.	c #A200EE",
"=.	c #5900DB",
"-.	c #9200EA",
";.	c #AB00F0",
">.	c #3000D1",
",.	c #6A00DF",
"'.	c #9700EC",
").	c #6A00E0",
"  . + @ # $ % & * = - ; > , ' ) ",
"! ~ {   ] ^ / ( _ : < [   } , } ",
"{ ] *   | 1 2 / ! 3 4 5 6 # 7 8 ",
"# 9 0 a : 5 b   c d e f g ' 1 ( ",
"h ^ i a j + k l $ m n o p q | i ",
"r s r 5 t u < ( , ) v w x y u 7 ",
"z . r * 5 ( n 6 ' < r | a > . A ",
"B } , r u 5 7 h C e } D | l e a ",
"E C F n [ s G w q H I e , J K E ",
"2 * 0 L d M k e N O P } Q M R S ",
"a ( < } T U 2 V W X [ 5 # l Y , ",
"9 > # w 2 Z X ! z `  .( , } s ( ",
"{ H ..i +.G k ] } ` @.#._ $.& j ",
"{ K %.! # v E Q ' ( h B &.U > ..",
"E s s *.o G ` M =.0 ( -.;.} l M ",
"| . U [ C >.,.'.../ > ).e } ^ : "};
