/* XPM */
static char * 29_nether_portal_xpm[] = {
"16 16 108 2",
"  	c #7100E2",
". 	c #8A00E8",
"+ 	c #AE00F1",
"@ 	c #6400DF",
"# 	c #3300D2",
"$ 	c #2400CD",
"% 	c #8700E7",
"& 	c #7F00E6",
"* 	c #3C00D4",
"= 	c #7800E4",
"- 	c #A500EF",
"; 	c #5200D9",
"> 	c #0000BC",
", 	c #0000C5",
"' 	c #3400D1",
") 	c #9700EC",
"! 	c #C423F6",
"~ 	c #8C00E8",
"{ 	c #5F00DD",
"] 	c #0300C6",
"^ 	c #3000D1",
"/ 	c #3700D2",
"( 	c #3100D0",
"_ 	c #0000BD",
": 	c #1E00CD",
"< 	c #6E00E1",
"[ 	c #5000D9",
"} 	c #2800CD",
"| 	c #1000C9",
"1 	c #2D00D0",
"2 	c #8B00E9",
"3 	c #5C00DD",
"4 	c #0000C7",
"5 	c #0000BF",
"6 	c #6000DE",
"7 	c #7F00E5",
"8 	c #3A00D3",
"9 	c #4600D7",
"0 	c #8100E6",
"a 	c #4C00D7",
"b 	c #0800C8",
"c 	c #4E00D8",
"d 	c #5700DA",
"e 	c #0000C0",
"f 	c #7500E3",
"g 	c #5D00DC",
"h 	c #AB00F0",
"i 	c #9A00EC",
"j 	c #0000C4",
"k 	c #0000C3",
"l 	c #7300E2",
"m 	c #B200F3",
"n 	c #8400E6",
"o 	c #2200CD",
"p 	c #4900D7",
"q 	c #5900DB",
"r 	c #B900F3",
"s 	c #1400C8",
"t 	c #6800DF",
"u 	c #BA00F4",
"v 	c #2A00CF",
"w 	c #1900CC",
"x 	c #0D00C7",
"y 	c #BC00F4",
"z 	c #2E00CF",
"A 	c #7B00E5",
"B 	c #5A00DC",
"C 	c #8F00E9",
"D 	c #2B00CE",
"E 	c #4400D6",
"F 	c #1C00CB",
"G 	c #0000BB",
"H 	c #6300DE",
"I 	c #9200EA",
"J 	c #4B00D7",
"K 	c #2000CC",
"L 	c #0000BA",
"M 	c #6A00DF",
"N 	c #6600DF",
"O 	c #1700CA",
"P 	c #9F00EE",
"Q 	c #9300EB",
"R 	c #A800F0",
"S 	c #7D00E5",
"T 	c #8500E7",
"U 	c #B400F3",
"V 	c #4000D4",
"W 	c #2600CE",
"X 	c #9000EA",
"Y 	c #9C00EC",
"Z 	c #3F00D5",
"` 	c #7700E3",
" .	c #8E00EA",
"..	c #6A00E0",
"+.	c #8200E6",
"@.	c #9D00ED",
"#.	c #7200E1",
"$.	c #6E00E0",
"%.	c #0B00B7",
"&.	c #7A00E4",
"*.	c #C21AF6",
"=.	c #A300EF",
"-.	c #0000C1",
";.	c #C117F6",
">.	c #9900EB",
",.	c #9E00ED",
"'.	c #5600DB",
").	c #A100EE",
"  . + @ # $ @ % & * = - ; > , ' ",
") ! ~ & { ] ^ / ( _ : < [ } | 1 ",
"2 3 ~ @ 4 5 6 { 7 8 9 0 8 ] a [ ",
"b c d ] e f ! g %   @ h i , j / ",
"> } k k l m n o ' p : q r n s j ",
"/ < 1 t u f | v > w x e @ y = z ",
"A . B C l : D o o | E F G H I @ ",
"q 8 5 J 3 t K L { M B { s ] E ] ",
"N / ] 9 @ B O L P Q R 9 G ] n ; ",
"M t c S T ; { E H U n V W p n 6 ",
"x ( k / u X ; Y U X n S o O ; ] ",
"Z ` v e E h  ...+.A @.' 5 E #.# ",
"$.X i | L c . H * = F %.p R Q ..",
"&.q *.=.4 -./ | O K -.8 ;.Y d f ",
"c &.&.h &.} E B E V z >.,./ F q ",
"j % . & '.W $.i ).B c & * b D j "};
