/* XPM */
static char * 31_nether_portal_xpm[] = {
"32 32 117 2",
"  	c #6A00DF",
". 	c #8200E6",
"+ 	c #A600F0",
"@ 	c #7700E3",
"# 	c #3F00D5",
"$ 	c #2200CD",
"% 	c #5A00DC",
"& 	c #9300EB",
"* 	c #7500E3",
"= 	c #1C00CB",
"- 	c #7300E2",
"; 	c #9E00ED",
"> 	c #4600D7",
", 	c #0000BE",
"' 	c #0000C3",
") 	c #3A00D3",
"! 	c #A600EF",
"~ 	c #BD01F5",
"{ 	c #7F00E6",
"] 	c #A700F0",
"^ 	c #5D00DC",
"/ 	c #1700CA",
"( 	c #2D00D0",
"_ 	c #4400D6",
": 	c #0000C0",
"< 	c #2600CE",
"[ 	c #7100E2",
"} 	c #3100D0",
"| 	c #1900CC",
"1 	c #3700D2",
"2 	c #9800EC",
"3 	c #A100EE",
"4 	c #8B00E9",
"5 	c #0000C2",
"6 	c #5600DB",
"7 	c #9C00EC",
"8 	c #4200D5",
"9 	c #6C00E0",
"0 	c #7D00E5",
"a 	c #1000C9",
"b 	c #4B00D7",
"c 	c #2400CD",
"d 	c #6800DF",
"e 	c #B700F3",
"f 	c #6E00E1",
"g 	c #5400DA",
"h 	c #B900F3",
"i 	c #9000EA",
"j 	c #1400CB",
"k 	c #5000D9",
"l 	c #0100B9",
"m 	c #3000D1",
"n 	c #0300C6",
"o 	c #0000BD",
"p 	c #C529F6",
"q 	c #7A00E4",
"r 	c #0800C5",
"s 	c #AE00F1",
"t 	c #8D00E9",
"u 	c #5C00DD",
"v 	c #C21EF6",
"w 	c #8100E6",
"x 	c #0000C4",
"y 	c #0000BC",
"z 	c #0000C1",
"A 	c #5F00DD",
"B 	c #AF00F1",
"C 	c #8E00EA",
"D 	c #2A00CF",
"E 	c #8400E6",
"F 	c #8A00E8",
"G 	c #4E00D8",
"H 	c #9F00EE",
"I 	c #1400C8",
"J 	c #4000D4",
"K 	c #0800C8",
"L 	c #6600DF",
"M 	c #9600EC",
"N 	c #6700DF",
"O 	c #4900D7",
"P 	c #7000E1",
"Q 	c #0D00C7",
"R 	c #3300D2",
"S 	c #8700E7",
"T 	c #BE0FF5",
"U 	c #6A00E0",
"V 	c #5900DB",
"W 	c #4700D6",
"X 	c #9900EB",
"Y 	c #B000F2",
"Z 	c #6300DE",
"` 	c #8C00E8",
" .	c #BF06F5",
"..	c #5000D8",
"+.	c #A000ED",
"@.	c #3C00D4",
"#.	c #7200E1",
"$.	c #A200EE",
"%.	c #B100F1",
"&.	c #0000BB",
"*.	c #9700EC",
"=.	c #AA00F0",
"-.	c #0000BF",
";.	c #C21AF6",
">.	c #9700EB",
",.	c #AB00F0",
"'.	c #1E00CD",
").	c #3400D1",
"!.	c #2000CC",
"~.	c #AD00F0",
"{.	c #3D00D3",
"].	c #5700DA",
"^.	c #6400DF",
"/.	c #2B00CE",
"(.	c #A500EF",
"_.	c #8F00E9",
":.	c #9400EB",
"  . + @ # $ % & * = - ; > , ' )   . + @ # $ % & * = - ; > , ' ) ",
"! ~ { ] ^ / ( _ $ : < [ _ } | 1 ! ~ { ] ^ / ( _ $ : < [ _ } | 1 ",
"2   3 4 ' 5 6 { 7 8 9 0 a 5 b 6 2   3 4 ' 5 6 { 7 8 9 0 a 5 b 6 ",
"c _ - ' ' d e f 4 % g h i j : k c _ - ' ' d e f 4 % g h i j : k ",
"l m n o d p q | 1 b r ^ s t 5 ' l m n o d p q | 1 b r ^ s t 5 ' ",
"1 g $ u v w 5 x y m z , A B C D 1 g $ u v w 5 x y m z , A B C D ",
"E F G H w I | J K ) L n z A M u E F G H w I | J K ) L n z A M u ",
"N ) x O ^ # c x u A P d Q Q G ) N ) x O ^ # c x u A P d Q Q G ) ",
"9 R n g % g } y S s T 8 , / U d 9 R n g % g } y S s T 8 , / U d ",
"d V W M X _ # 6 V Y - Z # g ` N d V W M X _ # 6 V Y - Z # g ` N ",
"c < : b  .+ ..E +.- ; ` Q : > ' c < : b  .+ ..E +.- ; ` Q : > ' ",
"6 { $ o @.Y + f #.$.%.= &.R { g 6 { $ o @.Y + f #.$.%.= &.R { g ",
"q *.+.( , 1 =.f u . = -._ ;.>.% q *.+.( , 1 =.f u . = -._ ;.>.% ",
"* U ,.3 '.: O ).# !.: @.Y ~.{.A * U ,.3 '.: O ).# !.: @.Y ~.{.A ",
"@.].^.,.0 j 1 G > I /.(.2 c !.J @.].^.,.0 j 1 G > I /.(.2 c !.J ",
": Z _.[ u # % :.M 8 f :.# Q D -.: Z _.[ u # % :.M 8 f :.# Q D -.",
"  . + @ # $ % & * = - ; > , ' )   . + @ # $ % & * = - ; > , ' ) ",
"! ~ { ] ^ / ( _ $ : < [ _ } | 1 ! ~ { ] ^ / ( _ $ : < [ _ } | 1 ",
"2   3 4 ' 5 6 { 7 8 9 0 a 5 b 6 2   3 4 ' 5 6 { 7 8 9 0 a 5 b 6 ",
"c _ - ' ' d e f 4 % g h i j : k c _ - ' ' d e f 4 % g h i j : k ",
"l m n o d p q | 1 b r ^ s t 5 ' l m n o d p q | 1 b r ^ s t 5 ' ",
"1 g $ u v w 5 x y m z , A B C D 1 g $ u v w 5 x y m z , A B C D ",
"E F G H w I | J K ) L n z A M u E F G H w I | J K ) L n z A M u ",
"N ) x O ^ # c x u A P d Q Q G ) N ) x O ^ # c x u A P d Q Q G ) ",
"9 R n g % g } y S s T 8 , / U d 9 R n g % g } y S s T 8 , / U d ",
"d V W M X _ # 6 V Y - Z # g ` N d V W M X _ # 6 V Y - Z # g ` N ",
"c < : b  .+ ..E +.- ; ` Q : > ' c < : b  .+ ..E +.- ; ` Q : > ' ",
"6 { $ o @.Y + f #.$.%.= &.R { g 6 { $ o @.Y + f #.$.%.= &.R { g ",
"q *.+.( , 1 =.f u . = -._ ;.>.% q *.+.( , 1 =.f u . = -._ ;.>.% ",
"* U ,.3 '.: O ).# !.: @.Y ~.{.A * U ,.3 '.: O ).# !.: @.Y ~.{.A ",
"@.].^.,.0 j 1 G > I /.(.2 c !.J @.].^.,.0 j 1 G > I /.(.2 c !.J ",
": Z _.[ u # % :.M 8 f :.# Q D -.: Z _.[ u # % :.M 8 f :.# Q D -."};
