/* XPM */
static char * 31_nether_portal_xpm[] = {
"16 16 115 2",
"  	c #4600D7",
". 	c #9400EB",
"+ 	c #9A00EC",
"@ 	c #7D00E5",
"# 	c #5600DB",
"$ 	c #3A00D3",
"% 	c #5400DA",
"& 	c #9500EB",
"* 	c #6300DE",
"= 	c #0800C8",
"- 	c #7F00E6",
"; 	c #0000BF",
"> 	c #0000C0",
", 	c #BE0FF5",
"' 	c #9E00ED",
") 	c #7A00E4",
"! 	c #9D00ED",
"~ 	c #6800DF",
"{ 	c #0000C4",
"] 	c #2200CD",
"^ 	c #3D00D3",
"/ 	c #2800CD",
"( 	c #0000BE",
"_ 	c #5F00DD",
": 	c #5000D8",
"< 	c #A000ED",
"[ 	c #8200E6",
"} 	c #A900F0",
"| 	c #8100E6",
"1 	c #6400DF",
"2 	c #8B00E9",
"3 	c #9F00EE",
"4 	c #7500E3",
"5 	c #2600CE",
"6 	c #5200D9",
"7 	c #7100E2",
"8 	c #0000C2",
"9 	c #0000C5",
"0 	c #7300E2",
"a 	c #B000F2",
"b 	c #6E00E1",
"c 	c #9000EA",
"d 	c #5700DA",
"e 	c #0300C6",
"f 	c #4200D5",
"g 	c #0000C1",
"h 	c #3400D1",
"i 	c #0800C5",
"j 	c #7000E1",
"k 	c #BF13F6",
"l 	c #1700CA",
"m 	c #0000BD",
"n 	c #AA00F0",
"o 	c #8500E7",
"p 	c #0D00C7",
"q 	c #2E00CF",
"r 	c #4400D6",
"s 	c #6A00DF",
"t 	c #B300F2",
"u 	c #8800E8",
"v 	c #0000C3",
"w 	c #5A00DC",
"x 	c #C013F5",
"y 	c #8C00E8",
"z 	c #1000C9",
"A 	c #3F00D5",
"B 	c #A200EE",
"C 	c #5900DB",
"D 	c #0000C7",
"E 	c #5C00DD",
"F 	c #1C00CB",
"G 	c #7700E3",
"H 	c #6700DF",
"I 	c #4E00D8",
"J 	c #8400E6",
"K 	c #B700F3",
"L 	c #4B00D7",
"M 	c #A300EE",
"N 	c #2000CC",
"O 	c #3700D2",
"P 	c #8F00E9",
"Q 	c #1900CC",
"R 	c #BB00F4",
"S 	c #9300EB",
"T 	c #5000D9",
"U 	c #6000DE",
"V 	c #7800E4",
"W 	c #2A00CF",
"X 	c #1400C8",
"Y 	c #0000BC",
"Z 	c #4700D6",
"` 	c #C423F6",
" .	c #AB00F0",
"..	c #B800F3",
"+.	c #8E00EA",
"@.	c #6A00E0",
"#.	c #9800EC",
"$.	c #3C00D4",
"%.	c #9600EB",
"&.	c #3000D1",
"*.	c #AC00F1",
"=.	c #6E00E0",
"-.	c #AD00F0",
";.	c #1E00CD",
">.	c #0100B9",
",.	c #3100D0",
"'.	c #B400F3",
").	c #B200F2",
"!.	c #4900D7",
"~.	c #BF06F5",
"{.	c #9600EC",
"].	c #4100D6",
"^.	c #B500F3",
"/.	c #8300E6",
"(.	c #7B00E5",
"  . + @ # $ % & * = - + % ; >   ",
", ' ) ! ~ { ] ^ / ( / _ ^ / ^ : ",
"< [ } | > > 1 2 3   4 4 5 > 6 _ ",
"5 7 * 8 9 0 a b c d # a 2 e > f ",
"g h i ; j k ~ 8 ] l m # n o p 9 ",
"q r 8 s t u > e v r i 8 w x [ l ",
"y 7 : < c z v A l # _ 9 > r B C ",
"b 5 D E % ] F z j ~ G H F > r f ",
"@ h p I % % z ; J ' K w 8 v 0 * ",
"b L A M u ] N O H ' P 7 f $ G C ",
"Q h g 6 R S T U V 7 a . l v h W ",
"1 J X Y Z ` + _ -  ...N (   +.E ",
"@.} #.Q Y $.B V @.%.W g &...*.=.",
"T 1 -.. ;.>.$ L L ,.Y ,.'.).,.!.",
"&.$.H ~.{.p ] ].  e h ^.B l 9   ",
"Y =.H /.(.A % ' ! I G - F g 5 9 "};
