/* XPM */
static char * w21_xpm[] = {
"32 32 16 1",
" 	c #747CC0",
".	c #5F68B5",
"+	c #5E67B5",
"@	c #616AB6",
"#	c #5D66B4",
"$	c #6069B6",
"%	c #666FB9",
"&	c #737BBF",
"*	c #5B65B4",
"=	c #626BB7",
"-	c #6B73BB",
";	c #737ABF",
">	c #636CB7",
",	c #7077BD",
"'	c #868CCA",
")	c #848AC8",
" .+@##.+#$+.@ #% .+@##.+#$+.@ #%",
"&.+$*#..#=#.@-#%&.+$*#..#=#.@-#%",
";++.##+@#@#.@&#=;++.##+@#@#.@&#=",
">+++##+@.@#+=,#@>+++##+@.@#+=,#@",
"$+####.=.@#+&,#$$+####.=.@#+&,#$",
"+##+##@=.@#+,;#$+##+##@=.@#+,;#$",
"#.#+##@@.$##;%$$#.#+##@@.$##;%$$",
"..#+##@@..##->$$..#+##@@..##->$$",
".+#+*#$$+.##%>@$.+#+*#$$+.##%>@$",
"++*+**..+.##==@$++*+**..+.##==@$",
"+##>#*+.+$#+$@@.+##>#*+.+$#+$@@.",
"$##;#*#++$#++$@-$##;#*#++$#++$@-",
";$#;#*#++@++#.@%;$#;#*#++@++#.@%",
";$#-#*#++@++#.$-;$#-#*#++@++#.$-",
"'.+%#*##+$+.+,.-'.+%#*##+$+.+,.-",
").+%###+#$+.$;+%).+%###+#$+.$;+%",
" .+@##.+#$+.@ #% .+@##.+#$+.@ #%",
"&.+$*#..#=#.@-#%&.+$*#+.#=#.@-#%",
";++.##+@#@#.@&#=;++.##+@#@#.@&#=",
">+++##+@.@#+=,#@>+++##+@.@#+=,#@",
"$+##*#$>.$#+&;#$$+##*#$>.$#+&;#$",
"++#+*#@=.$#+,-#$++#+*#@=.$#+,-#$",
"+.#+*#@>..##;%$$+.#+*#@>..##;%$$",
"..#+*#@=..##->$$..#+*#@=..##->$$",
".+#+*#$$+.##%>@$.+#+*#$$+.##%>@$",
"++*+**..+.##==@$++*+**..+.##==@$",
"+##>#*+.+$#+$@@.+##>#*+.+$#+$@@.",
"$##;#*#++$#++$@-$##;#*#++$#++$@-",
";$#;#*#++@++#.@%;$#;#*#++@++#.@%",
";$#-#*#++@++#.$-;$#-#*#++@++#.$-",
"'.+%#*##+$+.+,.-'.+%#*##+$+.+,.-",
").+%###+#$+.$;+%).+%###+#$+.$;+%"};
