/* XPM */
static char * w22_xpm[] = {
"32 32 15 1",
" 	c #747CC0",
".	c #5F68B5",
"+	c #5E67B5",
"@	c #636CB7",
"#	c #5B65B4",
"$	c #5D66B4",
"%	c #616AB6",
"&	c #6069B6",
"*	c #737ABF",
"=	c #737BBF",
"-	c #626BB7",
";	c #6B73BB",
">	c #7077BD",
",	c #666FB9",
"'	c #5D67B5",
" .+@#$++$%$+&*+@ .+@#$++$%$+&*+@",
"=++%#$++$%$.% $@=++%#$++$%$.% $@",
"=++.#$++$-$.%;$-=++.#$++$-$.%;$-",
";+++$$+.+-$.&=#%;+++$$+.+-$.&=#%",
"-++$$$+&+-$+%>#&-++$$$+&+-$+%>#&",
".++$$$.&.-$+**$&.++$$$.&.-$+**$&",
"+++$$$&&.%$+;,$&+++$$$&&.%$+;,$&",
"$.$$$$&&.%$+,%&&$.$$$$&&.%$+,%&&",
"$+$$$$.&..$$@&&&$+$$$$.&..$$@&&&",
"$+$$##.&+.$$-&&.$+$$##.&+.$$-&&.",
"++$+##+.+.$$%.&+++$+##'.+.$$%.&+",
"++$-#$$.+&$$+.&&++$-#$$.+&$$+.&&",
"&$$*#$$++&$$$+&;&$$*#$$++&$$$+&;",
"*&$*#$#++-$$$+&,*&$*#$#++-$$$+&,",
"*.$;#$$$+%$$$.&,*.$;#$$$+%$$$.&,",
" .+,#$$$+%$++>., .+,#$$$+%$++>.,",
" .+@#$++$%$+&*+@ .+@#$++$%$+&*+@",
"=++%#$++$%$.% $@=++%#$++$%$.% $@",
"=++.#$++$-$.%;$-=++.#$++$-$.%;$-",
";+++$$+.+-$.&=#%;+++$$+.+-$.&=#%",
"-++$$$+&+-$+%>#&-++$$$+&+-$+%>#&",
"&+$$$$.%.%$+*>$&&+$$$$.%.%$+*>$&",
"+$$$$$&%.%$+;;$.+$$$$$&%.%$+;;$.",
"$.$$$$&%.&$$;-&.$.$$$$&%.&$$;-&.",
"$+$$$$.&..$$,%&.$+$$$$.&..$$,%&.",
"$+$$##.&+.$$@&&.$+$$##.&+.$$@&&.",
"++$+##+.+.$$%.&+++$+##+.+.$$%.&+",
"++$-#$$.+&$$+.&&++$-#$$.+&$$+.&&",
"&$$*#$$++&$$$+&;&$$*#$$++&$$$+&;",
"*&$*#$#++-$$$+&,*&$*#$#++-$$$+&,",
"*.$;#$$$+%$$$.&,*.$;#$$$+%$$$.&,",
" .+,#$$$+%$++>., .+,#$$$+%$++>.,"};
