/* XPM */
static char * 00_lava_still_xpm[] = {
"16 16 68 1",
" 	c #FF5D00",
".	c #FF1D00",
"+	c #FF1200",
"@	c #FF5900",
"#	c #FFA01F",
"$	c #FF9510",
"%	c #FF6E00",
"&	c #FF0000",
"*	c #FF4800",
"=	c #FF6800",
"-	c #FF4A00",
";	c #FF3B00",
">	c #FF3500",
",	c #FF7400",
"'	c #FF5600",
")	c #FF6B00",
"!	c #FF1500",
"~	c #FF6A00",
"{	c #FF7F00",
"]	c #FF7800",
"^	c #FF9003",
"/	c #FF7E00",
"(	c #FF7100",
"_	c #FF4400",
":	c #FF2D00",
"<	c #FF8500",
"[	c #FFEC66",
"}	c #FFB535",
"|	c #FF5200",
"1	c #FF3200",
"2	c #FF6300",
"3	c #FFB333",
"4	c #FFB836",
"5	c #FFB130",
"6	c #FF7600",
"7	c #FF8800",
"8	c #FF7000",
"9	c #FF4600",
"0	c #FF4200",
"a	c #FF8700",
"b	c #FF4E00",
"c	c #FF0200",
"d	c #FF3000",
"e	c #FF0D00",
"f	c #FF3800",
"g	c #FF2600",
"h	c #FF940B",
"i	c #FFA92A",
"j	c #FF6000",
"k	c #FF5400",
"l	c #FFA326",
"m	c #FF7B00",
"n	c #FFBB3B",
"o	c #FFB639",
"p	c #FF7500",
"q	c #FF7700",
"r	c #FF8600",
"s	c #FF5800",
"t	c #FF8100",
"u	c #FF9206",
"v	c #FFAC2B",
"w	c #FFAF2F",
"x	c #FFCF4B",
"y	c #FF9712",
"z	c #FF9D19",
"A	c #FF3F00",
"B	c #FFA825",
"C	c #FF9B17",
" .+@#$%+&&&.*@*=",
"=-;>,')&!~{.>]^/",
"(,_.&&&:& (&.<[}",
"(|+&&&12@&&&_345",
" &.&&!67890&*#,a",
"bcdce 7/f1/)&b-)",
"_gb_'hij&klm&'%|",
";gg+%nop&&'&&&&+",
" <|c&qrs&&&c&&&d",
"t^u*&&;&&&&}v&&%",
"aaw &&&&&&>xw&&2",
"&d;>/y&&&&&|d&&&",
">.&gz4.&&>)c&&c-",
"w/gb*A&&d_mc&&dB",
"nn%a>&&&&&d_t_+a",
"=%2C/b+&&&.(u]g_"};
