/* XPM */
static char * 01_lava_still_xpm[] = {
"16 16 66 1",
" 	c #FF5600",
".	c #FF1200",
"+	c #FF0200",
"@	c #FF5200",
"#	c #FF9206",
"$	c #FF8700",
"%	c #FF6300",
"&	c #FF0000",
"*	c #FF1D00",
"=	c #FF4400",
"-	c #FF6000",
";	c #FF6800",
">	c #FF5900",
",	c #FF4800",
"'	c #FF3F00",
")	c #FF3500",
"!	c #FF6900",
"~	c #FF4E00",
"{	c #FF2400",
"]	c #FF2E00",
"^	c #FF6D00",
"/	c #FF7A00",
"(	c #FF2600",
"_	c #FF6E00",
":	c #FF7400",
"<	c #FF0D00",
"[	c #FF7800",
"}	c #FFDD58",
"|	c #FFA525",
"1	c #FF3000",
"2	c #FF2D00",
"3	c #FF5400",
"4	c #FF3B00",
"5	c #FFAA2A",
"6	c #FFA01F",
"7	c #FF6B00",
"8	c #FF8200",
"9	c #FF3D00",
"0	c #FF3800",
"a	c #FF9D19",
"b	c #FF7B00",
"c	c #FF4A00",
"d	c #FF5000",
"e	c #FF7F00",
"f	c #FF2200",
"g	c #FF7000",
"h	c #FF4D00",
"i	c #FF8A00",
"j	c #FF9A19",
"k	c #FF5E00",
"l	c #FF9510",
"m	c #FF7100",
"n	c #FF6500",
"o	c #FFB130",
"p	c #FFA828",
"q	c #FF8C00",
"r	c #FF9003",
"s	c #FF0900",
"t	c #FFA825",
"u	c #FF8500",
"v	c #FFBD3C",
"w	c #FFA220",
"x	c #FF5D00",
"y	c #FFAF2F",
"z	c #FFB333",
"A	c #FF7E00",
" .+@#$%.&&+*=- ;",
">,')!~%{]^/.(_$:",
";:~)&&&)<>!&.[}|",
";@1.&&2>3&&&4556",
" +(&&&78;90&=a_b",
"c+(&&de/1fg-&~=-",
"'*=4hijk&,lm&~-c",
")*.+nop_&&~*&+&+",
"@[c&&mb~&&&.(&&1",
":qr=&s'&&&&5t++%",
"bu5 &&&&&&(vw&&x",
".(11:q+&&.&c(&&+",
"=(&(#5.&(=%+&&. ",
"t['@')&&)=m+&&(6",
"yz[$1&&&&&)':4+A",
"x%%rmc.&&&*7i_*,"};
