/* XPM */
static char * 02_lava_still_xpm[] = {
"16 16 60 1",
" 	c #FF4E00",
".	c #FF0200",
"+	c #FF0000",
"@	c #FF4A00",
"#	c #FF8700",
"$	c #FF7800",
"%	c #FF5D00",
"&	c #FF1D00",
"*	c #FF1200",
"=	c #FF3B00",
"-	c #FF6800",
";	c #FF6000",
">	c #FF3F00",
",	c #FF4400",
"'	c #FF3500",
")	c #FF4800",
"!	c #FF5900",
"~	c #FF3000",
"{	c #FF7000",
"]	c #FF7200",
"^	c #FF6300",
"/	c #FF7E00",
"(	c #FF6B00",
"_	c #FF7100",
":	c #FF0D00",
"<	c #FF3D00",
"[	c #FF2D00",
"}	c #FF5C00",
"|	c #FF6E00",
"1	c #FFC341",
"2	c #FF9206",
"3	c #FF2600",
"4	c #FF5200",
"5	c #FF9D19",
"6	c #FF9003",
"7	c #FF6500",
"8	c #FF7B00",
"9	c #FF3200",
"0	c #FF7700",
"a	c #FF2900",
"b	c #FF0900",
"c	c #FF5600",
"d	c #FF4200",
"e	c #FF8100",
"f	c #FF9109",
"g	c #FF5B00",
"h	c #FF4100",
"i	c #FFA927",
"j	c #FF9C1A",
"k	c #FF6600",
"l	c #FF4600",
"m	c #FF6D00",
"n	c #FF8C00",
"o	c #FFA220",
"p	c #FFAF2F",
"q	c #FF9510",
"r	c #FF8500",
"s	c #FF9712",
"t	c #FFAA2A",
"u	c #FF7400",
" .+@#$%&+***=-;-",
" >,'%)!~={]*&^/(",
"%_%):++<[!}++|12",
"% >':+34 +++'556",
" .'.++78;93+>5-|",
"@.*++)$0ab^c+@=c",
"'.=3defg+h#^+)c>",
"3..+%ijk++l~+&.+",
")(>++m_@+++3>+*3",
"-#n>+*h++++5o*3%",
"|/o4+.++++*pq++c",
"3&3~|r&+~3+,&++3",
"@~.&#s.+,4;+++*%",
"5_44'3++',(+++*s",
"5ter3++++.'>(~+u",
"4%^r^,.+++&;e-&@"};
