/* XPM */
static char * 03_lava_still_xpm[] = {
"16 16 42 1",
" 	c #FF4800",
".	c #FF0000",
"+	c #FF4400",
"@	c #FF7800",
"#	c #FF6B00",
"$	c #FF5200",
"%	c #FF1D00",
"&	c #FF3500",
"*	c #FF2600",
"=	c #FF1200",
"-	c #FF6E00",
";	c #FF3F00",
">	c #FF3B00",
",	c #FF5900",
"'	c #FF3000",
")	c #FF0200",
"!	c #FF7100",
"~	c #FF7400",
"{	c #FF6000",
"]	c #FF6800",
"^	c #FF5600",
"/	c #FFB333",
"(	c #FF8100",
"_	c #FF4E00",
":	c #FF4A00",
"<	c #FF6300",
"[	c #FF9206",
"}	c #FF8C00",
"|	c #FF7E00",
"1	c #FF8A00",
"2	c #FF9B17",
"3	c #FF8700",
"4	c #FF9510",
"5	c #FFAA2A",
"6	c #FFB937",
"7	c #FFB535",
"8	c #FF8500",
"9	c #FF9003",
"0	c #FF9D19",
"a	c #FF7B00",
"b	c #FF5D00",
"c	c #FFA01F",
" ..+@#$%.&*=&#-#",
";> &,;$')!!)),~{",
"$!]$=..'*^^..{/(",
"$_:+=.&<_...*[}|",
":=>).=~1-*%.>2{{",
" )).),3|>)|:.:'_",
"'.*=$45{.&1,.+ &",
"%...-67~.. ;.*).",
">{&..@8^...'_*'*",
",83>.)>....90*&$",
"{a0:.%*....03.._",
"&==*<a&) >.>=.)>",
"^'%=a3..^b,...=<",
"4#{^'=..>+<...)9",
"}c18=....)>>{%.#",
" ^<@^;)...%,ab=_"};
