/* XPM */
static char * 04_lava_still_xpm[] = {
"16 16 37 1",
" 	c #FF3B00",
".	c #FF0000",
"+	c #FF3500",
"@	c #FF6800",
"#	c #FF5900",
"$	c #FF4A00",
"%	c #FF1D00",
"&	c #FF0200",
"*	c #FF4400",
"=	c #FF3000",
"-	c #FF1200",
";	c #FF2600",
">	c #FF7100",
",	c #FF7800",
"'	c #FF6B00",
")	c #FF4E00",
"!	c #FF5200",
"~	c #FF5D00",
"{	c #FF3F00",
"]	c #FF5600",
"^	c #FF9D19",
"/	c #FF4800",
"(	c #FF8700",
"_	c #FF7E00",
":	c #FF8100",
"<	c #FF6300",
"[	c #FF9712",
"}	c #FF7B00",
"|	c #FFAF2F",
"1	c #FFA525",
"2	c #FF6E00",
"3	c #FF7400",
"4	c #FF8500",
"5	c #FF8A00",
"6	c #FF6000",
"7	c #FF8C00",
"8	c #FF9510",
" ..+@#$%&*=-;>,'",
"==$+)+$ +>'..)'!",
"*>>~%.. {]$..]^'",
"/$])=.;]/...-(_@",
"*%{-..':<-&.+[]!",
"*-...)},=.'{&/-*",
";.-./([~.%,).  %",
"&...<|1'..{/==&.",
";!;..23$... ~* ;",
"$_4+.-{....:[+{$",
"!3[*.=*-...5,..*",
"{-&%#2{+#*.=&.-$",
"6+;-23..@@!...%2",
"762]%...{*#....4",
"}88:&...&& +!&.6",
" $<'/+&...%)>]&)"};
