/* XPM */
static char * 05_lava_still_xpm[] = {
"16 16 36 1",
" 	c #FF3000",
".	c #FF0000",
"+	c #FF2600",
"@	c #FF5900",
"#	c #FF4800",
"$	c #FF3F00",
"%	c #FF5200",
"&	c #FF3500",
"*	c #FF0200",
"=	c #FF1D00",
"-	c #FF7800",
";	c #FF8500",
">	c #FF6B00",
",	c #FF4A00",
"'	c #FF3B00",
")	c #FF4400",
"!	c #FF7400",
"~	c #FF6300",
"{	c #FF6000",
"]	c #FF6E00",
"^	c #FF7B00",
"/	c #FF5600",
"(	c #FF5D00",
"_	c #FF9712",
":	c #FF4E00",
"<	c #FF1200",
"[	c #FF7100",
"}	c #FF8700",
"|	c #FFA220",
"1	c #FF9003",
"2	c #FF6800",
"3	c #FF8100",
"4	c #FF9206",
"5	c #FF7E00",
"6	c #FF8C00",
"7	c #FF9D19",
" ..+@#$++%&*=-;>",
"*+,'$+)##!~..){#",
"&]^>+..),%$..#;/",
"',{@'.=,$....^]%",
"'=#=..(!@... _:)",
"$<...$[!=./ *#.&",
"=...'-}@.*{). =*",
"..../|1{..&:)'*.",
"<)*..22)...$>/#=",
"'^3 .=)....[4'#$",
"#[4'.'/&...!>..'",
"#*.<%~##2,.=..+/",
"2' *{{.<!!,...=!",
"3@5@*...$#%....^",
"2673....*<$ #../",
" ){{& ..**+#>,*%"};
