/* XPM */
static char * 06_lava_still_xpm[] = {
"16 16 33 1",
" 	c #FF1D00",
".	c #FF0000",
"+	c #FF1200",
"@	c #FF4800",
"#	c #FF3500",
"$	c #FF3000",
"%	c #FF2600",
"&	c #FF3B00",
"*	c #FF5D00",
"=	c #FF0200",
"-	c #FF7B00",
";	c #FF8C00",
">	c #FF6B00",
",	c #FF4E00",
"'	c #FF5200",
")	c #FF5600",
"!	c #FF7800",
"~	c #FF6000",
"{	c #FF6E00",
"]	c #FF8500",
"^	c #FF7400",
"/	c #FF4A00",
"(	c #FF5900",
"_	c #FF6800",
":	c #FF6300",
"<	c #FF4400",
"[	c #FF3F00",
"}	c #FF9510",
"|	c #FF7E00",
"1	c #FF8A00",
"2	c #FF7100",
"3	c #FF8100",
"4	c #FFA525",
" ..+@#$%&*&=+-;>",
".+,&$+#')!~..&)&",
" {]^$../('#..&_&",
"$@>:<.+[#....{(&",
"$%/%..'>,...%}@$",
"[+...$:{=.[+=<. ",
"=...%_^)..@#. ..",
"..../}-).. ('[=.",
".$..=*)#...<-_' ",
"+!|%.%/....~;<'$",
"#{1#.<_@...*(..$",
",..+@)'(!).=..$~",
"2[#=,/.%]|@...%|",
"!'1(....<@@....2",
"'34|....++[$#..,",
"+#~'=%..++%[~[.)"};
