/* XPM */
static char * 07_lava_still_xpm[] = {
"16 16 35 1",
" 	c #FF0200",
".	c #FF0000",
"+	c #FF3500",
"@	c #FF1D00",
"#	c #FF2600",
"$	c #FF4400",
"%	c #FF6B00",
"&	c #FF3F00",
"*	c #FF8100",
"=	c #FF9712",
"-	c #FF6E00",
";	c #FF5200",
">	c #FF3B00",
",	c #FF1200",
"'	c #FF5900",
")	c #FF6300",
"!	c #FF7B00",
"~	c #FF4A00",
"{	c #FF9003",
"]	c #FF7E00",
"^	c #FF6800",
"/	c #FF4E00",
"(	c #FF4800",
"_	c #FF7100",
":	c #FF3000",
"<	c #FF6000",
"[	c #FF9206",
"}	c #FF5600",
"|	c #FF8700",
"1	c #FF7400",
"2	c #FF8500",
"3	c #FF7800",
"4	c #FF5D00",
"5	c #FF9510",
"6	c #FFAC2B",
" ...+ @#$%& .*=-",
". ;>,.#')!'..#~#",
".-{]+..;^/@..@(.",
",(__/..:#....<( ",
"@:/#..$<&...@[& ",
">,... }%..@. $..",
".....'<;..#,  ..",
"....&|<(.. <<$,.",
".,..,}$#...~|1'@",
"._!@.:/..../|('@",
",^2#.~3}...$(..@",
"}.. >~'%|4....+%",
"!&>.&:.+[|&...#2",
"-~54....((&....^",
">16]....@,$#@..$",
".#<$.,..#,#:}+.'"};
