/* XPM */
static char * 08_lava_still_xpm[] = {
"16 16 37 1",
" 	c #FF0000",
".	c #FF0200",
"+	c #FF3000",
"@	c #FF4E00",
"#	c #FF7400",
"$	c #FF4800",
"%	c #FF8700",
"&	c #FFA01F",
"*	c #FF6E00",
"=	c #FF5600",
"-	c #FF3B00",
";	c #FF1200",
">	c #FF6300",
",	c #FF7100",
"'	c #FF7E00",
")	c #FF5200",
"!	c #FF3F00",
"~	c #FF6B00",
"{	c #FF9712",
"]	c #FF8A00",
"^	c #FF5900",
"/	c #FF7B00",
"(	c #FF2600",
"_	c #FF3500",
":	c #FF9206",
"<	c #FF4400",
"[	c #FF7800",
"}	c #FF4A00",
"|	c #FF8500",
"1	c #FF8100",
"2	c #FF6000",
"3	c #FF5D00",
"4	c #FF9510",
"5	c #FF6800",
"6	c #FF8C00",
"7	c #FFB333",
"8	c #FF1D00",
"    .  +@#$  %&*",
"  =-  ;>,')  .!.",
" ~{]-  ^,@    . ",
" $//=  ;;    @( ",
".+)+  _)+   ;:_ ",
"_;    $>    .<  ",
"     $$@    .   ",
"    ([$-   ~*$; ",
"    ;}(.   @:|>;",
" *#;;-)    _1@2 ",
" >'; )]>   ;+  .",
"3   (->/45    -#",
"|<< (  !&:_   +6",
"2<&3    $$+    3",
".57'    (8<8   _",
" .2+ .  +8(8}8 3"};
