/* XPM */
static char * 09_lava_still_xpm[] = {
"16 16 38 1",
" 	c #FF0000",
".	c #FF3000",
"+	c #FF5900",
"@	c #FF8100",
"#	c #FF4A00",
"$	c #FF8A00",
"%	c #FFAA2A",
"&	c #FF6E00",
"*	c #FF3B00",
"=	c #FF6B00",
"-	c #FF7E00",
";	c #FF4E00",
">	c #FFA01F",
",	c #FF9206",
"'	c #FF3F00",
")	c #FF6000",
"!	c #FF4400",
"~	c #FF8500",
"{	c #FF5D00",
"]	c #FF3500",
"^	c #FF1200",
"/	c #FF4800",
"(	c #FF0200",
"_	c #FF9003",
":	c #FF2600",
"<	c #FF6800",
"[	c #FF7100",
"}	c #FF7B00",
"|	c #FF1D00",
"1	c #FF5600",
"2	c #FF9D19",
"3	c #FF7800",
"4	c #FF9510",
"5	c #FFA220",
"6	c #FFAC2B",
"7	c #FF9B17",
"8	c #FF5200",
"9	c #FFB937",
"       .+@#  $%&",
"  +*   =-@;   . ",
" =>,'  )-#      ",
" !~~{        '  ",
" ]+]  ^/^   (_: ",
".^    ]{    ('  ",
"     .:#    ^   ",
"    (<^:   [};^ ",
"    |!     12,=^",
" <[(|'1    ^-1< ",
" {3( 14[        ",
")   ^:=$5&    !-",
"$//    !67.   .,",
"1*6)    #/|    8",
" +9}    .|/^   |",
"  )(   (*::(!( )"};
