/* XPM */
static char * 10_lava_still_xpm[] = {
"16 16 31 1",
" 	c #FF0000",
".	c #FF1B00",
"+	c #FF4000",
"@	c #FF6F00",
"#	c #FF3300",
"$	c #FF0D00",
"%	c #FF7500",
"&	c #FF9600",
"*	c #FF5500",
"=	c #FF6000",
"-	c #FF6B00",
";	c #FF3900",
">	c #FF5100",
",	c #FF8D00",
"'	c #FF8300",
")	c #FF2400",
"!	c #FF4E00",
"~	c #FF2A00",
"{	c #FF7D00",
"]	c #FF4900",
"^	c #FF4500",
"/	c #FF5C00",
"(	c #FF6300",
"_	c #FF8A00",
":	c #FF8000",
"<	c #FF3100",
"[	c #FF6600",
"}	c #FF8700",
"|	c #FF8F00",
"1	c #FF9900",
"2	c #FFA801",
"       .+@#$ %&*",
"  +.   =-@;     ",
" >,')  !-#      ",
" ~@@+        )  ",
" .+.   ~     {. ",
".     .]     )  ",
"       ^        ",
"     ! .   /(#  ",
"     ~     ;_:> ",
" !/ $<;     [+* ",
" +=  ]}*        ",
"^   $)*%|=    ~[",
"%~~    ~1}    $:",
"^)1^    <~     +",
" +2[    $ ~     ",
"  !     )   ;  ^"};
