/* XPM */
static char * 11_lava_still_xpm[] = {
"16 16 29 1",
" 	c #FF0000",
".	c #FF0D00",
"+	c #FF2400",
"@	c #FF4000",
"#	c #FF6600",
"$	c #FF3300",
"%	c #FF3100",
"&	c #FF6B00",
"*	c #FF8A00",
"=	c #FF4900",
"-	c #FF1B00",
";	c #FF6000",
">	c #FF6300",
",	c #FF3900",
"'	c #FF4500",
")	c #FF8000",
"!	c #FF7900",
"~	c #FF7200",
"{	c #FF2A00",
"]	c #FF5100",
"^	c #FF4E00",
"/	c #FF5500",
"(	c #FF7D00",
"_	c #FF8700",
":	c #FF5C00",
"<	c #FF6F00",
"[	c #FF7500",
"}	c #FF8D00",
"|	c #FF9E00",
"      .+@#$%+&*=",
"  @.  -;>#,.    ",
" ')!.  =>$      ",
" +>>$        -  ",
"-.,.   +     ~{ ",
"-     .=     .  ",
"       ]        ",
"     @ %+  ^/{  ",
"     +     $(~' ",
" '/ .$$     ;@/ ",
" $/ -/)^ -      ",
",   {$]&_>    {:",
"<+-    +*!    .[",
"'+},    {-     ,",
" ,|;      -     ",
"  ^     -   '- @"};
