/* XPM */
static char * 12_lava_still_xpm[] = {
"16 16 24 1",
" 	c #FF0000",
".	c #FF2400",
"+	c #FF3900",
"@	c #FF6000",
"#	c #FF3300",
"$	c #FF4500",
"%	c #FF6300",
"&	c #FF7900",
"*	c #FF4000",
"=	c #FF2A00",
"-	c #FF5C00",
";	c #FF3100",
">	c #FF7200",
",	c #FF4900",
"'	c #FF0D00",
")	c #FF1B00",
"!	c #FF5500",
"~	c #FF6600",
"{	c #FF4E00",
"]	c #FF5100",
"^	c #FF7D00",
"/	c #FF6F00",
"(	c #FF8000",
"_	c #FF9200",
"      ..+@#$#%&*",
"  +   =%-@#;    ",
" +>>   ,-#      ",
"')!!=        '  ",
"='#'   )'    ~#=",
".  '  ',       .",
"       @)       ",
"     # ++) ${.  ",
"     '     =>~+ ",
" +{ )+=     ]$! ",
" =,';@&$'+=   ' ",
";   #*{@&%'   .]",
"%'' '  )^/    '/",
",)(;    .'     +",
" #_!      '  .  ",
"  {  '' )   {. +"};
