/* XPM */
static char * 13_lava_still_xpm[] = {
"16 16 22 1",
" 	c #FF0000",
".	c #FF2400",
"+	c #FF3300",
"@	c #FF2A00",
"#	c #FF3900",
"$	c #FF5500",
"%	c #FF4900",
"&	c #FF6600",
"*	c #FF5100",
"=	c #FF4500",
"-	c #FF0D00",
";	c #FF3100",
">	c #FF6000",
",	c #FF1B00",
"'	c #FF5C00",
")	c #FF4000",
"!	c #FF6B00",
"~	c #FF6300",
"{	c #FF7200",
"]	c #FF4E00",
"^	c #FF6F00",
"/	c #FF8700",
"     .+@#$+$%$&+",
"  #   #&*$+=-   ",
" ;>&   =*+      ",
".-%%,           ",
"+-;    --    '))",
".  ;   %       #",
"       !;       ",
"     . %*; #)-  ",
"           .~$; ",
" ;= ,).     %=$ ",
" ,),#!{+.*=  ,. ",
".   )]%*^&,   ,=",
"'   ,  -!>    -~",
"%,^.    ,      #",
" ;/]        ,#  ",
"  ]- ,. -  -$; ;"};
