/* XPM */
static char * 16_lava_still_xpm[] = {
"16 16 24 1",
" 	c #FF0000",
".	c #FF4E00",
"+	c #FF5500",
"@	c #FF3900",
"#	c #FF3100",
"$	c #FF3300",
"%	c #FF8300",
"&	c #FF7900",
"*	c #FF2A00",
"=	c #FF1B00",
"-	c #FF5C00",
";	c #FF6F00",
">	c #FF4000",
",	c #FF2400",
"'	c #FF4900",
")	c #FF4500",
"!	c #FF0D00",
"~	c #FF5100",
"{	c #FF6000",
"]	c #FF6600",
"^	c #FF8A00",
"/	c #FF8000",
"(	c #FF7D00",
"_	c #FF6B00",
"     .+@#@$%&#* ",
"  #  =-;$$$;>   ",
"  ,'  ,>$#      ",
") !            =",
"~ !     ,    $-;",
"#  {   .      ,]",
"      !^-#    $@",
"       ]/-      ",
"         ,  *,  ",
"  *!*.   ,  =)+ ",
"   ${%{ @^(! '' ",
"    {;$,>_@     ",
"$   $   **     >",
"~=$          , $",
" ,-#        >], ",
" ,', @)    ,_. !"};
