/* XPM */
static char * 18_lava_still_xpm[] = {
"16 16 30 1",
" 	c #FF0000",
".	c #FF6600",
"+	c #FF6B00",
"@	c #FF4000",
"#	c #FF2A00",
"$	c #FF2400",
"%	c #FF3300",
"&	c #FF9C00",
"*	c #FF8F00",
"=	c #FF3100",
"-	c #FF6F00",
";	c #FF7200",
">	c #FF1B00",
",	c #FF8700",
"'	c #FF5500",
")	c #FF3900",
"!	c #FF5C00",
"~	c #FF8A00",
"{	c #FF7900",
"]	c #FF4E00",
"^	c #FF8000",
"/	c #FF0D00",
"(	c #FF7500",
"_	c #FF4500",
":	c #FF5100",
"<	c #FF9900",
"[	c #FF4900",
"}	c #FF9200",
"|	c #FFA600",
"1	c #FF6000",
"     .+@#$%&*   ",
"  #  =-;>>=,'   ",
"   =  %)>=      ",
"!              %",
".       #     +~",
"% ${$  ]      %^",
"      /&(_    ]:",
"       {<(      ",
"         %      ",
"  />='   )>  [' ",
"   @;}] [|<# 1! ",
"   /;^# /-[     ",
"/   _$         $",
"'/           %$=",
" /%/        :^% ",
" =[# [:/   #{!  "};
