/* XPM */
static char * 19_lava_still_xpm[] = {
"16 16 32 1",
" 	c #FF0000",
".	c #FF7200",
"+	c #FF4500",
"@	c #FF2400",
"#	c #FF0D00",
"$	c #FF3300",
"%	c #FFA600",
"&	c #FF9C00",
"*	c #FF7500",
"=	c #FF3100",
"-	c #FF9200",
";	c #FF6000",
">	c #FF3900",
",	c #FF6300",
"'	c #FF4000",
")	c #FF6F00",
"!	c #FF9600",
"~	c #FF2A00",
"{	c #FF8700",
"]	c #FF4E00",
"^	c #FF8A00",
"/	c #FFA400",
"(	c #FF8000",
"_	c #FF5500",
":	c #FF5C00",
"<	c #FF1B00",
"[	c #FF4900",
"}	c #FF7900",
"|	c #FF9900",
"1	c #FFB119",
"2	c #FF6B00",
"3	c #FF8D00",
"     ..+@#$%&   ",
"  @  $**  =-;   ",
"   @  >$ = #    ",
",              '",
")       =     .!",
"> ~{~  ]      '^",
"      #/(]    _:",
"       (/(      ",
"  #      '      ",
"   <=:   +@  [_ ",
"   +}|+ ]1%= 2, ",
"   <}^@  )]     ",
"    [~          ",
"_#           '~=",
"  <         :3' ",
" $[= ]:#   =(,  "};
