/* XPM */
static char * black_concrete_xpm[] = {
"128 128 13 1",
" 	c #010307",
".	c #02040A",
"+	c #020409",
"@	c #010306",
"#	c #010206",
"$	c #010308",
"%	c #020308",
"&	c #03040A",
"*	c #020309",
"=	c #030409",
"-	c #020408",
";	c #02050A",
">	c #020307",
"        .+++++++++++++++@#@@@@@@   $            %%%%%%%%@@@@@@  %%%%%%%%%%%%%%%% @@ @@@@        %%%%%%%%%%%%%%%%&&&+&.&+%%%%%%%%",
"        ++++++.+++++++++@   @@@@                %%%%%%%%@@@@@ @@%%%%%%%%%%%%+%%%  @@@@@@        %%%%%%%%%%%%%%%%.&..&&&.%%%%%%%%",
"        +.++++.+++++++++@@@  @@@$               %%%%%%%%@@ @@@ @%%%%%%%%%%%%%%%%   @@@@@        %%%%%%%%%%%%%%%%+++.&&++%%%%%%%%",
"        +++++++&.+++++++ @@@@  @                %%%%%%%%@@@@@@@ %%%%%%%%%%%%%%%% @@ @@@@        %%%%%%%%%%%%%%%%..+.&+++%%%%%%%%",
"        +.++++++++++&+++                        %%%%%%%%@@@@@@@@%%%%%%%%%%%%%%%% @     @        %%%%%%%%%%%%%%%%.+.&+&++%%%%%%%%",
"        +.++++++++++..++@@   @ @                %%%%%%%%@@@@@@@@%%%%%%%%%%%%%%%%   @@ @@        %%%%%%%%%%%%%%%%.+&&...+%%%%%%*%",
"        .++++++++++..&&. @   @@                 %%%%%%%% @@@@@@@%%%%%%%%%%%%%%%%@               %%%%%%%%%*%%%%%%.+&.+&&.%%%%%%%%",
"        .&+++++++++++.&+ @@@  @@                %%%%%%%%@@@@   @%%%%%%%%%%%%%%%%    @@@         %%%%%%%%%%%%%%%%++++&&.+%%%%%%%%",
"....+&&&  @@@@  .++++++.        ++..++.+@@@@@@@@@@@@ @@@%%%%%%%%%%%%%%%%                %%%%%%%%%%%%%%%%        %%%%%%%%        ",
"&..&&&&+   @@@@@++++++++        ++++++++@@@@@@@@@ @ @@@ %%%%%%*%%%%%%%%%                %%%%%%%%%%%%%%%%        %%%%%%%%        ",
"&+&&..&+   @@@@ .++++++.        &.+++.++@@@@@@@@@ @@@@@@%%%%%%%%%%%%%%%%                %%%%%%%%%%%%%%%%        %%%%%%%%        ",
"&&&++..& @@   @@.+++++&+        .++++..+@@@@@@ @@@@@@ @ %%%%%%%%%%%%%%%%                %%%%%%%%%%%%%%%%        %%%%%%%%        ",
"&&&.&&++   @  @ .+.++..+        &.+&.+..@@@@  @  @@  @@ %%%%%%%%%%%%%%%%                %%%%%%%%%%%%%%%%        %%%%%%%%        ",
"+..++.++ @ @@  @+++.++++        +.++++..@@@@ @@ @   @ @@%%%%%%%%%%%%%%%%                %%%%%%%%%%%%%%%%        %%%%%%%%        ",
".+..++++@@    @ ++.+++++        +++.&.+.@@@@@@   @ @    %%%%%%%%%%%%%%%%                %%%%%%%%%%%%%%%%        %%%%%%%%        ",
"+++.++++        ++&..+++        ++++++++@@@@@@@@@       %%%%%%%%%%%%%%%%                %%%%%%%%%%%%%%%%        %%%%%%%%        ",
"                    @@@ &..+++++%%%%%%%%%%%%%%%%@ @@  @ &.&&++++  @@ @ @           @    @@@@@@@ %%%%%%%%%%%%%%%%@ @ @@@@        ",
"                @ @@  @@&.&&++++%%%%%%%%%%%%%%%%   @  @@+++..+++@  @@  @ $       @      @@@@@ @@%%%%%%%%%%%%%%%% @@@@@@@        ",
"                @@  @@@@++=&.+++%%%%%%%%%%%%%%%%  @  @@@.+++&.++@@@@@@     $    @@@@ @@@@ @@@@ @%%%%%%%%%%%%%%%% @@@@@@@        ",
"                 @@@@   ++.&.+++%%%%%%%%%%%%%%%%  @@@ @@+.&+&+++@@@@@@          @@@ @@@  @  @ @@%%%%%%%%%%%%%%%%@@@@@@@@        ",
"                   @ @@ ++++.&&&%%%%%%%%%%%%%%%%@@@@@@ @..+.&.++@@@@@@@@        @@@@@@@@ @@@@@@@%%%%%%%%%%%%%%%%   @@@@@        ",
"                   @@ @@++++....%%%%%%%%%%%%%%%%@@@@@@  +....+++@@@@@@@@        @@@@@@@@@@@@@@ @%%%%%%%%%%%%%%%%@@ @@@@@        ",
"                  @@@@@@++++.+..%%%%%%%%%%%%%%%%@@@@@@@@++++++++@@@@@@@@        @@@@@@@@@@@@@@ @%%%%%%%%%%%%%%%%@   @@@@        ",
"                @   @   ++.&+..+%%%%%%%%%%%%%%%%@@    @ +++++..+@@@@@@@@         @@@@ @@@@  @ @@%%%%%%%%%%%%%%%%       @        ",
"%%%%%%%%        %%%%%%%%%%%%%%%%@@ @@@@@        %%%%%%%%%%%%%%%%%%%%%%%%%%%%%%%%++++++.+%%%%%%%%        %%%%%%%%%%%%%%%%        ",
"%%%%%%%%        %%%%%%%%%%%%%%%%@@@@ @@@        %%%%%%%%%%%%%%%%%%%%%%%%%%%%%%%%+++++++.%%%%%%%%        %%%%%%%%%%%%%%%%        ",
"%%%%%%%%        %%%%%%%%%%%%%%%%@@ @@@@@        %%%%%%%%%%%%%%%%%%%%%%%%%%%%%%%%.+...++.%%%%%%%%        %%%%%%%%%%%%%%%%        ",
"%%%%%%%%        %%%%%%%%%%%%%%%% @@@@@@@        %%%%%%%%%%%%%%%%%%%%%%%%%%%%%%%%&..+.+++%%%%%%%%        %%%%%%%%%%%%%%%%        ",
"%%%%%%%%        %%%%%%%%%%%%%%%%@@@@@@@@        %%%%%%%%%%%%%%%%%%%%%%%%%%%%%%%%+++.&.++%%%%%%%%        %%%%%%%%%%%%%%%%        ",
"%%%%%%%%        %%%%%%%%%%%%%%%%@@@@            %%%%%%%%%%%%%%%%%%%%%%%%%%%%%%%%.+++.&+.%%%%%%%%        %%%%%%%%%%%+%%%%        ",
"%%%%%%%%        %%%%%%%%%%%%%%%%@@@@  @@        %%%%%%%%%%%%%%%%%%%%%%%%%%%%%%%%+++++++.%%%%%%%%        %%%%%%%%%%%%%%%%        ",
"%%%%%%%%        %%%%%%%%%%%%%%%%@@@@@ @@     $  %%%%%%%%%%%%%%%%%%%%%%%%%%%%%%%%++++.+++%%%%%%%%        %%%%%%%%%%%%%%%%        ",
"   @@@@@                %%%%%%%%%%%%%%%%.++&&+&+%%%%%%%%        +.++.&+.@@@  @@ ++++++++@@@@@@             @@@          @@@ @   ",
"  @ @@@@                %%%%%%%%%%%%%%%%++++&+++%%%%%%%%        +.++++++ @@@@ @ ...+.+++@@@@@@@@           @ @@         @@@@@@  ",
"  @   @@                %%%%%%%%%%%%%%%%+++.+.++%%%%%%%%        +.++++++@@@ @@@ ++.+.+++@@@@ @            @@@@@         @@@@@@@ ",
"@@ @ @@                 %%%%%%%%%%%%%%%%+.+.++++%%%%%%%%    $   +.+++.+- @@@@  @++++...+@  @@@@         @@@@@@@@        @@@ @@@@",
"  @@@ @@                %%%%%%%%%%%%%%%%++.++.++%%%%%%%%        ++.++.;; @@@@@@ +..+.+++@@@@@@@@        @@@@@@@@        @@@@@   ",
" @@@@@@@                %%%%%%%%%%%%%%%%.+.+++&.%%%%%%%%        ++++++++   @@@@ ++....++@  @@  @         @@@@@@@        @@@@@@  ",
"@  @@@@@                %%%%%%%%%%%%%%%%+++++++.%%%%%%%%        +.+&.... @@@@@  &.&.+&++@@@@@@@         @@@             @@@ @@@@",
"   @   @                %%%%%%%%%%%%%%%%++++.&++%%%%%%%%        &..+..+.@@@@@@@@++.+++++@@ @@@@@        @@@@            @@@@@@@@",
"+.+++++.++++++++                 @    @@  @@@  @              $ %%%%%%%%        %%%%%%%%%%%%%%%%+.+++.+&.++++.&+        %%%%%%%%",
".++.++++++++++++                 @  @@@@@  @@@@@                %%%%%%%%        %%%%%%%%%%%%%%%%.++++&.&&..+.+&.       $**%%%%%%",
".&&&+++.;++.++.-                  @  @ @@@@@@@                  %%%%%%%%        %%%%%%%%%%%%%%%%.+++++&&+++.++++        %%%%%%%%",
"....+++++.+.++..                @@ @@@@@   @@@@@                %%%%%%%%        %%%%%%%%%%%%%%%%.+++++..=.++++++        %%%%%%%%",
"++++&..&.++.+.++                 @  @   @  @   @                %%%%%%%%        %%%%%%%%%%%%%%%%+++++.++++++++..        %%%%%%%%",
"++..&&&...++.+..                @      @ @@  @ @                %%%%%%%%        %%%%%%%%%%%%%%%%.++..++.&..+.+.&        %%%%%%%%",
"+++++.++.+&&++..                @@  @ @@       @                %%%%%%%%        %%%%%%%%%%%%%%%%++.++++++&.+++++        %%%%%%%%",
"+...+.&.+.+&+++.                      @      @@@                %%%%%%%%        %%%%%%%%%%%%%%%%.+&+..+++++.++++        %%%%%%%%",
"@@@@@@@@%%%%%>%%..++...+  @  @@  @@ @ @         .+..&.&+        .&+++.++        @@@ @      @@@@@+++&++&&%%%%%%%%@@@ @ @@@@@@@@ @",
"@@@ @@@@%%%%+%%%&.&&&&&+@ @@@ @@    @@@@        +++&&..&        ++++++++        @@@@@@@@@@@@@@@ ++++.++.%%%%%%%%@@ @@@@ @@@@@@@@",
"@@@ @@@ %%%%%%%%.+&&&&.+  @@@@      @@@@       $+.&&+.&&        &&+++.++        @   @ @@@ @@@@@ ++.+++&.%%%%%%%%@@@@@@@@  @@@@@@",
"@@@@@@@@%%%%%%%%&&&&.&&+@@@ @@@@      @@        +.+...&&        +&+.++++        @@@   @@@ @@@  @++++...&%%%%%%%%@  @@@@ @@@@@@@@",
" @  @ @@%%%%%%%%.&.&&&.+@ @@@          #        ++++++.+        .++++&.+        @@    @@@@  @@@@++++++.+%%%%%%%%@@   @@@@@@@@@@@",
"@@@@ @@@%%%%%%%%+&&&&&.+@@@@@@@@                +++++.++        ..&++.++        @@@@@ @@@@@@@@@@+++++++&%%%%%%%%@@@@@  @@@@ @@@@",
"@@@ @@@@%%%%%%%%+.&+.+++@@@@@ @@                ++++++++        &+&&..&.         @@@ @ @ @@@@@@@++.+.++.%%%%%%%%@@@@@@@@@ @@@@@@",
"@@@@@@ @%%%%%%%%..&&++++@ @        @@@          ++++++++        +.+&++++        @@@@@@@@@@ @@@@ ++++++++%%%%%%%%@@@@@@ @@@ @@@@@",
"@@@@@@@@&.++&.++%%%%%%%$@@   @@@%%%%%%%%%%%%%%%%@@@@@ @@        %%%%%%%%@@ @@ @  @  @@@@%%%%%%%%@@@@@ @ @@  @ @@%%+%%%%%        ",
"@@@@@@@@&.&&.&&+%%%%%%%%@ @@@ @@%%%%%%%%%%%%%%%%    @@@         %%%%%%%%  @   @@@@@ @@@@%%%%%%%%@@@@@@@@@ @@   @%%%%%%%%        ",
"@@@ @@ @.++...++%%%%%%%%@@      %%%%%%%%%%%%%%%%@@              %%%%%%%%@@   @   @@  @  %%%%%%%% @@@@@@ @@  @   %%%%%%%%        ",
"@ @@@@ @=+++&...%%%%%%%%@@@@@   %%%%%%%%%%%%%%%%      @         %%%%%%%% @@ @ @@@@ @@@@@%%%%%%%%@@ @@ @@ @@@@  @%%%%%%%%        ",
"@@@@ @  ...+.&.+%%%%%%%%@@@@@@@@%%%%%%%%%%%%%%%%@ @    @        %%%%%%%%@@@@@@@@ @@@@@@@%%%%%%%%@@@@ @ @ @@ @  @%%%%%%%%        ",
"@   @@@@++&.+++&%%%%%%*%@@@@    %%%%%%%%%%%%%%%%@ @   @         %%%%%%%%@@ @  @@@@@@ @ @%%%%%%%% @@@@@@ @ @@@ @ %%%%%%%%        ",
"@@@@@@@@&.++++&&%%%%%%%%   @@@@ %%%%%%%%%%%%%%%%@@  @ @         %%%%%>%%@@@@  @@@@@@@@@@%%%%%%%%@@@@           @%%%%%%%%        ",
"@@   @  &.&+..+.%%%%%%%%@@  @@@@%%%%%%%%%%%%%%%%@   @@          %%%%%+%%@@@   @@@@@@@@@ %%%%%%%%@@@@@@@  @@@@@ @%%%%%%%%        ",
"        %%%%%%%%%%%%%%%%+++.+.&++++.+++&        %%%%%%%%%%%%%%%%%%%%%%%%@@@@@@ @%%%%%%%%&.++++.&        %%%%%%%%%%%%%%%%++&++++&",
"        %%%%%%%%%%%%%%%%+&++++++++++.+.+        %%%%%%%%%%%%%%%%%%%%%%%% @@ @@@@%%%%%%%%&.&&.+&+        %%%%%%%%%%%%%%%%&+++++++",
"        %%%%%%%%%%%%%%%%++++..+++++.&.&+        %%%%%%%%%%%%%%%%%%%%%%%%@@ @@@  %%%%%%%%++++..&+        %%%%%%%%%%%%%%%%.++++++.",
"        %%%%%%%%%%%%%%%%.++++++++++++..&        %%%%%%%%%%%%%%%%%%%%%%%% @@ @@ @%%%%%%%%++++++++      $ %%%%%%%%%%%%%%%%++++++++",
"        %%%%%%%%%%%%%%%%.+++++++.+++++++        %%%%%%%%%%%%%%%%%%%%%%%% @@@@@@@%%%%$%%%++++.&.+        %%%%%%%%%%%%%%%%&&+.+.++",
"        %%%%%%%%%%%%%%%%++&+..+++&.++..+        %%%%%%%%%%%%%%%%%%%%%%%%@  @@@@@%%%%%%%%++.+++.+        %%%%%%%%%%%%%%%%..+++..+",
"        %%%%%%%%%%%%%%%%+&+..&.+++&..&++        %%%%%%%%%%%%%%%%%%%%%%%%@ @@@@@@%%%%%%%%.+++++++        %%%%%%%%%%%%%%%%&&.+++.+",
"        %%%%%%%%%%%%%%%%&.+++++++++++&++        %%%%%%%%%%%%%%%%%%%%%%%%@   @@  %%%%%%%%++++++.+        %%%%%%%%%%%%%%%%+++++++&",
"    @  @%%%%%%%%@@@ @@@@@ @@@@@@        @@@ @ @@%%%%%%%%%%%%%%%%                +++.++++        %%%%%%%%        @@@  @  %%%%%%%%",
"@       %%%%%%%%@@@@@@@@   @@@@@        @@@@@@@@%%%%%%%%%%%%%%%%                ++++.+++        %%%%%%%%        @ @     %%%%%%%%",
"@@  @  @%%%%%%%%@@    @@@@  @@ @        @@    @@%%%%%%%%%%%%%%%%                ++.+++++        %%%%%%%%                %%%%%%%%",
"@    @  %%%%%%%% @ @  @@@@@  @@@        @ @@ @@@%%%%%%%%%%%%%%%%                +&++++++        %%%%%%%%                %%%%%%%%",
"@@@@ @@@%%%%%%%%   #@   @@@@@@@@            @  @%%%%%%%%%%%%%%%%                ++.+++++        %%%%%%%% $      @     @ %%%%%%%%",
"   @ @@@%%%%%%%%    @@      @@          @@@  @ @%%%%%%%%%%%%%%%>               $&&.&++++        %%%%%%%%         @@@@@  %%%%%%%%",
"  @   @@%%%%%%%%@@   @@@@@ @ @ @        @@@@@@@@%%%%%%%%%%%%%%**                ..&&&.++        %%%%%%%%        @  @@@@@%%%%%%%%",
"    @@@@%%%%%%%%@@@@@  @@@@    @        @@@@@@ @%%%%%%%%%%%%%%%%                &.&.&..+        %%%%%%%%         @@ @@@@%%%%%%%%",
"%%%%%%%%%%%%%%%%%%%%%%%%        %%%%%%%%%%%%%%%%        ...&&+..%%%%%%%%@@@@@@                    @@@@@@%%%%%%%%        %%%%%%%%",
"%%%%%%%%%%%%%%%%%%%%*%%%     $  %%%%%%%%%%%%%%%%        .+++.&++%%%%%%%%    @@                   @@ @@@@%%%%%%%%        %%%%%%%%",
"%%%%%%%%%%%%%%%%%%%%%%%%        %%%%%%%%%%%%%%%%        +&.+++..%%%%%%%%@@   @@                    @    %%%%%%%%        %%%%%%%%",
"%%%%%%%%%%%%%%%%%%%%%%%%       $*%%%%%%%%%%%%%%%        ++.++...%%%%%%%%@@@@   @                @@ @@@ @%%%%%%%%        %%%%%%%%",
"%%%%%%%%%%%%%%%%%%%%%%%%        %%%%%%%%%%%%%%%%        ...+.+++%%%%%%%%@ @ @@@@                 @ @@@@@%%%%%%%%        %%%%%%%%",
"%%%%%%%%%%%%%%%%%%%%%%%%        %%%%%%%%%%%%%%%%        ++++++++%%%%%%%%  @ @                   @@@  @  %%%%%%%%        %%%%%%%%",
"%%%%%%%%%%%%%%%%%%%%%%%%        %%%%%%%%%%%%%%%%        .+&&&;.+%%%%%%%%@@@@  @                  @@@@@@@%%%%%%%%        %%%%%%%%",
"%%%%%%%%%%%%%%%%%%%%%%%%        %%%%%%%%%%%%%%%%        ++++.++=%%%%%%%%    @@@@                @@@@@@@@%%%%%%%%        %%%%%%%%",
"  @@            %%%%%%%%%%%%%%%%++&..+++.++&+..+%%%%%%%%@ @@@@@ %%%%%%%%                @@@@@@@@%%%%%%%%        %%%%%%%%%%%%%%%%",
"  @   @@        %%%%%%%%%%%%%%%%..+.&++++....+++%%%%%%%%@@@@@@  %%%%%%%%                @@@@@@@@%%%%%%%%        %%%%%%%%%%%%%%%%",
"     @ @        %%%%%%%%%%%%%%%%..+.+&+++.+..+..%%%%%%%%@@@@@@@@%%%%%%%%                @@@@@@@ %%%%%%%%        %%%%%%%%%%%%%%%%",
"@     @@        %%%%%%%%%%%%%%%%++...++++.+.++++%%%%%%%%@@@@@@@ %%%%%%%%                  @@@@@@%%%%%%%%        %%%%%%%%%%%%%%%%",
"@  @ @ @        %%%%%%%%%%%%%%%%+++&.++++++&&+++%%%%%%%%@@@  @@@%%%%%%%%                    @   %%%%%%%%        %%%%%%%%%%%%%%%%",
"   @ @          %%%%%%%%%%%%%%%%++++..+.+++.++++%%%%%%%%@@@@@@@@%%%%%%%%                @@@@@@@@%%%%%%%%        %%%%%%%%%%%%%%%%",
"   @@@@@        %%%%%%%%%%%%%%%%+++.++++++.+..++%%%%%%%%  @ @@@ %%%%%%%%                @@@@@@@ %%%%%%%%        %%%%%%%%%%%%%%%%",
"@  @@ @@        %%%%%%%%%%%%%%%%++++++++&+&.+&..%%%%%%%%@@@     %%%%%%%%                 @@@@@@@%%%%%%%%        %%%%%%%%%%%%%%%%",
"@@ @@@@@        %%%%%%%%                %%%%%%%%%%%%%%%%        %%%%%%%%%%%%%%%%&...&.+.%%%%%%%%        .+.++.&+&+&..&.+    $$  ",
"@@@ @ @@        %%%%%%%%                %%%%%%%%%%%%%%%%        %%%%%%%%%%%%%%%%&++.++&+%%%%%%%%        .&.+++=&&++..+..        ",
"@@@@ @@@        %%%%%%%%                %%%%%%%%%%%%%%%%        %%%%%%%%%%%%%%%%++++++.&%%%%%%%%        ++.+++++&+++++++        ",
"@@@@@  @        %%%%%%%%                %%%%%%%%%%%%%%%%        %%%%%%%%%%%%%%%%+++++.++%%%%%%%%        &+++++++&&&..+++        ",
"@@@@ @@@        %%%%%%%%                %%%%%%%%%%%%%%%%        %%%%%%%%%%%%%%%%++++.+&.%%%%%%%%        .++++++++.&&&..+        ",
"@@@@  @@        %%%%%%%%                %%%%%%%%%%%%%%%%        %%%%%%%%%%%%%%%%+++++..+%%%%%%%%        +++++.&.+&...&++        ",
"@@@@   @        %%%%%%%%                %%%%%%%%%%%%%%%%        %%%%%%%%%%%%%%%%+++++++.%%%%%%%%        ++++.+++.+.&.&.+        ",
"@@@@@@          %%%%%%%%                %%%%%%%%%%%%%%%%        %%%%%%%%%%%%%%%%.+++++++%%%%%%%%        +.+++++..+++++++        ",
"%%%%%%%%@@  @ @                 @@@@@@@@%%%%%%%%        %%%%%%%%@@@  @@ %%%%%%%%        @@@@ @ @@@@@@@  @@@@@@ @        %%%%%%%%",
"%%%%%%%%@@@@ @@@                @@@@@@@@%%%%%%%%        %%%%%%%%       @%%%%%%%%        @@@@@@@  @@@@@     @@@@         %%%%%%%%",
"%%%%%%%%  @@@                   @@@@@@@@%%%%%%%%    $   %%%%%%%%@@@@@   %%%%%%%%        @ @@@@ @@ @@@@@@  @ @@#@        %%%%%%%%",
"%%%%%%%%     @ @                @@@@@@@@%%%%%%%%        %%%%%%%%@@@@@@@ %%%%%%%%        @@@@@@@@ @  @@@   @@@ @@        %%%%%%%%",
"%%%%%%%%@@@  @                   @@@@@@@%%%%%%%%        %%%%%%%%@@@@@@ @%%%%%%%%            @@@@@ @@@@@@@ @ @@@@        %%%%%%%%",
"%%%%%%%% @@@@@@@                    @@@@%%%%%%%%        %%%%%%%%@@@@@@@@%%%%%%%%        @@@@@@@@@@@ @@@  @@@@@@@        %%%%%%%%",
"%%%%%%%%@ @ @ @@                  @@@@@@%%%%%%%%        %%%%%%%%@@@@@   %%%%%%%%        @@@ @@@@@     @@@@@@@ @@        %%%%%%%%",
"%%%%%%%%@     @@                 @@@@@@@%%%%%%%%        %%%%%%%% @ @ @@@%%%%%%%+        @@  @@@@@@@@@@@@@  @@@@@        %%%%%%%%",
"%%%%%%%% @     @                %%%%%%%%@@@@@ @@%%%*%%*%%%%%%%%% @@@@@@@%%%%%%%%++++++...+++++++@@@@    %%%%%%%%.+...+++        ",
"%%%%%%%%@      @                %%%%%%%%@@@@@@@@%%%%%%%+%%%%%%%%   @@ @@%%%%-%%%+++.+++++++++.++@@@@@@ @%%%%%%%%..+++&++        ",
"%%%%%%%% @ @@ @@                %%%%%%%%  @ @@ @*%%%%%%%%%%%%%%%   @@@@@%%%%%%%%++++..++++++++++@@@@@@@@%%%%%%%%+++.++.+        ",
"%%%%%%%%      @@                %%%%%%%%@@@ @@ @%%%%%%%%%%%%%%%%@@  @@@@%%%%%%%%++++.+++++++++++@@@  @ @%%%%%%%%&++++++.        ",
"%%%%%%%%@@@@@@@@                %%%%%%%%    @@@@%%%%%%%%%%%%%%%%@@   @@@%%%%%%%%..+++.++++++++++@@@@@@@@%%%%%%%%&.+....&        ",
"%%%%%%%%@@@@@@@@                %%%%%%%%@@@ @@ @%%%%%%%%%%%%%%%%     @@@%%%%%%%%.+.+++++++++++++@@@ @   %%%%*%%%++++++++        ",
"%%%%%%*%   @@                   %%%%%%%%@@@ @@ @%%%%%%%%%%%%%%%%@    @ @%%%%%%%%&+++++++++++++++@@@@@  @%%%%%%%%++++&+.+        ",
"%%%%%%%%   @@ @                 %%%%%%%%@  @    %%%%%%%%%%%%%%%%@@@@  @@%%%%%%%%+++.++++++++++++@@@@@@@@%%%%%%%%++.....+        ",
"%%%%%%%%%%%%%%%%         @@@@@ @        %%%%%%%%.&.++++.%%%%%%%%%%%%%%%%@@@@@ @@        @@@@@@@@%%%%%%%%  $             @@  @@@@",
"%%%%%%%%%%%%%%%%        @@@@@@@@        %%%%%%%%.&&++++.%%%%%%%%%%%%%%%%@@@@@@@         @@@@@@@@%%%%%%%%                @ @@  @@",
"%%%%%%%%%%%%%%%%        @@@@@@@@        %%%%%%%%++.++++&%%%%%%%%%%%%%%%%  @@@@ @        @ @@@@@@%%%%%%%%                @   @@  ",
"%%%%%%%%%%%%%%%%        @@ @@@@@        %%%%%%%%+&.+&+++%%%%%%%%%%%%%%%%@@@@@@@@         @@@@@@ %%%%%%%%                 @@ @@  ",
"%%%%%%%%%%%%%%%%        @@@@@@ @        %%%%%%%%+++++++&%%%%%%%%%%%%%%%%@  @@@          @@@@@@@@%%%%%%%%                @@@@@@@ ",
"%%%%%%%%%%%%%%%%        @@@@@@@@        %%%%%%%%++.+++++%%%%%%%%%%%%%%%%@@@@ @@@        @@@@@@  %%%%%%%%                     @@@",
"%%%%%%%%%%%%%%%%        @@@@@@@@        %%%%%%%%&.++++.+%%%%%%%%%%%%%%%%@@@@@@@@        @@@@@@@@%%%%%%%%                @@@@@@@@",
"%%%%%%%%%%%%%%%%        @@@@@@@@        %%%%%%%%+&.+.+..%%%%%%%%%%%%%%%% @ @@@@         @@@ @@@ %%%%%%%%                 @  @@@@"};
