/* XPM */
static char * floor2_128_xpm[] = {
"128 128 75 1",
" 	c #494949",
".	c #4F4F4F",
"+	c #4D4D4D",
"@	c #4B4B4B",
"#	c #4A4A4A",
"$	c #484848",
"%	c #454545",
"&	c #505050",
"*	c #464646",
"=	c #3A3A3A",
"-	c #343434",
";	c #393939",
">	c #3F3F3F",
",	c #444444",
"'	c #4E4E4E",
")	c #515151",
"!	c #414141",
"~	c #434343",
"{	c #424242",
"]	c #525252",
"^	c #555555",
"/	c #565656",
"(	c #535353",
"_	c #5A5A5A",
":	c #575757",
"<	c #474747",
"[	c #404040",
"}	c #3E3E3E",
"|	c #545454",
"1	c #595959",
"2	c #373737",
"3	c #3B3B3B",
"4	c #4C4C4C",
"5	c #585858",
"6	c #5E5E5E",
"7	c #3C3C3C",
"8	c #5B5B5B",
"9	c #3D3D3D",
"0	c #5D5D5D",
"a	c #5C5C5C",
"b	c #5F5F5F",
"c	c #626262",
"d	c #616161",
"e	c #6A6A6A",
"f	c #676767",
"g	c #696969",
"h	c #636363",
"i	c #646464",
"j	c #606060",
"k	c #656565",
"l	c #666666",
"m	c #686868",
"n	c #6F6F6F",
"o	c #6C6C6C",
"p	c #6B6B6B",
"q	c #707070",
"r	c #6D6D6D",
"s	c #727272",
"t	c #6E6E6E",
"u	c #717171",
"v	c #7A7A7A",
"w	c #777777",
"x	c #737373",
"y	c #6A6969",
"z	c #747474",
"A	c #626162",
"B	c #787878",
"C	c #757575",
"D	c #767676",
"E	c #7B7B7B",
"F	c #797979",
"G	c #5D5C5C",
"H	c #5B5A5B",
"I	c #474748",
"J	c #454445",
" .+@+#$@% &*=-;>*$  %,+'+&)'.' @>,!>*,~*$!,{%,*@)]^/&(()(_://](^<*{~!,,[}>==!!{~&(&:]^)^]]()&]|:,!,*{<~!@+<~{<%*(_///__1'&&#@#,~",
"+<++ + '$$@;23>~4$  < < #+@@+@'@*{*,![!![!,[!*,~^^^(^('.56_55^55$!,~!![}>77{{~!~^5^/::/(')]..|(^,{%{[{<*4''''$*$1/(^)||/&(&('*@4",
"*$#@+++&***=}!$% @+  '@@.&'4 ##@<%*%<,*~~~%$,,$*(:(^)+)]68('))''>$~!!}9977[[{,!*)^^/:^^)||)&|):/~<,~*,!!$,<*%%,#51/:^/50&@4*   *",
"$# @@.+ ><}99{{> @$  +&)4$@+.'+ ,}~*<%*,%~,{$**,8_5]||&^8)&@4@&)!79>39;97}}}!}!!)|(^]&)/&(+')&((*%{,**~< @+4&&)(5]1:/^/14+4+@#4@",
"+++&+ @*{,}=!*~,4$ %+4 .'@+@+@&+{%,~!!!},~~{~** a:/(|]&8+#$ +&('[[>9}}=>}}>,*,*%/&)&@++'(.$&)/5([!~,*${~  @+'])+^85b01_/&'+4$+4@",
"4(@')@+@{%}{,{~%%++ **++@$@# @'&<$<~,~{$!>!,~~%455(|]('5'&(/(.')![>}}!~!9~ < ,$$^)].]^^|^//^bc/^!{$ $!,%+@))@+@&8008:1^5]|&#'&'&",
"''). &<#~,  $,~$'+@@@+@ #@ *@''4+ *,~~~{~{<**  %^^^^//// ^&&(&(|~[}}!}>>!,{{, $~)())(_^/:|10a/(/~**$[*,$+.+'&+)&805)()|_^.@$@++@",
".+'@# '4,*$ *$$%@@  ++++'  '<<#4*%%~~*~!*@ <<*,%|:^5^&6 ()&():&&779>[~>!,~!*!{~%5^^().))+ )05(:5<#@##$,*@+'@@.'&_155:^1_@+'' ''&",
"~*%!%,*,defefghij068cck6bb6jlkcckhbcibkifkfemklfkjeekgnbichhkcfmkiijidbj80f/cmk68jcffi8|1leoimkfeikkca8jiciikfiicjhdiigg_^5/5(_1",
"<[{*,{,%cegpggmkcbadchc0jjlccj6i00c0kffhgoplgicglmggiqogmfplcckgmccgcbicadbjja^05jcciiirkcfk0hffi0jjj_ilififfcg6ldkdclhf(//((|5)",
"%*<%,~,,bdchiifhb0jhckc0lf6jjkhlfcakkccigoonefogsqreeorsotogcflpkmfkd00b8cd6cblcbhdjj0mrkhkjdldajikb/6iiikmh6j_0ilichiij/15:(_|/",
"!!!!,$,%bal_cibb6j8chb8ak0bccdkhb1jcaifceggkjdhoftufgepgknsnrogkmpkklkhbafj6jb08fihcjcllciihca5jjba00jcllllmkc8jihhkcj6d:/a1//()",
",~{*,,*,c0ibbcbbbcjicjbjikglmgfcjdkjiihllfkkeflkmrroeomkgtervwqeeocod8atxgb6jhbcja8jjjmehpljdcjcjfj/5bcdkclhccjhjbbajhkg:_/)(]/^",
",,%%*<**cj8cj06bjbbcdbddihcdkhkdabjhffiiccgriliillorpfhjmprnnoennflkckmuhhjjhihcicbhkgplhdhkbcc6fc80iddjchikikbbbjjihiig_^]]__]/",
"'*$@ %<~bja05)8cd56iklh00jhiddb086jd0ccjgfkkcidiekmfkgfmqrqegoogmdiddignrk0cdfllckmnomfmdh0b00fin6bb0kbb0icdcijjkmijilkl55/:^188",
"*% *~{!~b_85/bic1clgh008j0iajd8/_iddjbjcepfkggmnggormkesnogmeqrtgkkggigo0kfkdmkkreffhomkdbh0a5dbc8idhjbcb86hjcljiihkibic.(1^^^|5",
",**~>><!_:^(_j0b66bj0558_11__^^80_00ib0bdhkfkighgkbihelgjcjdmlchdkmfi0jjbichfkjlkchbhkdjbighgrij_aidihcj_jjjchhkljdildcb{~9>%,$*",
"!>}7!>!{a556kdddbb00//5118_b881_ccdb6c6jciikifmhgmofmcfbbkkkicgjbbfj0ijb6a0bkii6dicb8bbjjklfe_:56ichkckbdbkkbai0cljiijcj<[>{!~,,",
"{9}>[~}}8a8ckccj515^^_a15805_|/_cijijb0ajcilkkkiggehffhckhaldd6dc8bhj1:_5(8jid__65bachjckkd65^acdilijd/a/ijbkciccfikdh6c~*,,**~{",
">~{>[;>>06bjcdbc8_///8_510//5_0jj8icijjhccdjcjikgpffpkgikdhajc_a_fd+&|6fehg8):j6:h8jc6jbiilj5a0li_bk60cjfhd/bji68jjkikkh$%$$,,~,",
">>!![>!>a:bhjjj06888b0_0a1^0bb6adddijki0hch6cckfeeptmmjfjbbj80b0kf68jgkkbj5&:cd^cjjd006jhcb0jhh6^_cchbbhcbckkikkahbifikh$*,$**!}",
",,!{[[~~85cj6dbd5_a80_8010_/^50cjci0000lkh6jijgmgepggmkjij00b660hj_bgofph^^bkbj0j0^jdjcibb66ckb8_jc006ccjicjk6ggficmiij0,*$~*!>}",
"{{~,!~{{bkh0a8j61a_0(aj6b881j885_886flckdflhkimggofpoic0iiibc66a)]|drgokcj6fj/6/^_dkhb06a8bba^:iggjjj65bdjjeihbiicj8kjb0!,~%[!!~",
"<,,~!~!*ajba6cdc05b_0_0jb0_00_88djhl6ikfcfgmeelkegeeca0ihccc615:868ffejkicd_^8):cce68cdcdbc8abb:(_jfi8aa/8lkjb8ba81cj6jh{!~%~,*<",
"$@@$<$ 4fggcmfilkemimoigegkgfigf0jji0kfigggefffgggffhljfffigkccjgeeurpfkiflmfhhmekbjdiclcljjcdjicidjjhihb5cj0bj6/180088b/^&&&]^(",
"@#   +'.mefikckfeflntrrgkkghiklid6kdjjbfrpmiikfmlhelgcdlmkgkhikigkmemkdgopogfkkrjd8aa0bba05806bjhkhadfcj:0jchfc0ajab:080((]'&/)(",
"  4@ #+.glefkgegfrooepfffpmekiiijjj8j0hmkkmfhffeereic00dfelcmghigkornmornqntfkkohg60jcckj^_60jdi0b6dk66_8deckc_aj8j8088b(&)/^^^(",
"@+4#)+'+eorepeklomeurgeecgeefemejj86hcbbfekbcflofglbcijkhkckkdhhdeenoekgmomgegppffkgigmk6cjhm6bbkh_0c6880fefhjb0j05jdb0a).&(](^^",
"@@@@4&.]rrqomipglcffgeelogfkgggfccbjjdj0ccdbccmfkmddjb0jckibbbidcgeijilprumrfhetfbckkgij8ijb08_b00hh510digfcd8bcajbcb0a1(|^)().)",
"@44+' .&runfkkefprgfgoekkoolfhikj866ckjdfc060ilifk_bcbfiihb6bdcjhaikkiiipqqnenoklkbbkgpj66jh6bc6fgpmr6hkcgicj6jcj_abjj08^&)]&((|",
"+@4# @+]tutmrelokikegleceogeogegjciiihjdob06jgfkk61b_d0hc8bajdjhgetchabdioqpfgifghiolpkccb0ckhllrponbfgkrhdjhcicjcb68abk^)^4(:^/",
"@ &]'.&&gfkhffoeckfkcihfgocgimmmhccj_8bkfhjcmkkfc888dbcc8dbb6chchccc0bleormchiogcgeigk6080dkkgpgffoffeefjhid0icchbjb0j0c|]))/)(^",
"|1_551a_cddikhkkfkljd80j0_0bjcij00dbllglkchkhhj8aa_bjb60a8880_8dadd0bbkcoefifgephkcggk88femmmemeibklpgpfbcd06bdhbbchhcij!%,~[ <!",
")(^^^:5+acikdcclhihkkkid08jdbcd0jdffkljibbbdcb05a6bb_jjc06c0bbccc:_dihbghjckefkkgifkonnefjdfferrfpj0irgehlkkfjhfgfepkdaj<*<**,~~",
"/(//58a8gccki0jdaimfkhkkjc6h06ahjkkyidijicjcd0018a50caclji6kckb8_0b8jjdhkmgnrsikfeorrogeefonettgfdlpljdkbbccbdlhfgfihccj*%,%,~![",
"'&(]((^5likc6cijfggfkmglflf6a000dcdcfmkkmhjbcj0_j6cccgfi6j6dibb60cd88cb0feeenfieepgmlkipdeoeeoglgqooiajlcibbjjj6igfhkgmk>{,$$,!>",
"])/^||:&cffbchckikiifkfmmmfdijlikjjmi8dcckk61a8b6b0_0080a_b6__1:j8a5j_jkeifutnrptreoffocoroorrrkfcgkcfglbofikljjfmllkfkc$~~%*,,{",
"5:1/5|]_kihhlimihkkefelopcfmgehlfci0bjcmekbb6b08_8_8j0b68hj6dbbc0c6i_bgikgpppznqreekogmqxpqrgkklfpojjeolcilfggfekkhfkggl$$%**$*$",
"0_a/1)5_qccdckkjiikmkfoekliflofiiflj0ijciidbdj6bc0b8dbddj6bjdbj6ibc618kdpeeneuplesoroegeruroeemgegmcpernoi6jjflcffklmgid*% $### ",
"_1_^:8:8dfifmiggklkkigmfklfiifikikikdcdgiic6iaha8jjbba0cbj6j0:^(08bhdpgcfgrrogiertperlgprnefgtrggohftppngdcfmiacccigflhd{#* 4 @+",
"%$ $$ 4 eifeorfehi86iefkggfopijlccdddiikigfi868b0cj6c6ajbb0_a8b68_60lncicdiekegkcilkccjcc8cjbc86fkaficci6jpibjb00jcfkkbb.&&'.|/&",
"<$#*<< 4preroforjjjkmficdigedkkifkkjciiglmc_clihkhfkccccja_68006ijijekbliigketcic06cj0khckdjjb00ccldi0fA0cbcd__acdkhidhc&#+@).++",
"$%$<   #fepmopgc_a8bdkbbajbbjfbhcjjclegoofblidffclkkcliij66j6b5ji661bpfkgdbidgddckkiccjib06j6bdihkkflobc60bb5800biid688c'&')+&+'",
"%$$ +$4#koogfepgigiefc_06bb6ljilkklimgrmkchchekcilikgfifcdihc8ab6djbh6bbj8b/jgjihicdc0idbcdhcc6dcjdiilgidijjhb8bgjc068cd+4.&&&^&",
"** *%@'*lepeeemmeofei_1dchcjclklgfklkmefkjajcbbkhhegkjibkddj66d6h8dikcj6_biillckjkimifcdbjjhddj0iicbbccib6kih50bdjjd/5jb+''@.)(&",
"+**#4 *,kfmglegofkfcibfdkidchhdikeogpfgid_bd0iikkkmgk0hmhij00bgjc8ieii5jhkiencjcifkiiikdcjdjdjca0ccclmeifckc8_jhca_6jkhb''^^^&&.",
"#$@+@[>,fogmmkroiiieiicjhciidi0hbliilib08dc0acbickkkifkfkhi6clkikkgmc0idkllkgh0ifjhjckdj__858bajllkcikd6a0____0jj66a1dic^|^|^]^|",
"  ##~,#$eoplllmiadjcca0dhbcajbccplckdcb6bfb0iihhijcicgggijjbckhkbhc60cb0imiflj0ikbbccbjb051b6jjigkikicck0ca_0jjajb6b6hif(&^.@4+)",
"1_/_|:^5ciddddfcjj:0bjjckmfffhhifhiliikked0kgmiecji6d6jjiclegpcjfihfhibcdccpijb0bfbbjififhffkkcefockcaiih0fiijikcbkgmibh% $,**#@",
"_a_5|/55jdjfmegcbckf800jleeikhkfmflhjjhkccbdjcbdjccccc06kfgeciibdlgchkmkdltkibbjifj0kmicidlkkkkfoki_0cbb0dkkclhcjc8ab5jk #$, +@@",
"881:(/_|kjmkieieeeekdbdcfidichmflikhkkkidfhkkdcibj_8aihdffgoffjik6clekfmeomh8_bckilhjdcfmkggibmiicddd6d8hgi000b_a5kgifgo@@,+4+@ ",
"j85^/:/(ikmkldciclcd0dbbdhj6fcfgeihiiiiifpgmgogej0bijbchofgfffd88dirmtrsrgk0:b^jbjj8jjjkhccbchhiglichjbffhkldj8j_mpmoose  @@4'&]",
"85()&^+.jkkcchkfiifckhhimjhickigfkkhkkrgeieeooemfdcjcfkiggijeolfci66eooeejdjdjkca_(jccic0bkkkikkmkhlfkjihfkjb6j8_gictqtf@'.&&&)'",
"+'&).')/c6dajlmmdkdlcfflklkiimkeikfflggficicifiiilchjhjjggiikfgepmkgfrmgbdi5c_8658kgkfgf6chhkijjijjc6hlkcicibjjcikhliipg+++)''$[",
"+)])&&|(cbbdckilkhkiiikifpfhgkhhflfkfffciljjimhfpdcjdjclelffeelogeennrgeikjb_jidigldiib8aajcjjkjjcickfclhhcj_dkhkgeiipgf  @<!>{}",
":^^^^/^^ikccifklhk68ch_6fgeffhjfciiijceiehgorekoiacb0db0cfgrmmplgptpfitick8dbkkdjlhfd8jjhh0j1ab8db0jchkjckkbjccbcmcdlihh~,!!**{!",
":/^](5_:djjkmkhc85((5/06jj0cbjcjkcbdhlbd6achjdd6iihjiikfi6i8ccigfi_a00bbfk_jcdjhcd680bjb8_08bb1b06a6ijaamfflkkhdoeolibif4 $ @ * ",
"//&)^///bibfjid8__/5a_/d65bjcj0j0ccbjccc186jjj0bjbcckicleljcgprg8//0ak6j6^8jjb006a__6a66dbcccjba_:1b66bifmiklc6imcmiimfk4'+ 4@ $",
"]&)||]&]8ackj0:8^))j_00_(8jcchdbkckjhj08_888b8jbj66clgmgeikpghgdab6bhjba^868a86bb55b008bbck68^]]5/50cb0bkdfidciloeibkici##$&+@  ",
")&))|^((bbh0_0815(5b0j6bkjb0jbjkikicbjb8adaa_08bdcjbefoc_8ccdbb1(^1a00b^__0a_/86a:8aa0d08b055_^_85abc8_:58510j6mlefkcdle.+44#%,$",
"((]'&'^/b0b0___j^8ihb6jjjd6bifhbcj::_88fjjc60jijccickgfk0kmh6ccbbd6bbd_^_8//^008//jj0j0/80baa8__0860a_51885_55fftkfkkifi* *,%* *",
"''4'+&&&88b_b_855bjfchplfkidici0ababa|180j60bj6jiicmheljjgibci6kmlc06:8(5_0_a6885jdjb__a6b1^b866bdb0_^5/daajckiiikgflckh$~%{*  <",
"@]')&.+]86ba__8^bjbb5jdkkcikck6/_/8a80ihabbdidbjdckkckcigffiid5igk005:'/6a10__50_djb888555abbb0ba/8008::0bdkeikhckmkjmmm~%*<  ~%",
"+@@4.&|&^615805:fj0chb6hicfhi6/18jcihhi_8abjjdjiklicfiimgmjj6bftb5))|/:/8881080bfjaa_a18cjjb05b0biib1/1:hgjlmgfplegppfla%$ $%%~~",
", $$< $<j8_0a81epifuntgreeiefibjdkhmookgllkmmgllkfliffdfmlfidmpk05:a::8jja08086tekdikbh66jb01aa8jjbb1jbdhbbh85b_kegemgkh&)|||&4'",
" $ $$** j60b86irb_grrruxoeoofkciiheeklrofbjdhlgicgohjlglglkifeeccjcb0j16bjhkkimmkikjhkkdhhbhjb6dkjcjjb0b0bjijbciogjhlecc^((.)+))",
"@<#   $#kffdgBwxmousseoqpeffifomjflrognpl00jjhimhigkomgcccdjdckfk6bccbcddhfcpdlibjb6cciihj86jjb_b6jbbba0b00d0chembcomlmg//^^(]]'",
"$4@.#*@ hmgloCDqnEFCrmgpckfdcelkkknornurkkmglgijcegilkffhkbb8hmgfhikhmccii6kabkcjccccmkchj6bb08cid0icj0bdbjckicdipzshjbc).(&&(](",
"' '$$+@&roctFqzoxxzrustkhk0bhcfkeoonsxupgoprokkgeeoggicifmb0ctghjkfkklcfkj60bhlkkfgelhjk05ccbaj0bbi60dckikdfeelffngfi0df|&''.(]|",
"&'+@'+.&opsDvxrnuuotefmekj1ahkfgrrtnoorrtrtelfeggmgofljbbkimgid0cfmgdiklhckcddmgogmi6jbb8jbjbc_1cijjbjikicbmickcemkhkdirb__(:5/5",
"&&+&++)'rqsqngrgpfiajcotk8jchoeonoorenrpneorgprtormijj858bccpkibifiikijbdlihjfepggcilia8_0bckhihkcj0jkgihcih0fcbklfclesu0_1c0_Ga",
"'+''&.+)ogeqtgegeellikkk8ijbgfgfrnppgggumfibgnfffiibbb__8b0chkccihhfdkhiccjjipetmffgljjjjb8_8cbbdd6jlpfijlicjkcimmkkhilp]]1/^:8_",
"@++@ @44mgpqfeifm05ckjj6jbkfiegeogfkkkfmjjcbrrtmb0bkd0jcki0b0bjbfhklfpifmrogurnpfeoollmocjifkdjcffeusogfefkkqeefkki0jkle+'&.)||(",
"#< @#'''ologduihdhkghcbjidigekmkiigkjfgifijc8jcjjcj858jdfkkljikfflckmfklgefprtpppogmckfgligomdckmpnooehgfkffngggkjksrfeg&)])..((",
"@@ # +''hrmimpfmoiiiic8cjieiilgmfoefmfliickikfhib8a858bba_61jfcikfimkfkfelflgmepoggimmfkcifcdelkpronnnelmmfgofcgjfmelmih4&#+.)(|",
"+4@ $# $mtgpgfenkcfiid0hckhjhfgioegeeoflglcjicdhjdaaabbbda0jjabj6kfpikfieflglegofecliemgcggfeflkemqntzsstrnuogmffoogkggf++@+'&(]",
" @$*+@$#egfpemclkffk0jglkekkmommeffgpkifklikfcii600jbja06bjbhii0egmlkdihflffgfmmrfefkfemgikfficceggorrernzxxrgpetoefmoeg'4).()|)",
"'+++4 #<fcgffkhkcfiikcdkfgfifpepgffmfligfhjfkkcd50ja6iccjjibdidifmkkilkfrkiklkiikokkcefekhhc_bijgrenttrrtmoteiknufgeefkp&)')'(&]",
"@'.'@@ $kgikfffcjlhbiffefkfoperpekiikfemk6jidjifbdc_ba0_bbjchjcbjbfiiccdjbmlfmhefgefehgihhb6jbhknprrrxqtpelmfopofeooreqp+'&'@4)(",
" ++4@@$$cbdgelckccc6ckfhfpfmmeeegmeookcfjbdcccib0bb6___808j0ch60hbj6cihkikkhggremkggfgifd006ddfptgfrttorqteekmeueronenum)(.+&+(&",
"$*+$*~%%dckoilfficbbjifhekgfegefiliiick_(5bdicj08:^:8_55/_5_5^__886b0000bd8jiccgckibibkja0icbiidjhkffidhdflickkpkfmmgffl88|1888/",
"   #*~,,chmfkfkmikihfjilpoggoekfihikcll|5bcja:^:_15H_/:/___:^58006jab60bh8ij0_clmkgk1bdccjdbbcilj0cfmkjiciklgffkimfflgfk/&^__b0a",
"%<$   ,,jikhhkffbhcifikcertroeoekiflepc8cb6_:__a1_51_8_1__58_6858abb0baa8j_80fkcjcb60jjich6dj_0dcbhcb8cckjjlifkgkmmggmk0(^j_8a81",
"** ,~%<%hba5icjdickifkclfgtemoeplkkflecj0c0_1:8b5_:088_b__850:a550a0885080ckf006h608jhkcdjihd8_jbbj1(8jibcfkflmgfffegfkk]5_5/8:/",
"# ~~%,*$jclddcibkkdfkmfloqreoooplfgkfi056c_0/6a_/18:5a_a_a088_::j6a5:0iqefikdifhfchjiicckjbbbd0jdd0mhiidkffmfkkggoidigc0:a_1:::_",
",$  <*,$cajbcieefibcffieofgggggekillk8(585|^55:5^_518__0a001810bbhjbjfgmlkjj/khidd8jia6fcjj6ja8ihjb85hhchilekggefcikifj6|//5^(//",
"$<$%~,*~cjbddikkkdicfkgfhikh66b0dhjj8^^55_5|5^^(/:55_|ab8j0808_ackfliieh0h0acfdfkajcjjmi00i0a8jdj06:0jldhimjjhrnfelchb0c_555]:58",
" @$$$<*,dhdilemgldhkkihdj_/::a8__b05()/&&(_^15:80_55a0600/adca88jlikikhi^ac0_bcjbdcjhiicb1/|cbk6bba_60a0bfjbifpegegfmjhh:5/'(1_5",
".)'+&'4@hhffmcfkdccmfpm8:8bcbj0:811^:8:1ddjbcidhddliikffffponofelijkpgfhkhloemfk0bcijkeh/bjk0cffhffcckllfmepprosznorrlcg85/a_a_5",
")'&)&).+hikmj0:jhdhgmoib6bij0jab1(&/(_00iicdbhcfifklgmkkkgmlgmgnemhforfkfklgoekcjb06j6c0rml000bjmkfjkkegfogrrtszropmihkf))5/8/:1",
"@ +.&&&.mmlcb1ciimgmep6djij6ikidc6:8bcbifhjbikkffkoggolfgefekknrrlogmefmbgpkefgi0ba68jjjfimhblf0kkikijikfhgepzunrpeicgom+&(^]5::",
"#@+''&+&fcc00_jgkkkgmb//jjfhcicb8_cidhjjcjjkfgeglkkkikmeochgffekggetrnourgqlliiddbhihk6jbj1_fm0hijidjkbclmeouxqopmkdhc6j]:^|/(|/",
"''&'@')+d__08diklpfid8/5b011__^^5^0858aak0cinreerphhhfoggfgloregorgfgkeoormfickhbaj06cdcb86ikjjhlelkifkfmikozuunnefkgfef:55(]^//",
" @@ '+,+66806mogebikd0jf685/('+&((5(/5^5ajerofigrprfgmkhikgotnrrnrzmlkrpolfeddiijdihidb086cgfbicckhmllgcdfkerooollemkeeh51^+(((.",
"@@'@''.&icjciiefflijib0bbj_888|^/5//^.(^bketngremfliefjbigftutpunrreelffkifchckcaldkjbjbjzqobdciicikhhhkmiimgrniiifkfijo))+&(|/|",
"+.@4'++@jhjidglfgoiccjbb06jbaa00085_/8^acjfomggmhmfkpeeemfroprqsnpgeorggmklkkfchkbkiib06ggpfckfieddabgcjkfkgpmpfcdjicgfi&)&(1_^^",
"^]|^/|.)bb81bkmpf68bj:881:55)188j6b600dchmeicbabbifteieepghkifekfikgfkeofilic0bbjicjhkkrc0_8bbbb85_a60bij8ajkec6jadkfih0(^^68/(/",
"558:]+]5a((ccidcja8j8b8j86c8666dcbj0bjbbnnfhfkkbkeouotonikhikdckflddigggghhci66b0aifffplcj551_05__8ijhf6jdjikl686ddj80hd:^^:_5a/",
"__&)]./@^5bcjjb5^10a8bbdjc_88ch5_/_jlilijc0h0jcdfgnrqrgo6b066ikiifgiflggjkcj0cbbajiiikffcjbjbj__/baidijbckcchb5^ajc666ci^/a/(551",
"::/^||&#(_a_8a55_a00cbjchcclmf8056jkfoogodcrgpeooexunsoh80dkcc6jjclcfcfibjj06bicbcijiffb_dka81/&55b:0j60id0lk_/1jjcbacjc)(^/1()5",
"^(^).+]]_6j0_0jba_88_8jcjjkkk0b0lkcptrrlikonrgsseqogreiibjjdjbkfmhdckeeekijjijbccjjjbkj0cchc8(/5810dj_alikgij/b6jbjdiki0^(/|((/]",
"/^&^]('.6b8abhcbb_1a0j08bhhhidbbpi6ffnkkifmgfrunsrgmflggcchk6jhjicooefmokkiid0c6jj6_6ddgebj815/8_addbbabhfi0:bjbhcbblbjc5|&)/_(|",
"5^/(/^'+10bbbbhcfcc0jj06jcikkgkgeffmffflhfkemcihliifijjc6jjclfcjimfglglcicjkbkjcdjii086fhhd1((:/8kfcibb0ki81abbhc8bkiiki(]/|:]//",
"|///]&'^6jb08b8jcdbcjdfglkfefiiioqerrgolpr6fkeknfkijjic60ichkkjlklfmhfoiiikkcfjd8la68_860bj5:_80hflc0bhcgcbch8dj|clllfdl5^(//(/:",
"' '@4  4fic8cilohfkbkmiteglbflkgnlgfeegfkjgchfecdhhkb0hfikkeflkleoofmrlrmmffffklfdcbj8ifmh0_6jidcffcbiilkfkbipi0ieklplff..&)&.''",
"4.+'.4++mj8bfmfolfegkfgggglfmrzsefmbbdd0ccfkfgeddb8icciikhj8iflkoropegomikkffihcihbiimkk0_dcihhijb_6bcmkficefemfgmrfefgk.)&&'&&'",
"(])&'+&.dblflepeflkkgflgcofntunfkdcbjbdingkfcefikbkkgljkhibjcdilnpntgorejfifmpgfiijdlegihklcii0ijdhhlicbhflffgfklflklgmf(((^)&))",
"&+&&#+++bcipmmefholjjkogjjgsqgfk00ihchjchlmigccc0dikjbiij0bigckleenrtegeggelgepjkhkfffpqfikcb8ighcbidbbjhiifikfieggkfgmf'')'+'.'",
"' $@<+#*igefonrrkbclfsoookmefcdihjcic6jdfbkijaa50bbjjbhbbjjfkefferopfkkfkhlgkfjmahkkgeofblkc6kihkjcjckhkc:cfkbjgpmfetfkc+]&('&#+",
"'+@#&'++kfpmnpggkpfkkpnzsnro66lfdilcbaj6cgh_5b5_hicbbcjj8ckififgertoogmeclclfkcbekkefkiciiccihcjjjkiikchkmkeikgkddcbcihl&&.&'+''",
"$*~$'$*#bligeiegkeclorerftlh8ihibd08_jj0b^^_b0bccb66bjkffcggkkgqsuuetneggiflc6mffmpfhihkhlciddih0j0b8imgmetggokhcickjjjl4@@' +#@",
"*$ #{,4*gppognoeghlkgteeihh_bhck681508681:86ic0bcbdbchfjhkkiijknwurswzrriiccdfikikiffik8cckkg0cikhcdcddkonglklfbhjkckkcj  #   *@",
"}>>~%,%%0jkgghkiialhgdff6cickpoicijjjhi6bdfhkcicfffmfekhbjclkkkoorotpfopegfhmfgiegetffifkkilbhkihkibckclefihjcjb5bhchcc0~*<,*[,[",
"!,<{!*,*00bcjbjcjhbjj6h_ircbllk86klmcjdbhmcfijdicicghkckbkliffhmmgggkofhptfigikmopekkjjfiikkjjkiddjbimegefbjb86_810bbjj_%~[!7>[>",
",@$*$*$$b6j0cid80jcikekjo00hlkj_fibbbkihkffkbicighbkkbccahkfeiegiccfekgtseftgrtnotfflffpeikilikld0abcgfkb0a_:^:_8bjb8_1j{!}{>,>>",
",~[!%$*,bcicfd68icbaikch_5djba]0daj6hiihlolhihihbhfcbhcjgglglefegifkoopgemrrtqteghikfgogkggcclhidbbbhcjdb_8_5aa558_1:/_8![{~>{> ",
"!*[ $$#4fikggi6li060djb01j60c8jdkimemkcfggd0cfmkcccccicpglefmpgkjhgepeooronugenlhfmeegkljd0ic6cpdjdd6bj0aa_:81_a10bb0_b0!!,!,>~!",
"$}*$$ @$8meglhhj0j6bfffib0bjajfioeilmdcrrrmfmfhmgkfccjeeikefdccdkogfggffefonptgiegekl05_8__jihkmkccjba_aj_//:88551_/10b:9}%!=>%~",
"!%*!~$ $mmikdk_8_jkepfi80cibdbfcfkogpgmgmpeepfphikdd0ffcfgmofkkgfiilfgfftrrmckkhfgmid0hh000bhgggkig0888a5///:_:5^::5^^:/[{>}9{~*",
"%*$,+&#$fglfj8ajjchoefb5cidjccbbchkkiklkkorrrpgekichiegffigfferefefemflfptpmglffefajdd0j0cfjhkhijdh_b1a88__//|5^|115_b8_,~>7% *~",
"@4@'^_/5+$$,~%**^/aj0)@^:^(|]&)&  @ @@@++4&'|]&+5/)/0555/_5ab88|a0ba01_5&)@# +@.*%%~!*<~~,~,<  *~,~,,,~}*$<< $,*)&&')^+^@ < &*@.",
"](@//.] ~$  4#@@ahj8|')]])((]^^(@@@ ,@@@@+@.@ ''^:0d0_15800a/_:80di0b658'@@'&+&+~{~~,!,,*{,,*%%<<<,%,~![$%,    $+&.'+4&)<,*..$@#",
"@#].+<$$$@'4')((k:'.4+//5^/:/(|^@4 <****@4&&+'')abj8^__808_886b6bjb8_^_5' +$$  ~,~%%*$,* <~*$**~<,~**<<{$ ,~,*,*)&&'++''~,'@$#^.",
"'@ +'('@#,*+4@%=~$+#+)//^^://585'4@@@$#@#'$@+&'&_:/|(//^8_0b6b0_a055^//^ @,#@@$@{}~*%% *,%,,*%*$*,,* <, )+$*$*%*&+'&&''4%$@$'(&.",
"()$##4++<$% %[>~^)&(()]))^^/5:5^  '*++'#@$@+4@''^:^55a8b8600b8_1a5|])^((  @# , <~*{!,*,{~!,$%<,!*~{!}9%~+'.]&+4+)):.&))& '.+.'()",
"|#(.@ *& <# #' *&)5/)'|/(//55:/)   @#.  <+$@@#++5(1__|^&)&(^.+)^.&&.:(^&,$#$$* @,!%!~{!~{%*<~,,,99}>>>!,$@@.&&+ (5'&)))&4.&&()|/",
",'))+'+ <#4 +<!7':^^)^(/|^/:5/^). *$$4' &' @<I 4:/555/5]((&'.)]&&&&:(('+$$<$%#+.,*%~%~*, ~$**,<,!~,!!~~,$ @4++$@1@)^|/^^)...'1)$",
"4+)+4+'+<<@(*=23((&@(]^:^^^^|^^( $@#@+#4'@'. 444(||5^5)^'()&'&|.&/^^/&(| #$!*@+@J*<~,*%*~},~,,}![,!~*~<~++#4++&&)80___5_((]<@$<$"};
