/* XPM */
static char * light_blue_concrete_xpm[] = {
"128 128 45 1",
" 	c #008DC3",
".	c #008EC5",
"+	c #008EC4",
"@	c #008CC3",
"#	c #008BC2",
"$	c #008DC4",
"%	c #008CC2",
"&	c #008FC5",
"*	c #0089C0",
"=	c #0087BD",
"-	c #008AC1",
";	c #0088BF",
">	c #0089C1",
",	c #008BC1",
"'	c #0090C6",
")	c #008AC0",
"!	c #0090C7",
"~	c #008DC5",
"{	c #0089BF",
"]	c #008CC4",
"^	c #008FC6",
"/	c #0091C7",
"(	c #008BC3",
"_	c #008AC2",
":	c #0093CA",
"<	c #008EC6",
"[	c #0091C8",
"}	c #008FC7",
"|	c #0088BE",
"1	c #008BC0",
"2	c #0089BE",
"3	c #0092C9",
"4	c #0086BB",
"5	c #008ABF",
"6	c #0086BC",
"7	c #0085BB",
"8	c #0093C9",
"9	c #0087BC",
"0	c #0088BD",
"a	c #0092C8",
"b	c #0095CC",
"c	c #0087BE",
"d	c #0090C8",
"e	c #0094CB",
"f	c #008CC1",
" ..   +++@@#$ $ % $+.&$ *=-#*;*>,%@'$$$@@#$$)-$$    ,  % $%-%@.!$$~$@##@$#+${-.@]@@$$-#$^'+!/'$ @$@$@--@.'^&$ &!^^^ ^+&+..@,+$$ ",
"@ .^^^ .%@@#,$$  ,$  %. @]@](_*-{@$..%,%$ +$.$@@,,),-{,%+$@#@.@$.$~$]]$@ $$.:!..~$@##$%- &^.&..$,$$@@@.@&^..++$$&&.^'.^&+$  $$$$",
"$..!.^.  +@,@@.$&%% ..+^*-(]@@#-!+@ .!-@@@@$.$@@,$ @,#%)#$.# $^ #$$$$@@@$$.@^.+.$$^$#@@#&.. $..^<$#@@@$#$+.....$+ $.&.+.&$$+  ^^",
"+$^$^.'.$$$@),%.&.&%#@+^~####]<_@.$  @. .. #$  % % %+ @ $##@{,%+@#]##]*$$@$$@^)#$@@$@@@-@+..^+$ @#@$$@$. +.+ ^.^&& .^.@$ .+&'$ $",
"^..^.. .#.#@#)-#+ @$&+^.$]$.]@~$$.$..$.+$@.^$%@ % $ $+ ,  ,##-)#@--#-@@@.@..$. @$@$..$.@$&&.+^^.@@##@#@@ @%.^^'^.+.^$!@.+.$@.&%!",
"+@ .+^+ @+$ @,@{-.%$.&&&(#]@@(@@ ....^+#@+ %%%,#%,$% %++@%#%$ $%#@#,#-#$....^+..$<~-#$@$&&$.+$.&@$$.@^$.^+$ +'&&..^!^^!%%%+.^$[.",
"+&+$.^/^.$ $$#@){,+&^!^^~@]$~(#$$$+.$.^$ $ $%$.+@#,%)%%%+    $@%--$@##]$$+@...^$]$~^$$.$.$&.^^.+~$@$.$$.![.$^.^.&+^^&![!..+.+..&",
"^.,&''^^!}.$@%..%)%%$^^&]#(#$@#_$++$$@$  ,@.@*,%%,-%@#%%$@#%... ..@$$$$#.$.$$^^^.~$^$)@$^..!^.&&~]$@~~@@.'^+% $.+$$$^&^&$$$,$.&!",
"'^'^ ^!'!^+.+&&!'% $$.+^.$.^$$@.++.&++^$@%#%@#)% .+$.$%$$@$$%+^.+^'.^&&^^.$$..$!$@.$@#$]^^&$''^^..$.+&^^%$ %%,  @@#@@@<~]<@..#$.",
"!^.^!!' ^&^ .  $$@#, $.^.@$..$.+.+@+.$ #@@$$. @@@.$.+$@.&&.&!^[!^+^^......^.$$$$~$$@..@$$^&..'!^++&.^$$'.+  %$$%#,)-@@@.~.$$. @#",
"^ &^..^.&^^+&+&'.+ @@$.^+@ +.$+.^^ $.!$$%.@@#@ %@^$$$#$$&...^.!^.^.!!.&.#@. $@$ @@$.@.~## ./!.+&.++..^+.% + $+&$$@@--@$.^$^@$^$@",
"^!&$&..'^+.&^&. !^+$$&&.$.....$$.$$.$^[&#@%# @+ % $@ $$..$.$+^.'!!!'.+. %@^@#@% @]$$.$.$$  &.$..&.^&^..'%   % $$@###--@$]@@$@]$$",
"&^!&&&$$^^^&^^.^^.^$@&..+$$+$$$$^&$^^.!'$@%$..$+..@..@$.^&+$+ .$&.+^!+$ $ .$$#$.@]~$@@#@.  +&&.^..^''!^&%%%@ %%$@##@@*)@$$-#(#@]",
" &.$+.$...&.$'^ &++^ @+&..+$$# $.&$..+&^$%, +@$...^.@$@$^'&$#.^&..   &&! @%$$  $@$$@#@##$+$.&.$^.+ .^^.^$$ #@%@ @@#@,#*-@@-{$@@%",
"...&+...+ ^^^^..$.^..$+&.$@$$.@ $.+&^^+^$ @$. $..$+ +^^.^^..$.^^$ #%%%$@@%@@+$ #)@$.@....$^..^..$&'.+%..,#  @%% @@#$@*|{@-@@$$@@",
"....+++@&^!&^^'^^^![!.$^.$$.$$.  $$%@.$ .$$$$$$+$.$^..^++$^'$$..$%#  ^ ^.$.^^..^]$$..@..&^$+$..&&.^^&^..%%%%$  @.$@(]$,---),@$$@",
"&+&..^..$..$$$$$@+ @%% $''! $.$ @@@-#@ $&^...^^.$]$$$.@@$$~$##@@..%%.%.+ 1@  %. &^^.''^^ $$ +$ .$+++^&^.+$@$ $$..^..+ @ %%,{+&.^",
"..++.&..$.^^.$..@ @%.@%%..&/.$%@#,@@,$@$+^^ @.&!...@$.@@@@#~.#-$$.^$@.&$%'%2%% $^&'!^.&'. +$$^ $..$&.^..% $$ @$@& $@. , + $.@+. ",
"$+$&$^++@@$$@$$$#@ @ @,, ..^^+$ @@,%-,@+$+ & $ ^$$$$$@@@.@@$$~##$$%--@.. , ^.@%# .&+^...&^ @@$^^+ $. $@. @  $$$.&&.@ @ $  @$&@%$",
"$$+ ^$.+ @$.+,$^+@,%@ $@ $.^&+%.@$@,#$$%..$&^$..~]@@@$@]@.~@.@@@%@@@%-.$%    .@.  +&..$^!+^&.^ ..+$$$$/.^$.^$$.$+..$ + $+$%%$ %+",
". & .+.& $.$ .  @$ % @%@. $..'!'^.$%,#..  +&+..+@]%#@@$@~$$$<<@* %@%@#@ #%@%,$$% %,$..$.^$$$+.@+&+ $ $$^.@$.@$$$^^.+  ++.$++.+.^",
"+.$^ ^.^$.$$$$..$  %%@,%+ $.&&.^+ &#--@@^&$$@.++$#]@@@$@@]$$@##@-,## )% ,{%%#%,%+ @%@ $ $++$ .&+.  $$$@@+..&..&+++&.+$+$^$$+ .+ ",
"$$&^..^^.@....^^ + %% %)% ..&.^^.^. %,-%.&+..++.@$]@@@#@@@#-(@##%%,-@##$+.,@ %# +^$ $$  @+..&@&.'..$+  +$$.+^$$$.^^'.$@+.&$.%.$ ",
".+^^$+&.@$ +#$$   $+@    .&&&&&$$$. %@% &.$+^...$@]$$$@@@]@##$$$ %#-#-,%-,#@%% $^$. @&$ ..!^.&+++'+  +$$$$$..$..'^^&^^!. +.&#  +",
"   $@  $%% $,,1 @$@%,#,|#%#@@@ $$ $@ @@$#$@#(@@#&^&^&^&+^^^^&$!^.+ ..@$ %@@$$$@#@%##,$$@.^&.&'$^^&&+$.+..+.&^^+.+  $^  %&&.&^++.",
"  ++%#$$.,@$.+%,),# @-%%#@@ @+.$$ $@+$%@@#]$@#(#+&&+.^'&+.&+.. /'& $+$.^@@#-@,@@#-(,#]#...+^.@+.&'.+ &...^..^!%.%$+$+ %$..$.@ ++",
"$  , + $.,%  $+ @ ,)%%,#.@$ $ $.@$$#$@@@#(@@]@(_$++$ +@ ^. @ +^!!$.$&^^'@#@@$.@]$@$.$@#$.^&^&!..$.+ @ !!..$$&.!&@ $$ +, ^....+$ ",
"%%% ,%@@ .    ,%%% @@@$@@$%@$%@$.$@$$@@.((@-(_](+. +  ++ .&^^  ^..$+.^++$$$.@#~..$$$$@#@@$+^'.&...$$.^+$.++++$&&%),,@% ,+.+&++&+",
"@%# @%%$  @,, %%@,@ $%#@$$@%{@%{, %@$$$$@]@]@$#(+!'^.+& $$$.$ #.!.^@ +^^.~@.<^@@#@$<..## $^^$@$ $.&...$.^^.+..$&%$ )),,@+..^$$$.",
"%@@%%),,%)),$@ ,,%%#@%$$+$$$$.@!$#)@$$.^(####@#@..+^^'&^.^.^&.&%@@@,  $.$@.$$@$]$$@@$.]...+.$+. @ % +$$$+...++.$#@#^ #,% .. .$.$",
" @@@@,,,%,%%)% @ ##%#%@ $^.+.,%@@,+$.$$%#-#]@(-(& .^+&'.^^![/!   +&'^+.$@$$@#@@##@,,#@]$+&..+..^! & +.&$@.@ ^$++),,),%%%%$$@ ++.",
"   @,%,,%,%##-%   $% ,@@.@@#%###%#@%$.$$@#_(@<$@++&...+&.!'^!.&$. $.^'^^@@$$@@$@*-@]$#,@$..+.$.   $$&&^'+ .%.$^@{@%,),#) @ $$+.^",
"...$@@@%@@@$#  .&^.+$$ @-(#->*;-+.$&@.^^ %@  % ,$.$@  $$ @   %,%$$$$.. .$$$..@$.. # %#@|%@@@++.+$@$$@$&.'^^& @&3  .&$.$@@,@.$..+",
"^.$.$$$@#@## @@@+$&^.++@-#-@-*@_+ @$^&&.@%,@@%%,@ @+$+.$  $%  ),#.@#@$$.$$ $$$$.^.^ ^ $$@,%$#%@$$@ $$$ .^!'.&#$[&$.+.@$%))#@$#&^",
"+.$^!^$ @# $$$..^&.&$$ %-**-_##($..&..$. @@ ,@#@.$$.$$$%%.$ 4#,#$.$$$ {@)$ .@$..+$.$.$$$$$$$.$....$....$^..&++ '.+ @%+,,,#,%%@@.",
"$#$..$$+@$%#%,%%$+$^&. #;***-###^^5 .&..@ %  @@%$ .^..&^ @%%/@.%.+%%$.56. $% ..$.$@%.^&$$..$$$$+$@ ++$ $.  %,$.$$+.%$.,%@@,$$@% ",
"^!$@%.$@@$## $^$+..$$##%_-**__@@++'.^^..@@ ,@ @,.^$.$$@@,#@$%+%%$$&@$.3[^+$@%$$+@..$^@.$+$$$ $$$+%$$$$@%+  +. $@$+.+ .%-,#@%$&..",
". #$$@%@ @ @,$,$++$ .+.@*_*;*#-*$..+$ &+@%@%,#  $.$$ $.$%%$$+%@@@# +%$$$...$ %$++$....@+ ..@$..$$$$@+$.$^.$.&++ %.. @ $,-@@ # +.",
" .^$+$ @#,)#{) @$  $ @$%;;#(#-@(.$+&^..&#%,,,,%  +.$.$^&$ +.$+@+..$..$..^.$$@$...^^$$^ $,$% $,$. #@%++$ .$+^^^^^  $..&.+#@$$++@$",
"...@$$$-),)--,-%$+% $+.&@$@####..^^.+...,@%@  @ $@$+@@$.$@#$. {+!^^#.$$^@@%  $$$$ .$$ -@ #+,@+ @$,,%@@  %@%@.&.^^^^.&+.  $$$,@@@",
"%.$$@$#.,,#)2),#$%+@  ..+$%@  %%^.^.&&.+  %%% $@]##$]@@$.^.$.^3^..^!.$%,,$@%,,,#+@ ++^'+$#@,$ $$2^..&&&!$@###~.@&'+.+& +,,- %%%,",
".  $@$@@4, %{),% @$@@$$$ , @%@@ ^.^^...&  $%%,%,##@@@@$@$.$ $$$$$$..$..,,)@,, #|$$$$^^^.^+^.@$$^'&..+^^^~.$@$#~.^'[!+&&[^^ @$#  ",
"$...$$@.!,%@,#@7@@$.@$+.$+,$ @$ ^^+&&&&$%%%@ # &$$##~@@$..+..$@.$+$^#$$#,,{)#- ,%@$+% $$@@@$$% &^+@+$.^!$@]]@#@@.^/[^.+$%%%%@ @@",
"$$$$$@  ,$  %- &.$$$+.$$$%% +$ %$.&.+.$.@+$%# %#@$.$@$.$+.+.+..^.  $+@ @% $,)),)%%+$.!^ ,%@@^$  &+$+&.&.@@]@$@%#&..^$+&& @.$  @@",
"$$ $.$..@%@ %%#{....^..$%@ %@+ @^&!^..^&   %   %@]$$.~#@|@.$$$.....$.$@@%,%,))))@% @ ..++@$  $+$..$$$.++@-###]].&^.^!.!'+@@  @,,",
"%$.$...$$$#, %@+#$$.@$$$$   +%) .^^^.!&. @%@  +#@#@-@@$@&$$$.^....$$$+.+$+$%%%,% $^$@.^!@$+$$$..&...^.+^$$]@]]$.^.^&'!+^@ %$ @%,",
"%%@$$+@   +@%% +.$$.+..$% %%@$++..&.+& +        @#@@@@@$.$$. ..&.$.$$+.$  +@ @%%+$^.%% +!.$.^$ $$&^.+++.@$@#@@-@. $&&.& {%% %% #",
"$..^$.^.@ ,$%%@$...$.$$$,%%@%% +^!^'.&&'$+ $ %%%##@]$~~$.+$$$% +. @$$.$^@ % @ %% +&.!+%@,^$$..$@^ &&^.+ -@@$@@@- ^&&.^!&%$ $$@@%",
"-@@#]@##!.^+|=$+^&.$^&.+^&.'!.+^^$+^.'+^^+^$^^^&^@.$.$.@..@ @,@@$$@@$+ %%% % %#%@,@.@}$$'^&..&.++. ^&&^&~#$@-@@$&+.^.&..@$ -$$$$",
"@@$$@@#@++&^8&+^'^'!'!'&.^.$$&..!/^^..+$^'+^.^+,-#$$$ +.$$...^,$@@ %%#@$@% %, % @###$%@#@%$ &.$&$+.$^.++@$-$.$$@.....$.^ #, ,,%%",
"@($~#@@$^.++^...&.'!!^..&^.@$.&^.&^^.$.+.&&&. $[+$..$$^^^++.+..^..$#$.+$@ @@@ %%#$~$@$@@$'...+.&.+.$$.^.@@@]@@@#+++. +.+.$$%@  #",
"$#@@$##,$^++.^.!^^^&.^^++$..+.$.^^^^.&.+^.$.&+$%$$ $..+...$$$$$.@.$.%#%$@ ++%%% @@#<~$$)$..@.^&$+.&+^^&^$.$@@$@#+&^...+^$$@@.$# ",
"]@$$$$$$...^+.'^'^.^!.&.+^..+'^.!!!!^^^|.&.. .^.$#@$@@&+^+$...$..@ @ .^+%, #+  %-#$.$$]@.$^. + ..$...$& @@$@.$@$%.^'&+ %+%@@@ .$",
",#@@$$-@'&. +.&&+!'&....+. $+.&$^'!^.!![.!!!&&&$$9$@ +#@%@+@$.^$$$$@$$++@%,, @%%@$#@@.-#+.+ $ ++$$$$+..^@@$@]@@$$$$+.^^+$%@..$ $",
"@##$#@@@.$+.&^%&.^&.&..$ .+.$...&&&^.&![!.&//&.$%@$$@#$ +@}^. +.. ..^^..#%%,0)),$#@]$$$@^.$+$.@$  &+&$$&$@~..~.@+$$+...+.^@#$@@,",
"@##*#@$@ @$.. ^'^^!^ .$% &.&'^^'&^^+..!/'!^^!^$@%@@%%$@%#.@.$.$.$$$.$$$%%@% +,#,{#@--#$@$+^.$.%.. + $...$@$$.#$#.+).+.&.$$.@@,$$",
"$@$. +$+$$@$.$@$^^''&.${@$...$$$&^'.+.@$$@.@@$$$@#{#@$##$ ..^.#$$&$$+..!##]-_@#$^.!^.++$% +$%@%)@#@@@$@].+!&.! .^^!^.&&&@@$#@+^%",
" & .  @+....$.+@ ..^^$!%,.$ +^$$^&&..^.$ .^^&^!...^$@@)$$$$$9$'+.$$+&..&]@*]]$(#...^.+. #-,#,%.+#@$@#@@#..$+!^!.$++$....$$@% # $",
". .!%..$$$ ..$@@.+++&+$+ %^^....^^.'...^^..^^^^$-#$.$$...$$@.-$.+..$.& $(@]]]@$$^&.&'.^&,#$  %% ~@$@@@#$.+^^+&^'!&&.+.. $$@@ $ $",
".^+&%.^+$$@@^..++.. ^!   $@@@.&.&...&& ...$.^@^+.~.$^.@~+&^^.  .+'^ , & @#_~#]#@$+!..+ $ @%@@ #%$@$@@$#@.+$.+&&$$$.^.+&^$@%$$@#@",
"+$ +'+.'$.$ $$$#%..^&$ 5@ @$#%$$^^'^^. ^..$@.&.$@$@.@.<# .^  $$+..^!^  .-(-##--(^+$$$.$,%  @$  @@@@$$@$#^+&^....+..^....$@@%, $ ",
"+^^^ +$$$$$.@$@+ &&...a , @ ..++&^&^^&^..^.^^^$^$~@$$$@<..$.!.&+^'^^+^ ,-#]#@@#-....&.&.,),,-%%#.@@@#@,$+&..$..^^$^...+^. %,@ @$",
"$ @%+ ...$  @@..  .&^+ +.^.$  $+&$..^&^^.$$$.@.&$$$$@$$@$$^.^$+.+....6+.#_#($.((....$$+%#%%#%%@@@##@$$$$^&^^^^&$ .&..^!.$.+@@@$$",
"+.^&'.^&^.. +.++!.$^'.!& $.$ #{%@  +. $..+$$..$.$$.$@#$.%@$..@%+!^!&'b[&-##]@@_-.+..&$+^%,% ,%%,@@@#@@@.!..+$@&$ .&^.&..$.$%%#$$",
"$~.<..]].^..@% '.+%+^!..@-#$@..#%%#@,%%$$....]$$+..^^^+$$ #%..%^.$$$ ^.^%#,,)% %#]$$.@@$'&++..&^$$..$+$+.+$ @@ .@#@@##]@--.@$@@<",
"@$$@@<@@.$+..$@@+&++$+^'#.%--#@%%%%# %%%]~~@~$@-.^'! +.'$$ -@.$.!!!.  .+.,, #@%%@$#@$@$.&&'!&+^..%$+.^.^..$.@ . ..@$$@$.<$##@$@$",
"##]%#-@] $.!'/!$+.%+. %%,@@@$$@@,@%%$ $@$@$$#@#-$+&$!^+.+$^$.$+.+.'['^!+%,$%@@$ ]@@##@]@+$@.^&&&.  ...=.^$$$@$$$$@$--$$$@]@@@@#$",
"$@$@###]!.'^^..^$$ @@^$^~@@@-;##,,%%@  +<~$$@$$$&.'^'^^^^..^$&..^^^!'^//$%, @@$@$,#@@#,#+.$  @@@@+$@@@[@ @%#@#@.$.$<$@#$@@#@]]#]",
"###@$~@@^$.+.^.. %@%$. +$@###@#% %-,###@]$$$$@@$'^..@.^^..^!+#@$.+'+&'.& %%, ,,%@-#;c#,@+..&!^^&$ @ $,.$@ @ @@#.$$#$~..$$~@$@$@#",
"@$~$$@#-&.+&$ ..&. $%%.$@]~@$]@@, $%%@ ,@@#@($@$+$   $$$%+..^@. &++^+&+$%   @%%%$@@@,-,@$ &+$..&+..+@$.$@## @@$$$.<.$$$$$$@@@$$#",
"$@$$@~@#^'.$+^ $&^'+%$ .#]@~$.$$ @$  $%%]$$$@$~~^^/&.@@  @...+.. $+.^+$.@ @%   @@@@]@@#@.$  ++ %$+.$$@ $&^$$$$@$@$$$@@$$$..@@@]@",
"~#@~..$$'^^&+$+^^&^&+..^<$###-@@-)#,%$@ @$.]~@## +.&$....$..^@ @.+^+^^'&%  $#  $$$$@#$@@$ .$.^!^$$ $$.^ @%@+$@%###@@@@#@@@]@@#@$",
"^!.+ ..$$$&.$+-%% .!+$..@$@-#@#]$ $++'...$+^.&$$#-*#@_#@@@#$@@#@  &+ +.+..^$^... @+^ , @)##@.$$.!!!+$&++#@-#@###++.&^..^$.@.$$$.",
"$^^.^^^.^^$@$..$&+$ .&..$$.##,*#.@@$$.^'. $  +&.#@@#@@@#$~@$@@## +$ +   @$.$$ @+. ,%^)@ ,#$$]#@]+ $&&'&.$@#)@@-$.&..^!&^$$.@$$++",
" @..$.+ .$+.$^.$ .&!'!&.@@$.##.#+$ .$+$+$$^^^&. ##]]##_#,@$$$@@@  +++.+^+.$$ $.@$$&  @% @@#@#@@#&.^^&^..$]$@#@@@^''^^^^^....&.$.",
"...^$+^^+%%@,  .^.^.!' --@$.!$@#$$+$..^&+^+.^..+@](]((@@$@$$]]$@  +$&%.+^$ @@#@-$^ ,%@++$-####]#$..^.$!^$$$$@$$$^^&^^^^&.$.$+...",
"$%@$. .$..%%,,@$[^^{.![&@$@, @]# ^&$.%^^^^^&$^^ ##-(~(--@@$@@@$@.&+&&'&+$ $$$..$ $^.  #$@$@]@@]$^&.^&^^!.!..$<<@.&^^^..'..^^^..$",
".^.$.@@@ $^.! +$^!'',.!!.~^^@$.. ++$% &^$$.&'+^.]#-@(#@#@@#@]$-7%  +++ $.$^...^3[^!^++$$@$$$#@@$.^!^&&^^@~..$$.$^$.+.&&&^.@.$$+.",
"^..+.^$ ++.$.$ #$.&!! .&##$]$$~-+$..&$.&.$$+&&+.@.]####@@@]$##^}% +   %% .@$$.@$'!'!^^ $@$#@]##@'.+!^&^+$$^.@$$@.^^++$ +..$@+...",
"^^+$$+$@%,|@@$$$.+.+@&&$#@]$..$#%@%&$$+.$$$@+.& #]]@@-_>,###@$$. + + + %@^^.$$}.^^'^'^^^*@@##$$@^...++ $@@]$$$.$^..&......$.@$^.",
".]~##--#*@+@-{|$%$,),{%%$$ @+ @+$$++$@$&$$$$%$+..+.^&.&&&^^!^.&.^&^^^..^(_##--@]$.]###]@^@@@@#..$  @%#%@&&&&&.!.^^. $.&^$+.&&^&^",
"$~]~~-*#)-#@$$<#%#@$& %+$$..$d.$+ +^+$#%@@$@ .^.++.++^...$ $&^.. +&.%^..@]]@@#]$@$$]@@#_.^!+#@$..%@$%#%%.$ +&.$^+....+.+^'&.!!^^",
"@.$@<@----@@$..%%+,,%$%{$$@+#$.+^'   @ $#%%%$$ .++&&$+$.$&.# $&&^^^ $^&&##@~]#(^~]<.<<<]..!^^^.$$$@    +^&..+^.^^&&&+%$^!!.&&.^&",
"$~.$$$]#@-;-###$)2),, +$ @^.^.^!!^^^^+$,@@ $@ . +  +&$^!@++ +&&^+ .'.$&^@@##$]]#~$~]@#@(..^!$$.^@% %%@ @^ $..^&^!''+..&&^.'...&+",
"$#@@.$]]$@--);--%#,, +$$.#,%@$#$$.++^.$$,#+..$@$$+$+.^^&^.'&^)| &%^^&$..#]#]###@(##-@@(#%$.$^^$ $%@%%%@ .'+.^$.$^&^..+$+&!&^^!^'",
"$<$@@#@#@.#,$*-#,){@, $ ^.@  $$%.'&&'.&^#-@$.$$ $@.&^.% .$++@,,$+&&^.&.&]@#@#]$@@(_-##@#$$$$$.+@%%@$@, $ &!^^'^.'.^^^^&.&&^^&^&&",
"@@@@@@<^$#,-##-#@),,)#@%.@. @...!^^^^&&..@%$%##$&$@$.^+$^+^^/e&%+.&&^&.'##(#@@(](##--###@@ @$$$. ###%%),+ $+...$$&.^$.+&&!+.+.^.",
"@@#$~$$..]$@#--#)@#,+% @$ @.&.$@+&&^+&..+.^@$$@,..^.^'^.+++$^&.&@++'&^.&@$@@(#@###-*_*-#$@%#@$$ @%,,),,#.$&$&..^..&^^^^&&..+..^!",
".^.@^^^^.. $@-#- +&.$$. .&^$.^^'++'.^.++^+&^^^^.$+...&^+#$,#@@)$@(@@]]@@$&^^.+$++ @#%%,#,%%,-#@@  $ $$ .^......&$.@.$+$.$  @%@+$",
"^^@'..$+.....$@,,$.^'.. $$$ .^^.^&$^^+ ++!.&^&$$+&+.+++.]#@@#@.$]##](@#@.+&....+@.$  $  # @@#@ $..$  ..^^ ...&^^$$%#.^.$%,%)#%#+",
"....$..+...^.+$$$$ .+...+@@+$^^!.^...&+++&..&.^^!^.+$.+$-@#@@##@]##](]@@+$$.@%$.++@$$+^+@@@%#@$.+.&&'&&^!^&+.^+...^$#.$^#,@@%,@ ",
" .+$.^$$$$+..$@@&$^+..&^++.  $.+.@&.^++$@&.. +$ +$@. +$&@@#@@#@]@@#(@$((++++^^$++  $.&+^+$$$@, @..++^.^.&..&.!&^.+$^^.++  @+#   ",
"+..$+..$.$$@@$@%...&.$ +$..$  +% %+^^.$+$$..&... +.++@$+@@@.$@@@@@_]#(#($.+%.$ @.. .^&...$..$.^^^.+^..$..&^^..+^^.$.$$@$+,,% $.$",
".+^.$$...@+. @+ +&^...^$%@.$ $ $+.++.& ....+..$@@$$@@$ +@@@@@,#@-#@#@###.$.++.  %%.^^^&+ $$$$$$ .^^^!^+.^.$ $&...+$.$$$. @.$+%$ ",
"..+$%@,@..$@$$$.^.+.&^'&&  .++@#@. & +$+.+&.&&.&$   $+++$$@.$##]@#(###@#%+..+&. +.$ %+^+$ $$@@).^...&.!$''&.$++.$..$$$+@^+.%.+$%",
"@.+ +& @$^.. @ $^^^&&++^^&$&.$ #%$.$$. $^.&.$^&..+  &..+@@#$^..$#]#@_@]]&+&+. $@$$$$'&.^.#,# # ,+^ &^.+'..+&$..$+@+. $%$$,,@@6%%",
"$@.$.@ @##$#-;(@+.$$ $$@#@#@#$@*,%^$@.^.^.^.^^&.,%@   %%@  ,%@% $$ @@$+$@+$ @ ,^^.^+.$$+$$$@#--##$-@@###@(@#($]#^$&^^'^+..@@^!$$",
"$$$+$&$$#*;-_](@.$...@^%#%)@#-##%$$.+$++...^+..$#),,%+ @%%% @@$% $%-@@$@$@ @@ ^$.@%$  .$$$@.$@@#@#@@$$#@@]@#@-(]^. .^.^&% $.%,#@",
"#@@ +.#@-#(;|__#.+$$^$..~@@@$#-@@@$..&.+.&^&^!^$%%%%, % %%) $% +$ $&@@@.$$@$$.   @@%$@..@$@$$#~@$,-#@@$.--@*-(-_!++.+ ..^#*#$@,-",
"%% $ ..$_;-@#*]]..^.$$$#@..@@@]#  +.@ &$.$.&.& @,@%%% %% +$   $ .^.^$$@ ...@.$^. @%%@.@%$@$$#)---~~$]]$-@;--*###^&'..+@%@@@#---,",
"#$$@.$ $-#--]##-.+.^+%@,#$@$$#$#   +^%.+$..++^+.% %@ $+@@@%@@@ $.+^.^+ ##@$^$$+..%@@.$!^$@@#-*--#.$...@.$#(**-##$.&'^...@$@,,-,-",
"@#@$..$#@-$~#@##.+..$..$]@);#@]<&%%+ @$ $.$$ .f#.% $%@@$$%@ +  +..+$^..+  $$   @@@$$$$++##@@#-*-#$.$$.$$(-(-*(]]$^&.+&+&.@@@%%),",
"%%@@^!!$@$].<]-_@.$ @% ^.<.$@@#@++%.$+.. .^&+&'^,),%,%{%+ ,@$ $,$^^..... +$ %$@@@@,{.$$.@@@@#@-###@~$.@#----@-#@^..&!'....$ .$@,",
",@+$ $.'@]@@#(@_@@ +..$+@$.]@#-#@ ,%. # $ %@ .+ %   ##$% @@,  ,^.@$$$$^....+@%$..+$ { $@--#@@#---#@@$$.~#$(-@@_]!.+@$ @ +^.^+$%,",
"% $&++$.@$.+$.$.+%$ +  ++$^'@$%, @ #  % ,%#%{,%{,%$. $  ###--#@@@$ .+@@. ..+&..,@@+ $ .$%--$+$.$@ $ $-+.....+.'@+.^^$$.... .++@#",
"++.$$^$+#@$@.. $+   + +&^^.&!..$ $$ + . ,%#%,,,@$ @^{.....~@@@$$^!^^^..% +'&$@@! .@%@@%%$%#@$%@..@@#%$..^&&++%$&%@.^..+$+$.$$$$$",
"..& .^+^..@$+!^^  + $&+$^&.^!&$ $+   $@^)%% .$.@%@@@!.. @@]#$.$@@$$%$+^^!&..+$ #$@@ #-#@$+@@@$.$$$$#@ $ &^.&.${...+.+$  +..$ @$$",
"$ &$  +...^^.$.  +    & +^^ &.&+..&. @@%{#,@@$,+'$$@$ ++##@@@@$$$.$#+ %.$^!..+.+@,%@-,@@%*#%) %..$.&$#+.^^$.+'^$^$...$ @@@#@$$@@",
". ^&.&&+$$+.^$.^+   +  +..+$+&.!&+$ ..%+,,2){,%,+ #$#+$+@@,--#-%,% % .. +$. $$$++...@#-#$!..$ $@$+$$$@$$&^$. . +.$$++@ @.^$$$ $.",
",%$+$$+ .@@{% %$  &+++++..++..&^^&'&. @+#,)),),,.@%$.++..]@##@@$$+$. @-@ , &+$++# ..$@@ %%#$#@@$$@$.$$ .^ +% %@%##@@+@@ @,@$#@#,",
"&..$+&&$ .@.).$$  +%  +%..&..+^^^'..+$   %,,)%,%^!+^..^&].$~$@##$$$@@^.+^  $+&+{#)@@.$@#%$$.$ $@$....$$@ +,$ & @@$@#$$+%$@ . $@^",
"%$$....% ^^^$+$$+ &+, + $.^$ ^..&++.$$$$%% ,%-+%& @$$!^+]@~].$@].@.$.  $^.$.@#%/,@#%#$$$%$.$$@+@ @$ @$+)^!!...%.@$$ ^+$@@@@@$%@$",
"######@$&+^&!^'.$%... $.@....@. @..&+@.& $@$$^%$  @!!!!9~..$@.$@ %%% 41@@@,,{| $@@%$$]$$.$$$@)%  +%{&.^!''.^&^+{ %+$ @,,.. $+&.+",
"~@*,#@$@+'^^^^&+ $$&. @  $$ $$$^&++ ..+.@ @$%@$%@$.$$%$8$@$$@~~#.& ,%^%%%$%{+&+ @$]<@$@@$ @$$.%  %+ %,^+.. +%@$%.f0,,$%,,&++ .+^",
"@].@@@@@&&^..^.$$@+$.&.$$ $@$$@$&+..& .+.$ .$$.$!@,%%%@@@@@$@#$$$$+,,,,,%+.%,,%###@$<$@@$%$$%#$@  +@+ % @ .+^.^^)%%@%%+@&..$ &@.",
"$$@.@]@$&^'^^'. &.@+..!$$$$.$$+%.+&^^^++$$+.  ^$ ^.$@# +..@@@$#@%%  %#@%,,,%%, $@#(#$,@#%%@ #${ % ,'^+.@+.$.&%+! ,%%%%%+&+^! ^5+",
"@$@@@@##$$. &.. ,@^$++.&.$$$$$$$$^^&^^+..$.+$+$  ^% ..^^$@~^.@<~@,$+ @,%)@$.$ ,+$$-##.@@@,%$#@@@$ ,$%$+.^^'^&^&$+ % $ ++^..+.^.+",
"@@#(@$$@&...+ $+.!^.+^.+@$ @#$ +... .^+ $@@.+@$.$$@.@^$$].##.$-@$$&.&@%@##%+.. @.]$@@#@-%@))##@#@@%&.&&^''$+[^.+###%%,,{^.$++ $+",
"#-c@$.}.'..+.^&.'+$&&...@@@## @$.^ .$   #@$.@$..$+@,$ $@###@$.$@@ + $@ %@@,@ %$).@$#*@-#@@@),% @  $$.&^...!&+^.@%,%, % %!!&@.^ $",
"] ##]~$$^&...^.'++^.+$$..$$$@@@ &... $$+ .^+..^.$@,$@@$.$$@##~@,%{# .^%%,,%@@,$&]#@$]-#).$@#--## @@%%+   +{+.+..% .&+..%$!/&&! .",
"$$..@@$.$..~$^~@..@. .$ @ %%,,$%..^.+&.& -#.$$.$..+@@@%$$^^ @ $ @@..$$.$+$ +&/&&!!&..$ %  %-) #%%$ ++%@ % '%,{@$]@..@~$~$$..@)#@",
" .+%  $.^<$$@@]$ $$$$#$$@#%%,,,# .++@++$@@+$+$ ..^.##%$.^$%.. $-@ @@@.+..@%,@++^'!^!^'&&%@@$,%@%%$$   @.% @+ $ @.$$]@$@@$. $+!$$",
".$.^^.$+#@^^$$<@.$ +$##&%,#)%%,,+.&.^++$@$ $...$$$+$ @@^$..!!.,% @@$.^$$.!&&..'&.^.+$^!^$&$@#$%+@+  # &+%$.#@.$ #@@~]$@@,..$$$.+",
".. +^..##$$~<$@@$$+ .$@)%% ,)%#,&&$+^^.^$@@. %$.+&+,^$ ####%% @@@$%%@$@.. .&+ ++.!!&''^+^ @,%+$^.+$&$@..@@$.++..$#@@@$$*.@$+@@..",
"$$@@$^#@-@@.].]$$.$^.$%#,, ,,% %$+$&^+$@%@ @..$#$%),%+$..@)% %,@@@%$&& $+&^&$ .!!!!'!%!' +$$ $ @&$@%$$..@%%$@@+ @##@@@$$@@  @@%.",
"$$.$$@-,@$$$~~$$.@.....@,,,%,%%,.$.$.+$.$$ $$${##@^+,%#%@$%#,%,%%$,#+$+$$@% ^& .^'.!.!++..  ,+!!^.!++$.+%%%,,,) #@~~$@#@.....% $",
"$$$%$$^+##@$]~$$$$@@..@%,%,,, , ^!^&$&.$$$+$#%$^.$#,%@&##+$),% @$!^$@ $$+$$++.+$ +^^+$$$$+  $ #+!!+!....@$+ @ ,@~$@@.$]@$$%@@ #@",
"$^ .$..$.#@@$$@@@@$@@###={)5*,)#+&+2&$ &.$@@+.$@$..$.$!^!^^$,^^..@^. $.$&.^.+%,.^.& +.$ $+$^.++.''&&..+$%%% ++$ $~@.#$.$.$..$@@@"};
