/* XPM */
static char * white_concrete_xpm[] = {
"128 128 54 1",
" 	c #D5DADB",
".	c #D7DBDC",
"+	c #D6DADB",
"@	c #D6DBDC",
"#	c #D6DBDB",
"$	c #D5DADA",
"%	c #D4D9DA",
"&	c #D5D9DA",
"*	c #D7DCDC",
"=	c #D8DCDD",
"-	c #D3D7D8",
";	c #D3D8D9",
">	c #D4D9D9",
",	c #D3D8D8",
"'	c #D4D8D9",
")	c #D8DDDD",
"!	c #D9DEDF",
"~	c #D7DCDD",
"{	c #D2D7D7",
"]	c #D9DDDE",
"^	c #D9DEDE",
"/	c #DBE0E0",
"(	c #D8DDDE",
"_	c #DADEDF",
":	c #D2D7D8",
"<	c #D8DCDC",
"[	c #DADFDF",
"}	c #D1D6D7",
"|	c #D9DCDD",
"1	c #D9DDDD",
"2	c #D8DBDC",
"3	c #DADDDE",
"4	c #D6D9DA",
"5	c #D7DBDB",
"6	c #D7DADB",
"7	c #DADEDE",
"8	c #D6DADA",
"9	c #D1D6D6",
"0	c #D0D4D5",
"a	c #CFD4D4",
"b	c #DBDFE0",
"c	c #D5D9D9",
"d	c #DCE0E1",
"e	c #D2D6D6",
"f	c #D3D7D7",
"g	c #DCDFE0",
"h	c #D1D5D6",
"i	c #D4D8D8",
"j	c #D2D6D7",
"k	c #D5D8D9",
"l	c #D0D5D5",
"m	c #CFD4D5",
"n	c #DDE1E2",
"o	c #D0D5D6",
" ..+++@#@$ %#+++&#..*=.#$-$#&;>$&#.=***.$>++,'##)===#==*.*#&#.)!~==*.#+.#$*@{'~#=**))$#=)].]^].#@*#~.$$#*)=*++*))))#).=...$>#+#$",
"$$.==*+.$ $&'##++>.+#&*#*=*=*#&$,.*)=+$+++.#*#$$+#$#+%#.=*#+#)@=)*=****##..*/]~~))~#.=.$+==*==*@$**.@.)@*~*.@###==~)]=)=##$$++##",
"+..(*=.++@$>$$.#=$$+**.)&+.=~*#+^=#.)_>.$$ @.#$ #)==#.*$+*)+.*].+~~~~.##..*#)=**==_=.~.#=*=#@~*]]*#...*+##*..*.#.#.*==*=*++#$$==",
".#=#~.).###$,>$*===$&+.)]##..=^#.==...=.*.+>@+ &=*)*])~=~++#'&#=@+*##*'~@#.@+),$)*~=*..++*=*=*##@#.~*@*) .*@+=*===#*)*+@+.@*)#+#",
"~..~.*+*&.%$>;'&.#+.=.==)=)^=~()*)*))*)=+$.=+&$+*)])]]=#..$ +&>+@$$ &.@#*+=~.~$$=*=(])]*@==~.()=.. #####+$&.~=))~.~=.]+*@*+$.*&]",
"#$$.#*@$ .#+$>${'*$@====.#=~*.~*.)=)(^=+ .+&&$>&*#).)*]]@++#~.*#+#+$+$+*====)***)^) .=*===.*.@*=.**)@]=)=## .=**=*)^(]^$&&#.*#^*",
"#*#+.=]**@+##& ,:>.=)])()*=)].#=**===)^.+#++&#..=..*$..*=....*.#&$*. +*~.*#===).==)_)=]==.=*)(**=*.=)=~))_*#=*=.=.))=]_]..@*@*.*",
"=.,*))==()*+$&..$'$$.)(==..#=*##*==<*#*.+' .$->&.@+*=..*~#+#)().)).*==*+=.**.)])^]=!=>*=)~=])~===*=@==#.*)=#$+#.*...)))=+#+'#.*]",
"~...&.)~(=#.#**])& ##.#====^**#)#.==*.).$&&& &,$#~*.*@$@+$++'#=.+.=#.@..)~#@*=.^)~]=*#====*+))=~..#.#*==*)).*#===.@=.~^)*(#))+*)",
")*..=)~%=*=+.  #+$>>+#.*=#~))*(=*.+.*@#&$$@@.+ $+*@~*.+*****]=_)*+.*@###~=)*@.@.())~]]*=+~*..)))#@*.~##)^]==*(]*.+$+**.]=)==).##",
"*%.*#@*+*)=.*.*)*#$$$+.**#.====))]##*]##&. $%$ &+).*@$.@*...=.)=#*#==@.#$#*##+.#=*)]*^]+> .^)*@*.@#**~.**=])]]_])*~ +*=]]*]@*^*.",
".=. @@@~~#**=*.+]*#++**.*)==)=~~=..=#)[=% &>+$@+ #*+#*.=.#*#@=*))=)~@+#$$#]#$#$#*=)=]=]=# +**#*.*.=*=..)*=))*=)]*..# +*=*..~.*~*",
".*=@..+ ~=)*~~.=~.~#$**.==*=**~=)=.))~](#$&@..#@~*#~=+@*=*###+.#.#+*=+ $.#=..$.**=))*.#..$+.***~*.~)))=**~*=)**]..#..&&~~=&+##@*",
"$@#$##$#*.*.#)~+*##=$$@*)==*~$.=*=.**.=)@&'+@ @.*~)=+*+*~)*#%.~*##$&&.@=## ..##.*==*.~@.###.*.#=.@+*=~.=))=.~.~)~*..+@>+..%;*.#+",
"###@+##@#+~~~*..#.=..##*]*.*=)#.#=*==).)@+$#.+#.=.*#*)))~~*.#.== $'%>>$&#+##*.#$&.=]*]]]*#~..=*.#*)*.&*.@.)==**)**#)*&;>.$#.=~##",
"+@#@+++%*=)*)=)===]^].+~=**===).#.@$+*.#.@##@@#@*=*)=~)*@#~)##.. >'$$.&.~.=))*~)=))]].^]*=+##*.**.==*=*.***.))=~()*.==++$&>$.**#",
".+.@@.@@*~~***.@=])=.*=)))) #.#+++#>$+#*.*###.*@*****)@**.*. $##..&&*&.@=$*==.]=..*+=~**& +$#$&@++##...#=*@*.*.)#*@@+$%&>>,}+@#*",
"@#++#.#..*()=**==)=*^~.**@*].#%$&%#+&.+.+~.&%@.=)))**)@.##&*~$%.+*~+$**#*_.,.*=)*.~=.@.=+$+ +*$ @# .#*###.*=.@~..$ %#&,$+& #%+#$",
" +$.$.+#++..#@...=)==*..+**=*@#+##% >>#*$+$.$+$*=~*==.##=##.**&$#+&';$.*=@=_^**.$@@+.#@#.*&%&$*.+$+@&$%#....=~*=.@@%$%$ $$&+.%>$",
" $ $.$####@=*>#)]*#*~=]~+#*~*@$.#@+&$@@$##+.*$##=*@..*.*#=~+=++#$  $$;.@.====^=]$$+@##$.=+*@@*$#.++  +(@]*(^~*=*+## $+$$# >>+%'+",
"#$.%@+#@#.**#=##=)).)=.=. #.*)())=.$&&*=&$#@#@#+@*#+..*@*.@*))#,+&$&&%$+.*~*.(]*$'; ##+#. $ +@%+.#&$&$$.).~=.*~~*~@+$&++# +##+#*",
"+# .$.@*.*#*.*==))=**~#.#+#****=*#)$>>#+*.$$%#++*#.#..*.#@..#$$+''>%+,&++>...*#.+&&%&$$& ++ $@@+#&& + &%==)]))]=++@#++# *  +&#+&",
" $.*@#*.*#~*==)]=]=**=.+>+..**=)=)*#$%>+#.+##++#.**@@.+##+&% #& &&>; >%+]^#*=*.=+.$$ $&&%+#@.&@#~#@+#$$+**)=]==~#*.~@ %+#. #>#+&",
"#+.*$+@#+.#*$@.@=))]==)= ******#.**#+#$#.# +*###*@**~=..#@#$$.@. &&'&''&+#.***=)* #&%. $##=*@.##+~#$&+++~==()==(~**.~*)#&+#@;$&+",
".*.*#..***))##$=*=..+#+-+++@.#..#+#++  +#~.+#..#|1|||1|<)))==.^)@+&##%$& ##.*.+ # $&&@.#.=*.*)+==**@#.#*=<=|11<=)**=^*~.**.**##.",
"@.=~+ *~^#=)^].@$+#*.$#.+##..=)*#+#+@#&+.#*=.+#+2||2||]=.*=***#^*.$ +$@.#+$%+&++$> &&@&~@*#=.$#**)*.+~..=]=|134<.))))*#~..#*& #.",
"*.. @~.*^+.==)]=**+&##$#).*.*..=$+#%+$  +@..~*@ .22.5<66)*# +.=^)$@$.**~# #+@=#@*+.=.#$..=*)*]*.#*#$ +))==..|=3|.*=)*)+**@*..@#$",
"#+#. +@#=^====#*##~.**).#*#.=+@*.+ ++  .@@.$# *#<=5<55<2#~=)=##)@# +@*##*.*~+$*==..@*# +$##~)****.+#*=@+<2<<<2||@$ #*.=+#*#*@@*+",
"## @##+*)=*#+=.*.+.*=.#.=*.+{.+,> &$@#++.*@..~+#<7]1<.|5#.#*.#&*=#.%$+**=~+~))#+&#.)=~$&$+==#$+++.*...#*]1=2<<2=#=*>>++*@.*=+##*",
"+##++>&$.++#)==@$#.#.#===***.=@^+>-$@@.=# ++#@+.==<11]||*)=)~*=$>&%,$& #.@~@*+@@..#+.~@*.*#@+@.+$+& ###+<|==2<<.#*#].# #$..+.#*#",
"@####$ $*+*.&.)**##.#..*=]==)$+#$'@#.@@&+$+*.#>#=5<1<|]<))^_^^#+$+.*.+#$+*.# ++& #%&&#@*#**.#.*=)+*+@**#6<+5]2<<>++% @.#&++$+#@.",
"..@#&#&$.#...+*=*==#*+..=.@$+++ &%$&#*##@# @.]~.<<=<==<|*]]]^~=@#$$#.~*.++*.++.#'>#@.$&#+..#.+.+$+##**=)<5<8<.16'.#+> #$+$+##@.=",
")))*...++##@$##*=)~*..#+#=*#+ >#**.=+=)(=**)=*)+*=.###@..#.@.+$+#...~=#=@@@** @.. >+&% 9$+++.****.=*.*]=])==#+=[++.*#*#$+&+~.=~*",
"]=*=***@$#$$#+#+.#=)*.*+#.@=.$=..#+#)==**.#*=**#+##*.*~...*+..%&&*#&#.#*@#+#+@+.)*=$=+#+#&+.$$#*.#.***.=)]]*=&._*#.#*$+&'>&#*$))",
"=).]_]*.+&#...=)(=*=..#++$ +.*.=.**==*.~==~=#=.*=..~*@. #)*#0 $ .*..##{+,#+. #..@#*#.#@#.@.@=.)=)=~=)))*)===..+]*@ $&#';>$%  ++=",
"*+===*~=+. &+&$+...)=*#&%$$+@.**)){#*=***=*==~=*##=)=*=).@++_@=+** $.*{a.+#&+.*#.#$&.=*#.~*....*=#.===***#+$>@=.#@*&+.'&++&..#$#",
"^_=#+=*##.$$#@).*==.@&&$.#  @.==*.)*))=**~=#*=*#*).**.+#& #*+~++**= .*b[~@+&&#+@$*.+~$.@*@..#.@#=#=**~.#.##.*+.+#.*. .&,&&#$.)**",
"]. **##.#+@#%.>.*..#*.~++.+&$.++@**..#=*=.~*#.==.=..#.~.$+**=###+&#* @..***#+$#.@#...@ @#==#.*=.*~*#==)*)*@==..#%..+$+#>'+##$#*=",
".)]*=*..$%'$,>##.##.#+.+%&.=*@===.*==**=...###*=#*=.=.))*.~=**#~*=*=****~@+#$#.*~==##=+@&. #.%@*.+5#==*.*.*)))))$ #*.**#$+.***+@",
"=().==*&'&>>>&>+@.$#.**==]=.***_=)(~*=**#**~))==#+..##.=*@ .)@:=^))$=*.) +$++##+#+*@++' #&*%+*##*&&+@... +$+~==(===.*@.+#..*&++#",
"$*.@#.$~55.+c+62*#=#..)=)=..**@@*#~@..# *=@#@*=.*#+**..*)])*]^d^~*=).#&>&.68&c&4+%&#+*~+#% >++@#0.##@..)5+&c&22+=]**.=#*++$~#.#+",
"~##.+.#+e5=2&+5<*#*#@*=**+**@**~.#.*@@@.**=.#+@+###.@#*..)=.**=*##.*#*@;&'6&&5&f  $$*.*@~@=.$+#**.#@+~**2<.+5&.<)]_]*=*[!^*.=#=*",
".~*~..+=g..<52=h@.=).~=)=)#==*=~**+..@.+.@@**#~]** +=##~])=))*#=@.@~>##&c&f'&c5c>%$+>&+$$$$#+&+*.+&+$#*)5+66886+*)^_)**.#.#@*~*.",
"****.+##.1=12617)~*~==**=..*)=*. #@### #*)=.#*@#.*)=.*)==)=)=))].++#@$+$+5.ci'c'''#$@=*$'&$ ~@++@+ +.#.@++5+58&&==*)#.==**)=****",
".@#.~.=*=2=|<<.c===)]=)*#.*..)~**@=*#@*.***.*~*.*.**)=#@j@)*=*)(**.#*+ ++&+&k'k'%%$%$##+@ @+++@+#@  +@++8'&c&65<=)=)]*]])*****#+",
" *=*)=~.1].5|2=]+**).*===~*=).&*@**~@).@**.***)#@+*>..*#)*~*=]=).*@##....<.8++&8& .$%#.=$+@##@.*.###*##*.55+665<)=)=]].).*@=~*@+",
" $+..*##1=3|2<13==*==))*.*..*=))@#.@#.&+*~*~****.+#..*.*)~~)*))(.#*#+.*#..<55+88+ .@>>&+).#*=@+# @.#+++#85+c88c8*+#====#>@.*.#*#",
".=*).~(*<1612<=1)()=)~*~#@.*.@*)*=*~@.+~=)*=*.##$#.*==)===*~*+.=*  ##.#~+585+588$+.#)+>&>~##*.# .&...@+&c8+5+88'#)=)=)]=#)*=~**#",
"' #&@#  ).~#hl#@***+**.#=**)(.@~*++.@~+*).)#)))=].=~==)#))...$.@**+#.*#$.#~#*@#@.+*]*[)=)=*..*..+#$*@.*.(#=.+*.)*.*****.+.+'@**.",
"###*+# #@#*~[*@~)=)])))~*=.##*..=(~*##+ )).)~)*>& *==.=)*=))(]$*+##$ &#*.#*#+*@*..@#~.*.$%++*.+* +#$*#+#==$)]==*.*..@#*=#$&#%%$+",
"++@*$+#*~.##~**.**)])=***~*$+.*~@.*~@ #+~====##_~*))*.]]^====]=]*~.$@~*.*~..*~..@)().)**#=#....*###  #*@.*~~<=..#.#*+#.@*.@$###$",
"@&++@$ &+~##*=*)=)=**==.@#.*@.#.~**~@.#+(=.*=*.$*~.==)=))(*~*=*)+~**$&$@**))##@**..^1)=&#.*$.=*#+@.#.*@~=]=*.)*#.*=*..@=..#+**$#",
"@#..@......*#.)~))*=(***.=..@)=*=)=)...l*=*~#*)**+.*.#(=^~*)])*==+#+#=(*#+*#)**@+#=]))~..+~* # .# #@#+.$**=~]=*=&.=)*.+%* #+##*.",
"&$#+..'#)*. @.**#])*.*..@.+##.*#.~)*#)=]*^^]===.~a*@.=+###=.*)]*.*.+..**..++**@#*=@~=]$##*#+#+#@$$+ +##~**=*~=*=#+#@.==##$+***#@",
"#$$. ##+*#@**=%**~*.*..#+..*+*.....*@.)(]*=!^==.+#*=.+=.=#^]).==~@)=)]==##$+{&$+)#~====*=@#@#.$+&$.+. +.=*)]])]*.##....#*)+&@++&",
"+$&'$#*+&$#.*$))=~()$.+&$***)~=).*.###))]]])^).+#..+#..#+=#)=)==..@=..@$#*#*)+#$>#.++.=*##~*#.&.@$+$ #.@)~)=].=.*#:.@.*...~+#&@.",
"#$+* .#@**#.~*#**.~~.@$}$#*~.###.*=@+@% #$*$$###*#'.*)+###~~)~&##=...*~^**)#.=*])*]=**...*)=#.#&#+#..*.*.@)**)+.=~)=****$$#% @=&",
"+.&.++$#=***.=*+&#@** )''.#+.*##*...@*@ 85<***)*]]^=..>=.*@*m#)**..*=*==)=$)1]=**=<(*.*##$+#+.()+.~@#..#..+#(=).#.#+..*.+# $+%+#",
".+*)%.*#..#***+#@+  @+ #+&=)****.*@~@@#*)5*)<<<++@)^==^]=**#.'.=.*=@*=#.==)))*(])=~=]*)=$#=**@@*=#*...+*.@==#*<)]**.@** @++ ++++",
".=@*'.)@*.#+)*=*+@@$*=$$+#+  .~*.@##.@$.**#**$<#])])!]*)*)))=##=*])#&#=@)..]*).=.*^**.#@**#.**+@*#*@.* #*##..**#+#.=*#**# &##$% ",
"#+ #)#*)*~*#.**$%##*. >}$+ #>$##*~~**#&*558$5*5#==*]*]^@+*)+#.@**=)^)##*#=+..#.*)*...*.&@~**=~**##.*=@=+~.*=*..*@*.=.*.*#  &>+@+",
".=~~+.##..**#.+*&..#@@^$> $ **@..*.**.*@5*5<**#*=)=)=)*^**.*]*)*)]))*)#&#*)*)=*#~=**=*=*+$$+$###)#@.#.$*.*..#**==#=*..#=.+&'++ +",
"#+$&#+*.=.####=*$&@.*+$+.=*#++@@. @@*.***###5$5*==)====~#.)*)***.=**.m.**..~]_<*=*=*@..$####@@..@#+#**~*~*~=~=*++.***~]*#..$$ +#",
".*~*)*~*)~=#****=@ *~#=.+@*++>:&%&$+@$$.55##**#*==]=.+)] +#*=+&*])]=]n_=#..))=.+****=..).+@*+@#+...##@.)).*@#$*# **=.**.@*#$$>##",
"~=)]))**~===+$#]=.$.)^~*.&#~.))#...~#**]*)))(****===))..#+&&.*>~*#..#)*]##++$@*..==)]**=]=..*~===*=)~=*===**..*=#+.###*@%%=+.+#)",
".*=.#]*@~..*=.++*=.*..=]#)#$%+##....=.***=)#=~#&*(]]#.*]#@+; *@.]]]*##=*)++~+.#.~=@.=*)]==]]=*)==#~=]])])=*)#*=@)).==.*))@$$ .+@",
"+#*#+$#*#.*]]^^.**$.*+&+$@..=*#.+***)=)=*.**#@+&#.=@]).~.#=+*#...=]_]=].#+=#..=~=**.#*=*..+*)===)..)(=9(]***.*==*.=&$~~*#@+###$.",
"*@~# ++*]*]))~=)..$++)#)=...&,++##.*=)=]]=~*.*=~=*])])()=.*=#~**)]]]](!_=@ *..=*=++.*#+@**.##+++.=*#.#_@.##+#+@)~)~]~.#*## #@@&@",
"# #@*=.*).**=)**#+ $.*+*=.+#+#+#=.+#@..=*=***..=]=~~+*)=.*=)@>$+=.]*=]~=*.. * +@.++;-#+.*~==]))=*.#.=&=*.*...#+)=*$*)))***#@#.+$",
"#*==~.+&=*.=.#~===#. $*..*=#=*#@.=)**==#@.###*#**.#+#...&@.~~ .+=*.)*=*.#*~*..@.)**.+$+*.+=.#~*===]=.~==.++...=**)])***=..++#.*$",
"*.==.=.+)]*..)#@=)]*$@#*+*.===~*=~)==]***~~=.=)=()^=*++++$.**@..#.*=)*.=.=..***.=..=.*@~~.##**+$===~*..~(]****.*.===*.==*==##+@#",
"=+.=(=~~])]=..*))=)=.<=(]* #+$#.++.#*)==.=)*=####.==#=~=.#**= + *.)*)))=@~~)#*~=))=.+=*..#=.*=^)=*.*=)]..+#=*.#+$+@#*##.#+@+#$#*",
")^~*#=~.@.==.*>$$#~^*.=*#* & #&@#+###).**@*)~=@..#+*).*=*.@)..#*#.)~.==~*=).)*=~$$@*+> $' &+=..~~==# .++#.$#@+##+##.*#@*.*#).*@~",
".))=))(=)).#**=.=.@+~=***.*&$&,&.$$+#*~)*#.#+*=**==*=)=*))*=*..#.**#*@..+.**.#+*. '&=,$$% ..@$#@+$ .@~@@*.+%#.$*@.@@*=.*..=#.@**",
"#+*=.**#~..*.)=##*=^]]=*#+*~ $=$@+ *##+.@.)))=*#*.))**.*+*==)****#*~*=~]**..#.=+#+*$$$&+++$+ ++$.@.*.*@#~**.+..*~~~*~***=~==)~*~",
"*=~).*)(*  #>##*==)*^]#'&#.=^.+ ##@#..)**)**)=**=)~)~=)))*=====*.#=*)+=*).##+$+>#=$>&$#@.%$ $$@& @#.# =*=*~**=****.*~**.).*.*~=~",
". #**#*@~=$ >>#._))-=]_=#@+&##@$ **#.&)=)])=#))#..#~]=.#*~=***=~=)~))^)*.#*@.=~* #*.$+%#@.@@++@.*.@.@*.=)_)(=]]@#.***@#~)=)))~~.",
"=))@*+++#.)=]#*.]^])>*]]=*()+@~=+#@#&+*~.@*=]*]=)*#)=.=**...==$l+#.*=*.*=.)*~~)b^~)=@.##+*.* @#.#.).@.**.=)(~=)~* #+#...)*#=*.**",
")=***).#****=.#&.*=]]+*=$$.@.@*'##***#.**..*==*~=^)****==*=)#.^_+@*..*#+#~#.**#.)))])~+##@+#@ + ~@+=..*+*~])@=**#~.++ $#)**#*=**",
"()*..*.#+>j++.@**.=*+==.$+#**~* &$&*###*@..+.~=#.))==#.++@##*))]*~.*@*@+#())**]===)))===-##&$..#*###+#$+.#**=~)=*@#.#@#@*=.*#.))",
"3=1..8+5%*). ',=*)#++&..#+ $@+$.$ +++&$.*..@ ****#*~*.***=~)=.***.*.*@#~# ##$$.*=(*++#*.]..@@ =)=~*..##.=====*]=.*.$ #.*.*===)))",
"|]=]]8&.$+.~=)^#..~)^=*]@#*.#^*#+&+.+ '>+#.+#*)=##*@@~..*#+#*~..&+.@;*##.**.@#*~*~~*.@+ =]_=+.~)(#.=.#..=.#.=~@)+@@##+@ )]==]]()",
"<31=7=+8 $**=]].*1##.)*>+#$@>#.@*=&&$%$ $$$$..#=.#**+#+*#*.>+#*****&$*..#+*)*+@^)*](]]]*==!]^^=*==**~*=)))***)~=*...+> ~^^~===)=",
"|1]1|1=5.$'+@##)+'$+#=))  =.*.*]).***+ '++#*+#*##+ #~#=)$.#$@**=#$@~# @...#+~**#)=)**#@#(=^_.*=]..*@@**.)+@==)=)~=~+##..==]~~==*",
"1.<23|===.+$&;+$*.++=())*%>&+@>#$#++*@  &$*=~.#*####.==*~*=**{9+@'.*.+#@ *#*##+@### *.#+#=)=]]*.=#*#@..**).==.*.*.*@#+ #=]=(]^)]",
"17===.<..].+=> ##&&*+=))=. ++#+&#=..~#.*$>#@~..##$**=.&+.###$,i##..*#.@.*.#.#*~..# $##.#***=*)=.#..).+*=+=]))])*~#.*~*.@==))====",
"<<<=<<7_).+$+#+#*$## .~**$.+$.*.=.*.*..#*+$.$$$**#$#.~@+~@~=]d*%#@.@~.@~#+@#..@*#++&$#++#..#*=*)~###.#$+.#@****. @#.+@+.=]***=]~",
"=<5|]|1]]==*#+$#+<.#].=*#+$.*.+$+..*+.##*~]##. %..=*)))...#+~***%##~.*#..~.@@#@#+#$> %&+*.#+@~**..$+&$+#~@=.=*=)@@.***..=**.*=(^",
"=]=#]]]])).=.&+&+@*.##.+*=).*))]++~@.#++=@*=~*~*#@..**=@+~$##.'=*.**==**#*~)*##@#+$>%%>>&$$&>$##++#+## .~..***.**).(~====~**@.)=",
"^]#^))*=))==(*.$;#**)**+...#*))*..$.*+&+.)**=*+##*@..@#.*+####)~=#.=**.**.**...@$.#$$#+ $##+$+#..*#+$..*=+*.**~==~#+(])*##.&#.#)",
"))=)===*=))])*..+#+.#**..++*.))]@*###.+##*.**.*=)*.#+.@#$##.@++.~..=.=**.##.$%#.@#$###~#+## $##=@.**)**~(**@.=#.=)^=+)*]#+*.#+**",
".)=~)]*===*=)*@#*#~#*.**..*##.=*@&.@.++ $*.*+## ##$.$##*.@####.*~*#*~)**###@=~#.#++#.*#=**.@+&#+..#.).~.*..**)*====^])==**.)#~**",
"=])~===~)**..*##@..~.#+#@=*@#+.$&'+*.@ ++#.***.*$#.##$#@.#+=*#@.**#=.*..+.@>.#$$..$.=*.@~*~=*=((~*@=*.+*.*)~**@~])=)==.=)$+.*=]=",
")=]==*))=.=)..*.@*=...=#$+*.#.#.+##+@.&#...@..#$$#+$$+ #.#.##$#.+#*.*..@*#.##@ +&&*===*@#...*.@#.*~=(=#.=.#+#*..)=*=~**=*.(==.=*",
"))=~+#$@=(~#***=~*@.*~)*=##*.*+&%#$.$+ +.#****.*#++++###**@)*++*=#.#@.~.>#@.#*.+@.#+&@=#@#**++'==.****]+))*.#.#.*=)**==.^))#))).",
"@==.*).#~])=...*===**@#=]=.=*.+&' #  #&+~.*.#=**.@++*..####=^))*.=..#~==*@*@*++$###+)**=*$&$#$#&#~+~=.#=..@*#..#=.=).=#*= +*.o#.",
"#$*#.$+$@#)#$,**==*~.==#$+$# *#;>$).+=)*==)=)(==+#****#.#..&+##*++++$#@#.=*.@.$]7|3=|=<|=))~.++@$*$##+ +***..==@. ..*~.+** $=)#+",
"+##@#*@##$>$#~.*)*=))#]+$ '+$>$& @.*..**~=*).~*.#$++#)**+$#.##~#+#&'  #+=..#.*^=1.5=221<===^)*.@.#.@=*+.*=*#* *=~@$#.#..&+#.&>%$",
">$ +@.>$$..',###)=~*^.=)*#++@ &+++@====**=)=)](..#@#$*@*#+'@*#@~+++~$  *=~.**)..2.55<.||.=*=).)**$$##@*) +*&$.$#=+##+$#@=%-># >'",
"&&+#+*.##>+~+>==))])==~+#*=###@$##.~+#=.~.====#+$.@##*##@=*.@.*.*~.=++$+=))@==]=25655|56=*==#$ $&==***~&*'$+%.##*.~@#+&>$$$>'''>",
">#+ .++#+@$+=@#+)=)]=##&&.+** .$+++*)$~..~=..(**+*.**=).@#+#+@***.=*~@+% .*]*~=)|65.]<_3)~*.+&+++)*))).))#*>&+.# @.~*@@# + >>;>'",
"$> #*.+%*+))#*.#====*))~@+'{$@@)=$$*#+.#.=@.#*,&].*=.*.=*##.=..=~*@#=*....=**.*.5.<<<=|=#.~=. & +*=**)**.+. $*== *@@+.$.*$$$&$-'",
"&$$ ~((#*)=]^~+##=*..+.^~)~.++ #.. ~..**#=)=*=(= $+# #'#~. #~@*$#~~*.*.*#==.#*@..58'|<<1*.**#.++++#==).#++$+*+@**@@.==@@**#+.#$'",
"'$@#+#*).=**@.*+#@.===*=#.=@# >$++%$*#&+.# +#~.#@=**##=@@@#$.*&]. +@#@=*)))=@#~=1=<5i.2.+ .*.#+$$##.=*)).).$**#=)#+& &%$.~*~.#&'",
"%$ @#$&##*==*==). @#.#+.*.)]+.$&#+#&##$+#*@*>+.&>&#.++++###  #*.$++..  .&@#+@#@-##*###=.#&&==*(~52<2<c|1..*.@*)$=)^^*~)=*=#)**#&",
"++# $* +$...)=.*.#+#@#.=)(~=]*~.@#.+.#*##.#.###*#+$=j*.*]])***==~)=))*.&$+~@$&%~#*+ +# $*++@*+#)1..65<|1=**.#&#*+@)^==***.=..*.*",
"#@@$#*+*)).*=^^]++*#@=.@)==)]=.#..#+#.+=&**=])]*&$$$)..$**=.)])*$##%#@)==.@#+$$'.++#&>&+*=#.@*)*<=<+.2<2*=***+{*))=)=*.5*=~.#+.*",
" &.+$& #))]^)=).#*@+##=#*)(#===**==*#++$&.+~*)+]=#+$++#.@#..~*=~#.+%@+&*$*)##+#++% +>&+#+,$#%.+=|<|1<6=|==#*#)*#]*=))*.##+$+.*++",
"#&..@.@+*==)]*=]@#+#.+#@*=.#*==]=..#~= *#+>+&#*+#+>#>#+#~.+$+# .>& &+.*++$@$$ $+**=~+&>&=^))*.*#<|<=<5<<*~#*+@+.==*==#..=]*.@#.=",
",>$+$ +&=.#,+.#*#+~.@..@==..===()=]==#+..#$ #$#+.&&+.##*]=..#*.=#@@.+$'$&,&.+ ++$#=*.+##+#+*+@.*=5<1<<<|= #>+&$& +..=#..+>#@$+$>",
"@@@$+.@$.=@=;=**+#.&##.+=*=~*.))(]*~.@#+=.#.+*+.=)@=.*~*=])(=..#+@# +~..*&& +.+9&'++**+$#**=*...=11|1=<.$#>+$*+$#*.+*==#.+#*###)",
">$+@@@@-#]]]==~*.#=.>+@#.=)@+)===.**.@....=#.+]*.$$++]=#=~)=]=*~*$.+*++#*@$#%'>='+&+&@.*+*)**#=#.5<..<='~(]..*&*.=*.]=*.#+++.$+#",
"@...#+*==.)=^)]*$>###& @#*~~=+*#$..*#$**.*#*~]#*..#^___l=))*.)=.=..**9+=**+$'-*~ # @@#.*)~**#>+.+@>{***]]]~)==.-.+~*.#$&##& +@#+",
")*&+@.=*.]))))=*$$$.#$&$#..@#.#)*#@+..#.#..*+.*##*=~*+*/=#**.==#^^)#._**.~#'=])*#@@)+@++*.@*~)+. &#$>'~#**#* +#>=&9$$*+$;@++$#+.",
"*=]*.***==)=<)~# %+ @@@+.#.#*.#.*@.**+.#==.=**)*[#&+##.#.@.*.+**))]#.+###))#$+.#$$+@).#+*+**#+*# +#$++>++#~*)*==>+#@#+=#.## &.%#",
"==.(==*)=)])=]~#.#&+##=+...=..* .#**=~@@**==..^..])*#+.=))...=+.**==..~*+$+..+*=+$ $.&+$++@.+*,.%$;==.*$**.*=$*^.$+++++=.+*=>*9 ",
"*=.*~*..@.~#==*+;>* ++#@***...@.+~)**=#.)=)=.=*..]+.=)]]*#)^=.]=*#)])* *&*=]=*+)*.%$ =#+@$+*+.###$,#&+#.))])=)=.~.+@*.~~~@#+#.#+",
"*...*))*=~=~.+..@=.@+*@+#.#+$.#**..+.=@ *##)=#==~*@=.]=.*)++)~$.)]^^^=.* #@)](*.=@.++$+%+#>%++#+$$&*.**=](.*_)=.+ $#+&&,.@$++$ +",
"#$-.)]_]]==.*===~+$..@###++$$##*.)+.#+ ++#*=.*))*=.$*.*#+##.~(=.==]=)*)**.+.*#~&*@@$,+>$.##>$+.#$++#.*=*~=]=*)*+#$+$.+.+~=@%@.$ ",
"=*+#~))=(=~*~)*]++.#++ #=**.#++#**..+#+#.=]=))]=*@&*##*=*=#+#=.$*>.=^_.* #@**+=]@ #*@>$')*#+&&++$$$&$#  #*-*=.**#.=)=)=# =).@=&#",
"+@..$ #.@=~~*)*+))@).)=.@.++$ *#**)=.===.&$=~*)~.*@ $$&#*]^.#.*.+#*)@.=#+$$+.).@^^=~*.+$+#$''#&$%++##&$ .=[*$'=)*.)).=*=.~)]#' #",
"+.@% +#.(=.*@#@*.~.*=$*=# +#    #*..+.*..#====.)*=.&>&#.]*+=(.*&+#+##=**+%>;%++.]]=])]==$++#>$+$>#++ +$.*)=]*)=~)=**@*..*=.*=^**",
".#.==.@@$@((*.=#)*.=.+ ]#$ '##$$*~=*)....*..)))=@+.#+$+)===__)$###+**)*.@=..@#~.=)*.@)]).=@ &@$*$@ $>+*@*)].*^)=+#.=*~@.>))~**)=",
"*.+#~.*% @@*).##*==.)*@%++.$%+  ==.*])=)*..=.+*)@~.-~#+%+++##..##.$+#@+*#$@.+$++=]^=]()*)++%$*.).@+*#$..==(^]]^]=#.#.**,=.*=.#))",
"+# $#=& %##=@~@*.=*])~#+&$.$$#.+.*.=)..++...)(*++$,>&@#*=#>+.#$#+# @)=#@+.*@$&@=^]^]]$]]#.#.#.@+*#$&+#.****(=~]=.+#@*#~*#...###=",
"+#.@# ';@*..~~.*=.)=)==.&$%#$+#&*.*.**#*=*.***-$>$=.,&>$@=+$$+$# .>$***#$&>&*#&#)]*]*]..**##%.]^~.)@##.@...#.#&=#.==~.#.=)))=$.=",
"@@+&#+~#& #.@~..**##)=#+&+&&$@&@)])=.==.**=~$+*].#%'>$*%+=*&&#..@](*+#**+$+++#++#*)).#....##.#>*)(@(...*=)]===@==~.@)****~##..+#",
"#~+.#..#~ +#..++@#*#.++ j;&''&' .=#9=.#=)=@#=)*##*.#*+]~_]]*$]])=+)~#@=..#*#+>-@)*=#.*.+.*.)*..=))****#+***=]])=*).)#~)=)~=)*.#."};
